<?xml version="1.0" encoding="utf-8"?>
<!-- Generator: Adobe Illustrator 27.5.0, SVG Export Plug-In . SVG Version: 6.00 Build 0)  -->
<svg version="1.1" xmlns="http://www.w3.org/2000/svg" xmlns:xlink="http://www.w3.org/1999/xlink" x="0px" y="0px"
	 viewBox="0 0 750 500" style="enable-background:new 0 0 750 500;" xml:space="preserve">
<g id="BACKGROUND">
	<rect x="0.093" style="fill:#FFFFFF;" width="749.814" height="500"/>
</g>
<g id="OBJECTS">
	<g>
		<g>
			<rect x="223.467" y="149.968" style="fill:#EDF5FC;" width="300.255" height="135.319"/>
			<rect x="332.999" y="159.743" style="fill:#C5DDF0;" width="1.677" height="115.77"/>
			<polyline style="fill:none;stroke:#C5DDF0;stroke-miterlimit:10;" points="512.233,189.032 512.233,275.566 437.68,275.566 			
				"/>
			<polyline style="fill:none;stroke:#C5DDF0;stroke-miterlimit:10;" points="504.574,265.855 478.531,242.176 462.616,242.176 
				422.446,210.394 			"/>
			<polyline style="fill:none;stroke:#C5DDF0;stroke-miterlimit:10;" points="420.883,214.913 419.878,208.035 426.315,207.818 			
				"/>
			<polyline style="fill:none;stroke:#C5DDF0;stroke-width:0.75;stroke-miterlimit:10;" points="299.244,210.669 298.682,214.34 
				294.872,213.606 			"/>
			<polyline style="fill:none;stroke:#C5DDF0;stroke-width:0.75;stroke-miterlimit:10;" points="267.614,224.588 264.932,222.02 
				267.72,219.321 			"/>
			<rect x="349.51" y="178.021" style="fill:#C5DDF0;" width="42.042" height="1.138"/>
			<rect x="458.148" y="161.34" style="fill:#C5DDF0;" width="54.085" height="1.819"/>
			<rect x="270.015" y="244.153" style="fill:#C5DDF0;" width="54.085" height="1.56"/>
			<rect x="270.015" y="250.66" style="fill:#C5DDF0;" width="54.085" height="1.56"/>
			<rect x="258.893" y="257.168" style="fill:#C5DDF0;" width="65.207" height="1.56"/>
			<rect x="441.723" y="168.957" style="fill:#C5DDF0;" width="70.511" height="1.819"/>
			<circle style="fill:#C5DDF0;" cx="396.829" cy="178.394" r="1.808"/>
			<rect x="349.51" y="187.085" style="fill:#C5DDF0;" width="42.042" height="1.138"/>
			<path style="fill:#C5DDF0;" d="M398.638,187.457c0,0.999-0.81,1.809-1.809,1.809c-0.999,0-1.809-0.81-1.809-1.809
				c0-0.999,0.81-1.809,1.809-1.809C397.828,185.649,398.638,186.459,398.638,187.457z"/>
			<rect x="349.51" y="196.149" style="fill:#C5DDF0;" width="42.042" height="1.138"/>
			<circle style="fill:#C5DDF0;" cx="396.829" cy="196.521" r="1.808"/>
			<circle style="fill:none;stroke:#C5DDF0;stroke-miterlimit:10;" cx="274.276" cy="185.649" r="10.723"/>
			
				<ellipse transform="matrix(0.2288 -0.9735 0.9735 0.2288 -21.51 416.7557)" style="fill:none;stroke:#C5DDF0;stroke-miterlimit:10;" cx="252.289" cy="221.954" rx="9.283" ry="9.283"/>
			<path style="fill:none;stroke:#C5DDF0;stroke-miterlimit:10;" d="M310.312,221.954c0,3.743-3.034,6.777-6.777,6.777
				c-3.743,0-6.777-3.034-6.777-6.777c0-3.743,3.034-6.777,6.777-6.777C307.278,215.177,310.312,218.211,310.312,221.954z"/>
			<path style="fill:none;stroke:#C5DDF0;stroke-width:0.75;stroke-miterlimit:10;" d="M283.382,196.372
				c0.511,0.064,14.298,16.299,14.298,16.299"/>
			
				<line style="fill:none;stroke:#C5DDF0;stroke-width:0.75;stroke-miterlimit:10;" x1="293.297" y1="221.954" x2="267.638" y2="221.954"/>
		</g>
		<g>
			
				<ellipse transform="matrix(0.159 -0.9873 0.9873 0.159 216.2694 451.179)" style="fill:#C5DDF0;" cx="372.957" cy="98.649" rx="24.255" ry="24.255"/>
			<circle style="opacity:0.7;fill:#FFFFFF;" cx="372.957" cy="98.649" r="22.723"/>
			<line style="fill:none;stroke:#C5DDF0;stroke-miterlimit:10;" x1="372.957" y1="77.032" x2="372.957" y2="81.032"/>
			<line style="fill:none;stroke:#C5DDF0;stroke-miterlimit:10;" x1="372.957" y1="116.181" x2="372.957" y2="120.181"/>
			<line style="fill:none;stroke:#C5DDF0;stroke-miterlimit:10;" x1="394.531" y1="98.606" x2="390.531" y2="98.606"/>
			<line style="fill:none;stroke:#C5DDF0;stroke-miterlimit:10;" x1="355.382" y1="98.606" x2="351.382" y2="98.606"/>
			<polyline style="fill:none;stroke:#C5DDF0;stroke-miterlimit:10;" points="372.957,83.245 372.957,98.649 380.574,104.691 			"/>
		</g>
	</g>
	<g>
		<g>
			
				<rect x="534.952" y="356.266" transform="matrix(-1 -1.224647e-16 1.224647e-16 -1 1115.9387 717.4394)" style="fill:#332C57;" width="46.035" height="4.907"/>
			<polygon style="fill:#5E5782;" points="552.561,277.227 596.221,277.227 580.987,356.266 536.604,356.266 			"/>
		</g>
		<path style="fill:#332C57;" d="M556.686,334.436c0,0,1.979-3.574,1.021-4.723c-0.957-1.149-31.404-2.298-37.404-1.021
			s-11.489,5.745-11.489,5.745H556.686z"/>
		<g>
			<path style="fill:#403767;" d="M536.999,291.926c0,0-7.659-1.117-3.957-6.894c0,0-2.085-2.553-1.011-4.564
				c1.075-2.011,1.904-1.596,1.904-2.681s-0.989-4.149,0.83-5.713c1.819-1.564,2.138-2.362,2.362-3.128
				c0.223-0.766,0.16-4.755,1.915-6.479c1.755-1.723-0.032-10.085,7.979-11.649c0,0,2.202-4.277,6.638-4.947
				c4.436-0.67,5.644,2.713,5.644,2.713s10.378,0.606,10.442,10.117c0,0,7.628,2.681,7.404,6.223
				c-0.223,3.543-0.756,4.532,0.005,5.106c0.761,0.575,4.687,2.649,4.942,5.394c0.255,2.745-0.287,3.926,0.574,4.5
				c0.862,0.574,5.075,3.191,4.245,4.883c-0.83,1.691-2.777,1.947-2.617,2.649c0.16,0.702,3.192,3.479,1.787,4.277
				c-1.404,0.798-3.415,0.351-3.543,1.372c-0.128,1.021,3,3.798-4.468,2.042C570.606,293.394,541.595,285.862,536.999,291.926z"/>
			<g>
				<linearGradient id="SVGID_1_" gradientUnits="userSpaceOnUse" x1="439.9408" y1="326.9848" x2="529.9839" y2="313.1975">
					<stop  offset="4.000000e-07" style="stop-color:#FFCBD1"/>
					<stop  offset="1" style="stop-color:#EF85AB"/>
				</linearGradient>
				<path style="fill:url(#SVGID_1_);" d="M494.935,316.267c0,0-7.66,0.685-9.191,1.268s-4.148,3.326-4.148,3.326h15.063
					L494.935,316.267z"/>
				
					<linearGradient id="SVGID_00000151522321443695690670000009962577860667364519_" gradientUnits="userSpaceOnUse" x1="553.6377" y1="387.885" x2="560.7858" y2="288.0657">
					<stop  offset="0.2986" style="stop-color:#FF9660"/>
					<stop  offset="1" style="stop-color:#FFA65E"/>
				</linearGradient>
				<path style="fill:url(#SVGID_00000151522321443695690670000009962577860667364519_);" d="M575.927,342.858
					c-5.75,0.13-13.03-6.89-20.43-7.15c-7.4-0.25-10.72-0.16-11.87-4.34c-1.15-4.17-5.58-29.95-5.19-33.27
					c0.38-3.32,3.74-16.09,5.02-16.85c0.86-0.52,3.16-1.63,5-2.32c0.87-0.34,1.65-0.57,2.12-0.61c0,0-0.42,3.37,0.53,4.67
					c0.49,0.67,7.99,0.49,8.81-4.25c0.04-0.21,0.06-0.44,0.07-0.68c0,0,0.84,0.81,2.13,2.26c3.97,4.45,12.26,14.92,13.81,26.29
					c0.6,4.43,1.35,9.39,1.95,14.18C579.327,332.258,579.977,342.778,575.927,342.858z"/>
				
					<linearGradient id="SVGID_00000121995028367941657220000018120045145842244993_" gradientUnits="userSpaceOnUse" x1="530.7552" y1="386.2546" x2="537.9042" y2="286.4247">
					<stop  offset="0.2986" style="stop-color:#FF9660"/>
					<stop  offset="1" style="stop-color:#FFA65E"/>
				</linearGradient>
				<path style="fill:url(#SVGID_00000121995028367941657220000018120045145842244993_);" d="M527.965,320.762
					c0,0,6.596-30.432,9.086-33.943c2.489-3.511,6.675-5.729,6.675-5.729l-0.802,39.711L527.965,320.762z"/>
				
					<linearGradient id="SVGID_00000132080663481685425200000011747962620915713206_" gradientUnits="userSpaceOnUse" x1="566.2654" y1="388.9515" x2="573.4306" y2="288.8947">
					<stop  offset="0.2986" style="stop-color:#FF9660"/>
					<stop  offset="1" style="stop-color:#FFA65E"/>
				</linearGradient>
				<path style="fill:url(#SVGID_00000132080663481685425200000011747962620915713206_);" d="M585.047,320.788h-23.17
					c0,0-0.76-7.35-1.53-9.59c0,0,10.02-0.63,9.77-1.4c-0.26-0.77-5.49-16.28-8.05-17.36c-1.47-0.63-1.96-5.46-2.1-9.43
					c-0.06-1.72-0.06-3.28-0.05-4.27c0.01-0.69,0.02-1.11,0.02-1.11s1.24,0.41,2.92,1.04c2.2,0.83,5.15,2.04,7.07,3.24
					c3.38,2.1,7.85,7.72,11.61,21.12C585.307,316.438,586.457,316.968,585.047,320.788z"/>
				<g>
					
						<linearGradient id="SVGID_00000051352269412754126820000012723629554137859512_" gradientUnits="userSpaceOnUse" x1="-228.3254" y1="317.2975" x2="-286.092" y2="316.0209" gradientTransform="matrix(-1 0 0 1 307.2942 0)">
						<stop  offset="4.000000e-07" style="stop-color:#FFCBD1"/>
						<stop  offset="1" style="stop-color:#EF85AB"/>
					</linearGradient>
					<path style="fill:url(#SVGID_00000051352269412754126820000012723629554137859512_);" d="M560.547,312.57
						c0,0-7.245,2.19-8.808,2.729c-1.564,0.54-6.575,2.52-6.319,5.579h17.106C562.526,320.879,562.303,313.11,560.547,312.57z"/>
					<path style="opacity:0.5;fill:none;stroke:#000000;stroke-width:0.5;stroke-miterlimit:10;" d="M547.74,320.923
						c0,0,1.106-2.948,4.043-3.501"/>
					<path style="opacity:0.5;fill:none;stroke:#000000;stroke-width:0.5;stroke-miterlimit:10;" d="M551.783,320.879
						c0,0,0.346-1.676,3.489-1.883"/>
				</g>
				<path style="opacity:0.5;fill:none;stroke:#000000;stroke-width:0.5;stroke-miterlimit:10;" d="M560.547,312.57
					c0,0,9.835-2.581,11.367-2.836c0,0-4.851-10.723-4.787-17.234"/>
				<path style="opacity:0.5;fill:none;stroke:#000000;stroke-width:0.5;stroke-miterlimit:10;" d="M542.701,290.904
					c0,0-2.809,4-2.383,9.191c0.426,5.191,0.681,20.693,0.681,20.693"/>
				<path style="fill:#FFFFFF;" d="M562.86,278.67c-0.2,0.58-0.45,1.13-0.74,1.65c-0.35,0.62-0.77,1.2-1.24,1.73
					c-0.28,0.34-0.59,0.66-0.91,0.96c-2.97,2.78-7.08,3.88-9.1,2.66c-1.07-0.65-1.67-1.85-2.01-3.12c-0.34-1.29-0.41-2.66-0.4-3.62
					c0.87-0.34,1.65-0.57,2.12-0.61c0,0-0.02,0.18-0.04,0.46c0,0.01,0,0.02,0,0.02c-0.05,0.57-0.09,1.53,0.01,2.44
					c0.09,0.68,0.25,1.33,0.56,1.75c0.49,0.67,7.99,0.49,8.81-4.25c0.01-0.57,0.02-0.95,0.02-1.07c0-0.03,0-0.04,0-0.04
					S561.18,278.04,562.86,278.67z"/>
			</g>
			<g>
				
					<linearGradient id="SVGID_00000054987069409217769960000011380537174512829627_" gradientUnits="userSpaceOnUse" x1="550.9576" y1="242.29" x2="558.6869" y2="321.333">
					<stop  offset="4.000000e-07" style="stop-color:#FFCBD1"/>
					<stop  offset="1" style="stop-color:#EF85AB"/>
				</linearGradient>
				<path style="fill:url(#SVGID_00000054987069409217769960000011380537174512829627_);" d="M560.88,282.05
					c-0.28,0.34-0.59,0.66-0.91,0.96c-2.97,2.78-7.08,3.88-9.1,2.66c-1.07-0.65-1.67-1.85-2.01-3.12c0.21-0.43,0.43-0.85,0.63-1.25
					c0.5-0.97,0.93-1.84,1.05-2.5c0,0,0-0.01,0-0.02c0.02-0.07,0.03-0.13,0.03-0.19c0.03-0.48,0.06-0.93,0.09-1.34
					c-0.01-0.01,0-0.03,0-0.04c0.09-1.58,0.12-2.56,0.12-2.56l8.18-4.05l0.03-0.01l0.47-0.24c0,0,0.01,0.59,0.05,1.52v0.03
					c0.01,0.01,0.01,0.03,0.01,0.04c0.03,0.68,0.07,1.53,0.13,2.46c0.07,1.03,0.16,2.15,0.29,3.23c0,0,0,0.01,0,0.04
					C560.16,279.48,560.46,281.16,560.88,282.05z"/>
				<path style="opacity:0.3;" d="M559.647,274.398c-1.54,2.48-5.03,6.93-10.16,6.9c0.56-1.08,1.03-2.04,1.08-2.71
					c0.16-2.37,0.21-3.94,0.21-3.94l8.68-4.3C559.457,270.348,559.497,272.158,559.647,274.398z"/>
				
					<linearGradient id="SVGID_00000146494678377281096850000006527155106695179173_" gradientUnits="userSpaceOnUse" x1="551.7185" y1="237.3868" x2="560.7399" y2="329.642">
					<stop  offset="4.000000e-07" style="stop-color:#FFCBD1"/>
					<stop  offset="1" style="stop-color:#EF85AB"/>
				</linearGradient>
				<path style="fill:url(#SVGID_00000146494678377281096850000006527155106695179173_);" d="M546.689,258.394
					c0,0-2.383,17.532,3.234,18.723s11.489-7.66,11.489-7.66s3.745-10.809-1.872-14.042
					C553.923,252.181,546.689,258.394,546.689,258.394z"/>
				
					<linearGradient id="SVGID_00000059299838623306523740000012831881559797886081_" gradientUnits="userSpaceOnUse" x1="542.7502" y1="274.9196" x2="589.0265" y2="259.1537">
					<stop  offset="4.000000e-07" style="stop-color:#FFCBD1"/>
					<stop  offset="1" style="stop-color:#EF85AB"/>
				</linearGradient>
				<path style="fill:url(#SVGID_00000059299838623306523740000012831881559797886081_);" d="M559.154,267.628
					c0,0,3.255-3.957,4.723-1.085c1.468,2.872-3.745,5.915-4.532,5.255C558.558,271.138,559.154,267.628,559.154,267.628z"/>
				<path style="fill:#403767;" d="M560.923,267.533c0,0-2.681-2.161-1.149-7.65c0,0-5.936,1.34-9.766-2.745
					c0,0-1.004,1.723-3.821,1.915c0,0,0.055-6.447,5.672-6.766c5.617-0.319,11.553,0.255,11.681,7.34
					C563.667,266.713,560.923,267.533,560.923,267.533z"/>
				<g>
					
						<line style="opacity:0.5;fill:none;stroke:#000000;stroke-width:0.5;stroke-miterlimit:10;" x1="550.697" y1="265.558" x2="550.186" y2="268.031"/>
					<path style="fill:none;stroke:#403767;stroke-width:0.5;stroke-miterlimit:10;" d="M553.282,262.111
						c0,0,2.426-0.702,4.085,1.085"/>
					<path style="fill:none;stroke:#403767;stroke-width:0.5;stroke-miterlimit:10;" d="M549.644,261.975
						c0,0-1.902-0.927-2.946,0.291"/>
					<path style="fill:#403767;" d="M554.378,264.505c0,0.341,0.212,0.617,0.473,0.617c0.261,0,0.473-0.276,0.473-0.617
						c0-0.341-0.212-0.617-0.473-0.617C554.59,263.888,554.378,264.164,554.378,264.505z"/>
					<path style="fill:#403767;" d="M547.709,264.016c0,0.341,0.212,0.617,0.474,0.617c0.261,0,0.473-0.276,0.473-0.617
						s-0.212-0.617-0.473-0.617C547.922,263.398,547.709,263.675,547.709,264.016z"/>
				</g>
				<path style="fill:#B5F5F0;" d="M559.145,272.245l-0.447-4.712c0,0-3.213,1.542-5.106,1.137c-1.894-0.404-3.17-1.383-4.277-1.021
					c-1.106,0.362-2.447,0.553-3.128-0.553c0,0-0.157,9.855,4.077,10.132c4.234,0.277,7.038-3.057,8.881-4.834V272.245z"/>
				
					<line style="fill:none;stroke:#B5F5F0;stroke-width:0.25;stroke-miterlimit:10;" x1="558.378" y1="267.941" x2="560.215" y2="265.855"/>
				
					<line style="fill:none;stroke:#B5F5F0;stroke-width:0.25;stroke-miterlimit:10;" x1="560.522" y1="270.767" x2="559.044" y2="272.492"/>
			</g>
			<g>
				<polygon style="fill:#332C57;" points="532.497,401.245 509.008,421.245 544.327,421.245 546.306,402.296 				"/>
				<polygon style="fill:#332C57;" points="503.71,402.223 480.221,422.223 515.54,422.223 518.433,403.344 				"/>
				
					<linearGradient id="SVGID_00000181066076490278699270000006264968617133431436_" gradientUnits="userSpaceOnUse" x1="560.5997" y1="313.1221" x2="516.3443" y2="384.2712">
					<stop  offset="0.361" style="stop-color:#51A4FF"/>
					<stop  offset="1" style="stop-color:#7CCCFF"/>
				</linearGradient>
				<path style="fill:url(#SVGID_00000181066076490278699270000006264968617133431436_);" d="M534.135,332.564
					c0,0-13.064-1.745-19.574-0.681c-6.511,1.064-9.872,2.511-10.426,5.915c-0.553,3.404,1.702,14.255,8.085,25.362
					c6.383,11.106,19.404,38.936,19.404,38.936s15.192,2.809,15.064,0C546.561,399.287,528.604,339.117,534.135,332.564z"/>
				
					<linearGradient id="SVGID_00000066507307332032825570000000848092246074012315_" gradientUnits="userSpaceOnUse" x1="575.0925" y1="301.5052" x2="523.6877" y2="381.8463">
					<stop  offset="0.361" style="stop-color:#51A4FF"/>
					<stop  offset="1" style="stop-color:#7CCCFF"/>
				</linearGradient>
				<path style="fill:url(#SVGID_00000066507307332032825570000000848092246074012315_);" d="M568.457,355.128
					c-1,0.41-2.14,0.72-3.42,0.91c-1.01,0.16-2.11,0.24-3.31,0.23c-16.97-0.14-24.95,0-24.95,0l-18,48.34c0,0-1.44,0.25-3.62,0.4
					c-3.66,0.25-9.4,0.22-13.83-1.76c0,0,18.3-63.83,22.26-68.3c1.96-2.22,7.33-3.08,12.26-3.39c5.02-0.32,9.57-0.06,9.57-0.06
					l30.38,7.75C575.797,339.248,577.797,351.308,568.457,355.128z"/>
				<path style="opacity:0.3;" d="M565.037,356.038c-1.01,0.16-2.11,0.24-3.31,0.23c-16.97-0.14-24.95,0-24.95,0l-18,48.34
					c0,0-1.44,0.25-3.62,0.4c3.06-7.93,19.07-49.44,19.42-50.02C534.877,354.488,555.927,355.558,565.037,356.038z"/>
				
					<linearGradient id="SVGID_00000140713207746040117400000002309126513364015032_" gradientUnits="userSpaceOnUse" x1="495.1857" y1="408.8761" x2="504.1006" y2="408.8761">
					<stop  offset="0.2986" style="stop-color:#FF9660"/>
					<stop  offset="1" style="stop-color:#FFA65E"/>
				</linearGradient>
				
					<path style="fill:none;stroke:url(#SVGID_00000140713207746040117400000002309126513364015032_);stroke-linecap:round;stroke-linejoin:round;stroke-miterlimit:10;" d="
					M495.686,407.713c0,0,5.17-0.511,7.915,2.362"/>
				
					<linearGradient id="SVGID_00000007410370195866660830000013269619396574073493_" gradientUnits="userSpaceOnUse" x1="492.6276" y1="411.5728" x2="501.5425" y2="411.5728">
					<stop  offset="0.2986" style="stop-color:#FF9660"/>
					<stop  offset="1" style="stop-color:#FFA65E"/>
				</linearGradient>
				
					<path style="fill:none;stroke:url(#SVGID_00000007410370195866660830000013269619396574073493_);stroke-linecap:round;stroke-linejoin:round;stroke-miterlimit:10;" d="
					M493.128,410.409c0,0,5.17-0.511,7.915,2.362"/>
			</g>
		</g>
		
			<rect x="556.284" y="334.436" transform="matrix(-1 -1.224647e-16 1.224647e-16 -1 1116.504 690.7022)" style="fill:#5E5782;" width="3.935" height="21.83"/>
		<g>
			
				<rect x="551.859" y="361.173" transform="matrix(-1 -1.224647e-16 1.224647e-16 -1 1106.2072 727.333)" style="fill:#5E5782;" width="2.489" height="4.986"/>
			
				<rect x="547.114" y="361.173" transform="matrix(-1 -1.224647e-16 1.224647e-16 -1 1096.7179 727.333)" style="fill:#5E5782;" width="2.489" height="4.986"/>
			<polygon style="fill:#5E5782;" points="545.263,378.777 554.348,378.777 556.284,378.777 556.284,366.16 545.263,366.16 			"/>
			<polygon style="fill:#5E5782;" points="512.982,422.478 588.562,422.478 554.352,402.738 554.352,378.778 547.202,378.778 
				547.202,402.738 			"/>
		</g>
		<path style="fill:#332C57;" d="M587.157,334.436c0,0,1.979-3.574,1.021-4.723c-0.958-1.149-31.404-2.298-37.404-1.021
			s-11.489,5.745-11.489,5.745H587.157z"/>
	</g>
	<g>
		<path style="fill:#332C57;" d="M189.059,334.436c0,0-1.979-3.574-1.021-4.723c0.957-1.149,31.404-2.298,37.404-1.021
			s11.489,5.745,11.489,5.745H189.059z"/>
		<g>
			<rect x="167.212" y="356.011" style="fill:#332C57;" width="46.035" height="5.163"/>
			<polygon style="fill:#5E5782;" points="195.638,277.227 151.978,277.227 167.212,356.266 211.595,356.266 			"/>
		</g>
		<g>
			<g>
				
					<linearGradient id="SVGID_00000090288067425151027190000008494588477788609699_" gradientUnits="userSpaceOnUse" x1="208.7768" y1="242.6807" x2="176.3412" y2="324.6634">
					<stop  offset="4.000000e-07" style="stop-color:#FFCBD1"/>
					<stop  offset="1" style="stop-color:#EF85AB"/>
				</linearGradient>
				<path style="fill:url(#SVGID_00000090288067425151027190000008494588477788609699_);" d="M198.357,288.608
					c-5.02,1.53-13.1-4.94-11.49-5.96c0.96-0.6,1.44-4.81,1.68-8.14c0.15-2.29,0.2-4.16,0.2-4.16l8.68,4.3c0,0-0.25,2.58-0.09,4.95
					c0.01,0.17,0.06,0.36,0.13,0.56C198.307,282.688,203.017,287.188,198.357,288.608z"/>
				<path style="opacity:0.3;" d="M197.467,280.158c-3.93-1.07-7.07-3.73-8.92-5.65c0.15-2.29,0.2-4.16,0.2-4.16l8.68,4.3
					c0,0-0.25,2.58-0.09,4.95C197.347,279.768,197.397,279.958,197.467,280.158z"/>
				<path style="fill:#403767;" d="M202.012,268.436c0,0,7.987-1.532,4.285-10.085c0,0,6.638-11.617-6.319-13.149
					c-12.957-1.532-14.745,10.021-14.745,10.021s-5.936,1.085-5.489,7.532c0.447,6.447,8.945,9.151,8.945,9.151L202.012,268.436z"/>
				
					<linearGradient id="SVGID_00000139285186333096981120000014018122450825334417_" gradientUnits="userSpaceOnUse" x1="203.7163" y1="240.6935" x2="171.2907" y2="322.6509">
					<stop  offset="4.000000e-07" style="stop-color:#FFCBD1"/>
					<stop  offset="1" style="stop-color:#EF85AB"/>
				</linearGradient>
				<path style="fill:url(#SVGID_00000139285186333096981120000014018122450825334417_);" d="M201.51,258.394
					c0,0,2.383,17.532-3.234,18.723s-11.489-7.66-11.489-7.66s-3.745-10.809,1.872-14.042
					C194.276,252.181,201.51,258.394,201.51,258.394z"/>
				<path style="fill:#403767;" d="M187.276,267.533c0,0,2.681-2.161,1.149-7.65c0,0,5.936,1.34,9.766-2.745
					c0,0,1.004,1.723,3.821,1.915c0,0-0.055-6.447-5.672-6.766c-5.617-0.319-11.553,0.255-11.681,7.34
					C184.531,266.713,187.276,267.533,187.276,267.533z"/>
				
					<line style="opacity:0.5;fill:none;stroke:#000000;stroke-width:0.5;stroke-miterlimit:10;" x1="197.872" y1="265.468" x2="198.382" y2="267.941"/>
				
					<linearGradient id="SVGID_00000095307758162010751990000010313881971198487188_" gradientUnits="userSpaceOnUse" x1="198.0084" y1="238.4353" x2="165.5829" y2="320.3924">
					<stop  offset="4.000000e-07" style="stop-color:#FFCBD1"/>
					<stop  offset="1" style="stop-color:#EF85AB"/>
				</linearGradient>
				<path style="fill:url(#SVGID_00000095307758162010751990000010313881971198487188_);" d="M188.68,266.585
					c0,0-3.255-3.957-4.723-1.085c-1.468,2.872,3.745,5.915,4.532,5.255C189.276,270.096,188.68,266.585,188.68,266.585z"/>
				<path style="fill:#B5F5F0;" d="M189.055,272.245l0.447-4.712c0,0,3.213,1.542,5.106,1.137c1.894-0.404,3.17-1.383,4.277-1.021
					s2.447,0.553,3.128-0.553c0,0,0.157,9.855-4.077,10.132c-4.234,0.277-7.038-3.057-8.881-4.834"/>
				
					<line style="fill:none;stroke:#B5F5F0;stroke-width:0.25;stroke-miterlimit:10;" x1="189.821" y1="267.941" x2="187.985" y2="265.855"/>
				
					<line style="fill:none;stroke:#B5F5F0;stroke-width:0.25;stroke-miterlimit:10;" x1="187.677" y1="270.767" x2="189.156" y2="272.492"/>
				<path style="fill:none;stroke:#403767;stroke-width:0.5;stroke-miterlimit:10;" d="M195.287,262.021
					c0,0-2.426-0.702-4.085,1.085"/>
				<path style="fill:none;stroke:#403767;stroke-width:0.5;stroke-miterlimit:10;" d="M198.925,261.885
					c0,0,1.902-0.927,2.946,0.291"/>
				<ellipse style="fill:#403767;" cx="193.717" cy="264.415" rx="0.473" ry="0.617"/>
				<path style="fill:#403767;" d="M200.859,263.926c0,0.341-0.212,0.617-0.473,0.617c-0.261,0-0.473-0.276-0.473-0.617
					c0-0.341,0.212-0.617,0.473-0.617C200.647,263.309,200.859,263.585,200.859,263.926z"/>
				<path style="opacity:0.5;fill:none;stroke:#000000;stroke-width:0.5;stroke-miterlimit:10;" d="M187.521,267.096
					c0,0-1.626-2.085-2.866-0.84"/>
			</g>
			<g>
				<g>
					<polygon style="fill:#332C57;" points="215.318,401.245 238.808,421.245 203.489,421.245 201.509,402.296 					"/>
					<g>
						<polygon style="fill:#332C57;" points="267.977,422.228 232.657,422.228 230.997,411.358 229.767,403.348 237.967,402.728 
							244.487,402.228 						"/>
						
							<linearGradient id="SVGID_00000013152757031889908820000009327717758798550912_" gradientUnits="userSpaceOnUse" x1="248.4507" y1="430.7663" x2="218.8337" y2="380.4685">
							<stop  offset="4.000000e-07" style="stop-color:#FFCBD1"/>
							<stop  offset="1" style="stop-color:#EF85AB"/>
						</linearGradient>
						<path style="fill:url(#SVGID_00000013152757031889908820000009327717758798550912_);" d="M230.997,411.358l-1.23-8.01
							l8.2-0.62l0.31,0.62C238.277,403.348,238.487,411.488,230.997,411.358z"/>
					</g>
				</g>
				<g>
					
						<linearGradient id="SVGID_00000087375632137895871770000014918381035304185225_" gradientUnits="userSpaceOnUse" x1="171.111" y1="278.8142" x2="239.026" y2="398.3036">
						<stop  offset="0.2986" style="stop-color:#9DBDDB"/>
						<stop  offset="1" style="stop-color:#BDD4E8"/>
					</linearGradient>
					<path style="fill:url(#SVGID_00000087375632137895871770000014918381035304185225_);" d="M214.063,332.564
						c0,0,13.064-1.745,19.574-0.681c6.511,1.064,9.872,2.511,10.426,5.915c0.553,3.404-1.702,14.255-8.085,25.362
						c-6.383,11.106-19.404,38.936-19.404,38.936s-15.191,2.809-15.064,0C201.638,399.287,219.595,339.117,214.063,332.564z"/>
					
						<linearGradient id="SVGID_00000177466483358227203440000013711158160324521910_" gradientUnits="userSpaceOnUse" x1="173.9236" y1="307.9724" x2="297.4918" y2="476.7298">
						<stop  offset="0.2986" style="stop-color:#9DBDDB"/>
						<stop  offset="1" style="stop-color:#BDD4E8"/>
					</linearGradient>
					<path style="fill:url(#SVGID_00000177466483358227203440000013711158160324521910_);" d="M246.867,403.248
						c-5.96,2.66-14.27,1.8-16.73,1.47c-0.46-0.07-0.71-0.11-0.71-0.11l-18.08-48.34c0,0-8.38,0-25.13,0
						c-2.52,0-4.59-0.38-6.29-1.02c-9.77-3.66-7.52-16-7.52-16l30.38-7.75c0,0,4.55-0.26,9.57,0.06c4.92,0.31,10.3,1.17,12.26,3.39
						C228.577,339.418,246.867,403.248,246.867,403.248z"/>
					<path style="opacity:0.3;" d="M230.137,404.718c-0.46-0.07-0.71-0.11-0.71-0.11l-18.08-48.34c0,0-8.38,0-25.13,0
						c-2.52,0-4.59-0.38-6.29-1.02c0.92-0.04,32.05-1.36,32.43-0.85C212.707,354.848,226.917,395.488,230.137,404.718z"/>
				</g>
			</g>
			<g>
				
					<linearGradient id="SVGID_00000071527318531739553250000003786840104084261036_" gradientUnits="userSpaceOnUse" x1="184.6074" y1="358.2736" x2="193.6286" y2="278.6143">
					<stop  offset="0.361" style="stop-color:#51A4FF"/>
					<stop  offset="1" style="stop-color:#7CCCFF"/>
				</linearGradient>
				<path style="fill:url(#SVGID_00000071527318531739553250000003786840104084261036_);" d="M188.207,278.055
					c0,0-13.889,13.487-15.931,28.551c-2.042,15.064-5.745,36.128,0,36.255c5.745,0.128,13.021-6.894,20.426-7.149
					c7.404-0.255,10.724-0.165,11.872-4.34c1.148-4.175,5.575-29.957,5.191-33.277c-0.383-3.319-3.745-16.085-5.021-16.851
					c-1.277-0.766-5.978-2.851-7.457-2.979c0,0,0.257,3.624-1.181,4.532C194.723,283.67,188.394,283.461,188.207,278.055z"/>
				
					<linearGradient id="SVGID_00000069398240753679504130000010281140349271210643_" gradientUnits="userSpaceOnUse" x1="205.59" y1="360.6499" x2="214.6113" y2="280.9905">
					<stop  offset="0.361" style="stop-color:#51A4FF"/>
					<stop  offset="1" style="stop-color:#7CCCFF"/>
				</linearGradient>
				<path style="fill:url(#SVGID_00000069398240753679504130000010281140349271210643_);" d="M220.234,320.762
					c0,0-6.596-30.432-9.086-33.943c-2.489-3.511-6.675-5.729-6.675-5.729l0.803,39.711L220.234,320.762z"/>
				
					<linearGradient id="SVGID_00000115487054001126303100000008804144589814858150_" gradientUnits="userSpaceOnUse" x1="266.4436" y1="259.3892" x2="200.9968" y2="326.8785">
					<stop  offset="4.000000e-07" style="stop-color:#FFCBD1"/>
					<stop  offset="1" style="stop-color:#EF85AB"/>
				</linearGradient>
				<path style="fill:url(#SVGID_00000115487054001126303100000008804144589814858150_);" d="M230.872,296.521l4.043-6.255
					c0,0-0.213-10.128,0.681-11.66c0.894-1.532,2.468-1.234,2.638,0.255c0.17,1.489-0.809,5.787,0.298,5.532
					c1.106-0.255,3.872-5.234,5.489-8.766c1.617-3.532,3.234-0.511,2.043,1.745c-1.191,2.255-2.936,6.723-2.043,6.723
					s4.213-7.064,6.255-7.021c2.043,0.043,0.298,2.67-0.936,4.016c-1.234,1.346-3.617,4.793-3.191,5.601
					c0.425,0.809,5.021-2.809,6.255-2.979c1.234-0.17,1.447,1.745,0,2.809c-1.447,1.064-9.064,6.383-9.617,7.106
					c-0.553,0.723-1.532,2.894-1.532,2.894H230.872z"/>
				<g>
					
						<linearGradient id="SVGID_00000140707489800378091920000008028223641493341625_" gradientUnits="userSpaceOnUse" x1="212.2902" y1="317.2709" x2="154.5233" y2="315.9943">
						<stop  offset="4.000000e-07" style="stop-color:#FFCBD1"/>
						<stop  offset="1" style="stop-color:#EF85AB"/>
					</linearGradient>
					<path style="fill:url(#SVGID_00000140707489800378091920000008028223641493341625_);" d="M187.362,312.544
						c0,0,7.245,2.19,8.809,2.729c1.564,0.54,6.574,2.52,6.319,5.579h-17.106C185.384,320.852,185.607,313.084,187.362,312.544z"/>
					<path style="opacity:0.5;fill:none;stroke:#000000;stroke-width:0.5;stroke-miterlimit:10;" d="M200.17,320.896
						c0,0-1.106-2.948-4.043-3.501"/>
					<path style="opacity:0.5;fill:none;stroke:#000000;stroke-width:0.5;stroke-miterlimit:10;" d="M196.127,320.852
						c0,0-0.346-1.676-3.489-1.883"/>
				</g>
				
					<linearGradient id="SVGID_00000108992386882421349940000010826708674984692104_" gradientUnits="userSpaceOnUse" x1="170.4508" y1="356.5358" x2="179.421" y2="277.3275">
					<stop  offset="0.361" style="stop-color:#51A4FF"/>
					<stop  offset="1" style="stop-color:#7CCCFF"/>
				</linearGradient>
				<path style="fill:url(#SVGID_00000108992386882421349940000010826708674984692104_);" d="M188.207,278.119
					c0,0-6.548,1.743-9.931,3.849c-3.383,2.106-7.851,7.723-11.617,21.128c-3.766,13.404-4.915,13.939-3.511,17.757h23.17
					c0,0,0.766-7.352,1.532-9.586c0,0-10.021-0.638-9.766-1.404c0.255-0.766,5.489-16.277,8.043-17.362
					C188.68,291.415,188.207,278.119,188.207,278.119z"/>
				<path style="opacity:0.5;fill:none;stroke:#000000;stroke-width:0.5;stroke-miterlimit:10;" d="M187.631,312.149
					c0,0-10.085-2.315-15.128-0.743"/>
				<path style="opacity:0.5;fill:none;stroke:#000000;stroke-width:0.5;stroke-miterlimit:10;" d="M176.701,310.709
					c0,0,4.354-10.165,4.439-14.42"/>
				<path style="opacity:0.5;fill:none;stroke:#000000;stroke-width:0.5;stroke-miterlimit:10;" d="M207.042,291.84
					c0,0,1.532,14.177-1.277,28.961"/>
				<path style="opacity:0.5;fill:none;stroke:#000000;stroke-width:0.5;stroke-miterlimit:10;" d="M238.361,286.415
					c0,0,0.745,1.723,0.234,3.681"/>
				<path style="opacity:0.5;fill:none;stroke:#000000;stroke-width:0.5;stroke-miterlimit:10;" d="M184.655,279.205
					c0,0,2.484,6.656,9.287,6.912c6.803,0.255,5.971-7.072,5.971-7.072"/>
			</g>
		</g>
		<path style="fill:#332C57;" d="M161.042,334.436c0,0-1.979-3.574-1.021-4.723c0.957-1.149,31.404-2.298,37.404-1.021
			s11.489,5.745,11.489,5.745H161.042z"/>
		<g>
			<rect x="193.85" y="361.173" style="fill:#5E5782;" width="2.489" height="4.986"/>
			<rect x="198.595" y="361.173" style="fill:#5E5782;" width="2.489" height="4.986"/>
			<polygon style="fill:#332C57;" points="202.936,378.777 193.85,378.777 191.914,378.777 191.914,366.16 202.936,366.16 			"/>
			<polygon style="fill:#5E5782;" points="235.217,422.478 159.637,422.478 193.847,402.738 193.847,378.778 200.997,378.778 
				200.997,402.738 			"/>
		</g>
		<rect x="187.979" y="334.436" style="fill:#5E5782;" width="3.935" height="21.83"/>
	</g>
	<g>
		<rect x="595.673" y="320.968" style="fill:#5E5782;" width="8.517" height="94.022"/>
		<rect x="593.169" y="414.989" style="fill:#332C57;" width="13.66" height="7.489"/>
		<rect x="142.099" y="320.968" style="fill:#5E5782;" width="8.517" height="94.022"/>
		<rect x="139.595" y="414.989" style="fill:#332C57;" width="13.66" height="7.489"/>
		<rect x="142.099" y="320.862" style="fill:#332C57;" width="462.092" height="6.617"/>
		<g>
			<polygon style="fill:#B4BFDB;" points="522.743,295.921 533.679,320.869 495.977,320.869 485.254,295.921 			"/>
			<g>
				<polygon style="fill:#B4BFDB;" points="321.68,320.309 311.467,295.84 348.829,295.84 359.467,320.309 				"/>
				
					<linearGradient id="SVGID_00000109736086639888983660000003410067448401061551_" gradientUnits="userSpaceOnUse" x1="272.9085" y1="349.0416" x2="342.3554" y2="303.5947">
					<stop  offset="0.361" style="stop-color:#51A4FF"/>
					<stop  offset="1" style="stop-color:#7CCCFF"/>
				</linearGradient>
				<polygon style="fill:url(#SVGID_00000109736086639888983660000003410067448401061551_);" points="322.682,319.457 
					313.18,296.691 347.942,296.691 357.84,319.457 				"/>
			</g>
			<polygon style="fill:#B4BFDB;" points="221.084,295.914 210.149,320.862 247.851,320.862 258.574,295.914 			"/>
		</g>
	</g>
	<g>
		<g>
			<g>
				
					<linearGradient id="SVGID_00000056395694746385105630000005287702281101335223_" gradientUnits="userSpaceOnUse" x1="398.6394" y1="294.9835" x2="366.8096" y2="238.9834">
					<stop  offset="4.000000e-07" style="stop-color:#FFCBD1"/>
					<stop  offset="1" style="stop-color:#EF85AB"/>
				</linearGradient>
				<polygon style="fill:url(#SVGID_00000056395694746385105630000005287702281101335223_);" points="380.787,270.479 
					381.552,278.904 394.021,278.904 392.659,270.479 				"/>
				
					<linearGradient id="SVGID_00000168838986534656898160000016530300033176068249_" gradientUnits="userSpaceOnUse" x1="395.8783" y1="296.5529" x2="364.0486" y2="240.5529">
					<stop  offset="4.000000e-07" style="stop-color:#FFCBD1"/>
					<stop  offset="1" style="stop-color:#EF85AB"/>
				</linearGradient>
				<path style="fill:url(#SVGID_00000168838986534656898160000016530300033176068249_);" d="M373.935,260.862
					c0,0,0.043,14.363,2.979,14.947c2.936,0.585,6.426-1.926,6.894-2.819C384.276,272.096,388.446,253.798,373.935,260.862z"/>
				<path style="fill:#403767;" d="M378.276,267.533c0,0-1.702,1.159-2.042-1.139c-0.341-2.298,1.021-3.319-1.191-3.915
					c-2.213-0.596-6.128-1.277-3.064-8.17c0.255-1.702-0.851-8.936,8.936-11.575c9.787-2.638,16.766,4.681,15.745,9.447
					c0,0,6.468,2.723,4.681,8.766c-1.787,6.043-4.34,6.723-4,8.255c0.34,1.532,1.5,4.085-0.574,4.787
					c-2.074,0.702-2.298-0.255-3.702,0.159c-1.404,0.415-7.596,3.16-9.128,0.543s-1.372-2.713-2.649-3.16
					c-1.277-0.447-1.723-0.734-0.734-2.106c0.989-1.372,2.33-4.053,0.351-5.074C378.925,263.33,378.827,267.289,378.276,267.533z"/>
				<path style="fill:#B5F5F0;" d="M379.809,275.566c0,0-3.604-5.13-3.618-7.598c0,0-1.83,0.511-1.793,0.826
					c0.037,0.314,0.616,6.259,2.268,6.929C378.318,276.394,379.809,275.566,379.809,275.566z"/>
				
					<line style="fill:none;stroke:#B5F5F0;stroke-width:0.25;stroke-miterlimit:10;" x1="379.326" y1="264.882" x2="375.703" y2="268.312"/>
				
					<line style="fill:none;stroke:#B5F5F0;stroke-width:0.25;stroke-miterlimit:10;" x1="379.809" y1="275.566" x2="380.474" y2="269.537"/>
			</g>
			<g>
				<path style="fill:#332C57;" d="M336.233,409.543l-23.532,12.936h46.979c0,0,2.489-4.106,0-9.276
					c-2.489-5.17-4.468-10.787-4.468-10.787L336.233,409.543z"/>
				<path style="fill:#332C57;" d="M370.957,403.989l-23.532,12.936h46.979c0,0,2.489-4.106,0-9.276
					c-2.489-5.17-4.468-10.787-4.468-10.787L370.957,403.989z"/>
				
					<linearGradient id="SVGID_00000063593235147341449730000013302012601180101817_" gradientUnits="userSpaceOnUse" x1="364.9924" y1="302.8985" x2="344.3136" y2="352.936">
					<stop  offset="0.2986" style="stop-color:#FF9660"/>
					<stop  offset="1" style="stop-color:#FFA65E"/>
				</linearGradient>
				<path style="fill:url(#SVGID_00000063593235147341449730000013302012601180101817_);" d="M359.807,358.628
					c-0.2,1.01-0.34,1.6-0.34,1.6s-15.87,0.25-15.74,0.95c0.12,0.69,12.25,42.24,12.25,42.24c-1.63,1.78-4.58,3.07-7.71,3.98
					c-5.71,1.68-12.03,2.14-12.03,2.14s-12.85-38.8-17.45-53.27c-4.6-14.47-2.3-16.6,1.53-19.07c3.83-2.46,41.45-1.78,41.45-1.78
					C363.307,340.718,360.777,354.018,359.807,358.628z"/>
				<path style="opacity:0.3;" d="M343.727,361.178c0.12,0.69,12.25,42.24,12.25,42.24c-1.63,1.78-4.58,3.07-7.71,3.98
					c-1.04-6.42-7.56-46.44-7.98-47.22c-0.4-0.74,15.39-1.39,19.52-1.55c-0.2,1.01-0.34,1.6-0.34,1.6
					S343.597,360.478,343.727,361.178z"/>
				
					<linearGradient id="SVGID_00000151522690663852448300000012279534136389201289_" gradientUnits="userSpaceOnUse" x1="359.8586" y1="314.6905" x2="371.9092" y2="366.9953">
					<stop  offset="0.2986" style="stop-color:#FF9660"/>
					<stop  offset="1" style="stop-color:#FFA65E"/>
				</linearGradient>
				<path style="fill:url(#SVGID_00000151522690663852448300000012279534136389201289_);" d="M390.827,399.668
					c-2.19,2.02-10.53,3.22-15.52,3.76c-2.27,0.25-3.84,0.37-3.84,0.37l-13.45-45.57c0,0,0.87-0.59,2.25-1.45
					c4.83-3.02,16-9.36,18.65-5.49C382.317,356.268,390.827,399.668,390.827,399.668z"/>
				<path style="opacity:0.3;" d="M375.307,403.428c-2.27,0.25-3.84,0.37-3.84,0.37l-13.45-45.57c0,0,0.87-0.59,2.25-1.45
					L375.307,403.428z"/>
			</g>
			<g>
				
					<linearGradient id="SVGID_00000183229931618501005740000001975026390266324125_" gradientUnits="userSpaceOnUse" x1="303.8305" y1="317.9711" x2="370.1283" y2="318.7371">
					<stop  offset="4.000000e-07" style="stop-color:#FFCBD1"/>
					<stop  offset="1" style="stop-color:#EF85AB"/>
				</linearGradient>
				<path style="fill:url(#SVGID_00000183229931618501005740000001975026390266324125_);" d="M327.978,315.46
					c0,0-10.638,0.043-12.724,1.872c-2.085,1.83-2.723,3.529-2.723,3.529h15.447V315.46z"/>
				
					<linearGradient id="SVGID_00000066509765522612659940000012134234455973764747_" gradientUnits="userSpaceOnUse" x1="304.5631" y1="408.4379" x2="356.6483" y2="306.3101">
					<stop  offset="0.2986" style="stop-color:#9DBDDB"/>
					<stop  offset="1" style="stop-color:#BDD4E8"/>
				</linearGradient>
				<path style="fill:url(#SVGID_00000066509765522612659940000012134234455973764747_);" d="M382.914,277.78
					c-0.383,0-16.021,7.23-18.383,12.145c-2.362,4.915-10.468,22.787-11.17,22.787c-0.702,0-25.851-0.447-26.447,3.298
					c-0.596,3.745,0,4.851,0,4.851h47.149L382.914,277.78z"/>
			</g>
		</g>
		<g>
			<path style="fill:#332C57;" d="M416.508,334.436c0,0,1.979-3.574,1.021-4.723c-0.957-1.149-31.404-2.298-37.404-1.021
				s-11.489,5.745-11.489,5.745H416.508z"/>
			<rect x="356.744" y="356.266" style="fill:#332C57;" width="53.723" height="4.907"/>
			<rect x="376.425" y="361.173" style="fill:#5E5782;" width="2.489" height="4.986"/>
			<rect x="381.169" y="361.173" style="fill:#5E5782;" width="2.489" height="4.986"/>
			<polygon style="fill:#332C57;" points="385.51,378.777 376.425,378.777 374.489,378.777 374.489,366.16 385.51,366.16 			"/>
			<polygon style="fill:#5E5782;" points="417.791,422.478 342.211,422.478 376.421,402.738 376.421,378.778 383.571,378.778 
				383.571,402.738 			"/>
			<path style="fill:#423B66;" d="M356.744,356.266c0,0-28.17,0-27.574,0c0.596,0,2.213,4.907,2.213,4.907h25.362V356.266z"/>
			
				<rect x="332.708" y="334.436" transform="matrix(-1 -1.224647e-16 1.224647e-16 -1 669.3518 690.7022)" style="fill:#5E5782;" width="3.935" height="21.83"/>
			<g>
				<polygon style="fill:#5E5782;" points="425.937,277.228 424.187,286.108 410.357,356.268 356.747,356.268 372.957,277.228 				
					"/>
				<path style="opacity:0.1;" d="M425.937,277.228l-1.75,8.88c-49.33,2.87-57.53,70.16-57.53,70.16h-9.91l16.21-79.04H425.937z"/>
			</g>
			<path style="fill:#332C57;" d="M363.581,334.436c0,0,1.979-3.574,1.021-4.723c-0.957-1.149-31.404-2.298-37.404-1.021
				s-11.489,5.745-11.489,5.745H363.581z"/>
		</g>
	</g>
	<g>
		
			<linearGradient id="SVGID_00000053504453051341512480000015210309632152572333_" gradientUnits="userSpaceOnUse" x1="370.8081" y1="457.4205" x2="373.6734" y2="412.6983">
			<stop  offset="0.2986" style="stop-color:#9DBDDB"/>
			<stop  offset="1" style="stop-color:#BDD4E8"/>
		</linearGradient>
		
			<rect x="80.445" y="422.16" style="fill:url(#SVGID_00000053504453051341512480000015210309632152572333_);" width="585.024" height="3.447"/>
		<g>
			<g>
				<g>
					<path style="fill:#C5DDF0;" d="M114.764,307.803c0,0-3.455-7.498,2.332-23.608c5.787-16.11,18.213-24.961,24.17-25.642
						C141.266,258.553,127.07,297.649,114.764,307.803z"/>
					<g>
						<path style="fill:#B1CADE;" d="M113.396,321.673c-0.098-2.72,0.019-5.391,0.257-8.069c0.108-1.337,0.3-2.666,0.446-3.999
							l0.649-3.969c0.975-5.273,2.506-10.438,4.514-15.4c0.928-2.515,2.202-4.878,3.358-7.29l2.031-3.461
							c0.35-0.569,0.653-1.168,1.041-1.713l1.155-1.64c2.94-4.482,6.694-8.338,10.537-12.026c-3.788,3.75-7.471,7.654-10.331,12.167
							l-1.125,1.651c-0.378,0.548-0.671,1.15-1.01,1.723l-1.967,3.475c-1.113,2.419-2.341,4.784-3.225,7.299
							c-1.917,4.959-3.356,10.107-4.241,15.348c-0.888,5.228-1.324,10.58-1.093,15.835L113.396,321.673z"/>
					</g>
				</g>
				<g>
					<path style="fill:#C5DDF0;" d="M105.532,304.566c0,0,2.483-5.388-1.676-16.965c-4.159-11.578-13.088-17.938-17.37-18.428
						C86.487,269.173,96.688,297.269,105.532,304.566z"/>
					<g>
						<path style="fill:#B1CADE;" d="M105.799,314.483c0.167-3.776-0.147-7.622-0.785-11.379c-0.636-3.767-1.67-7.466-3.047-11.03
							c-0.635-1.807-1.518-3.507-2.317-5.245c-0.969-1.647-1.808-3.379-2.948-4.921c-2.055-3.243-4.702-6.048-7.424-8.744
							c2.762,2.651,5.46,5.421,7.572,8.643c1.169,1.531,2.038,3.255,3.038,4.897c0.831,1.733,1.746,3.431,2.413,5.239
							c1.442,3.565,2.543,7.277,3.244,11.067c0.702,3.792,1.083,7.633,0.971,11.525L105.799,314.483z"/>
					</g>
				</g>
				<g>
					<path style="fill:#C5DDF0;" d="M110.732,278.508c0,0,4.077-10.758-2.989-30.699c-7.066-19.941-18.17-29.223-24.17-29.703
						C83.573,218.106,97.637,266.488,110.732,278.508z"/>
					<g>
						<path style="fill:#B1CADE;" d="M110.602,316.917c0.62-7.912,0.752-15.892,0.556-23.843c-0.203-7.955-0.82-15.904-1.961-23.781
							c-0.593-3.935-1.322-7.849-2.222-11.726c-0.937-3.867-2.056-7.691-3.424-11.428c-1.364-3.739-3.065-7.356-5.1-10.775
							c-2.044-3.41-4.477-6.61-7.406-9.323c2.957,2.682,5.428,5.862,7.513,9.258c2.075,3.405,3.82,7.016,5.227,10.751
							c1.411,3.734,2.574,7.558,3.555,11.428c0.943,3.879,1.716,7.798,2.352,11.739c1.227,7.889,1.929,15.855,2.216,23.833
							c0.28,7.981,0.233,15.964-0.309,23.953L110.602,316.917z"/>
					</g>
				</g>
			</g>
			<g>
				
					<linearGradient id="SVGID_00000070821292391735853740000001760462841787298470_" gradientUnits="userSpaceOnUse" x1="104.5924" y1="459.0633" x2="112.4224" y2="336.8499">
					<stop  offset="0.2986" style="stop-color:#9DBDDB"/>
					<stop  offset="1" style="stop-color:#BDD4E8"/>
				</linearGradient>
				
					<rect x="97.06" y="312.351" style="fill:url(#SVGID_00000070821292391735853740000001760462841787298470_);" width="26.808" height="110.127"/>
				<polygon style="opacity:0.5;" points="97.06,312.351 123.868,422.478 97.06,328.131 				"/>
			</g>
		</g>
		<g>
			<g>
				<g>
					<path style="fill:#C5DDF0;" d="M643.053,307.803c0,0-3.455-7.498,2.332-23.608c5.787-16.11,18.213-24.961,24.17-25.642
						C669.555,258.553,655.36,297.649,643.053,307.803z"/>
					<g>
						<path style="fill:#B1CADE;" d="M641.685,321.673c-0.098-2.72,0.019-5.391,0.257-8.069c0.108-1.337,0.3-2.666,0.446-3.999
							l0.649-3.969c0.975-5.273,2.506-10.438,4.514-15.4c0.928-2.515,2.202-4.878,3.358-7.29l2.032-3.461
							c0.35-0.569,0.653-1.168,1.041-1.713l1.155-1.64c2.94-4.482,6.694-8.338,10.537-12.026c-3.788,3.75-7.471,7.654-10.331,12.167
							l-1.125,1.651c-0.378,0.548-0.67,1.15-1.01,1.723l-1.967,3.475c-1.113,2.419-2.341,4.784-3.224,7.299
							c-1.917,4.959-3.356,10.107-4.241,15.348c-0.888,5.228-1.324,10.58-1.093,15.835L641.685,321.673z"/>
					</g>
				</g>
				<g>
					<path style="fill:#C5DDF0;" d="M633.821,304.566c0,0,2.483-5.388-1.676-16.965c-4.159-11.578-13.088-17.938-17.37-18.428
						C614.776,269.173,624.977,297.269,633.821,304.566z"/>
					<g>
						<path style="fill:#B1CADE;" d="M634.088,314.483c0.167-3.776-0.147-7.622-0.785-11.379c-0.636-3.767-1.67-7.466-3.047-11.03
							c-0.635-1.807-1.518-3.507-2.317-5.245c-0.969-1.647-1.808-3.379-2.948-4.921c-2.055-3.243-4.702-6.048-7.424-8.744
							c2.762,2.651,5.46,5.421,7.573,8.643c1.169,1.531,2.038,3.255,3.038,4.897c0.831,1.733,1.746,3.431,2.413,5.239
							c1.443,3.565,2.543,7.277,3.244,11.067c0.702,3.792,1.083,7.633,0.971,11.525L634.088,314.483z"/>
					</g>
				</g>
				<g>
					<path style="fill:#C5DDF0;" d="M639.021,278.508c0,0,4.077-10.758-2.989-30.699c-7.066-19.941-18.17-29.223-24.17-29.703
						C611.862,218.106,625.926,266.488,639.021,278.508z"/>
					<g>
						<path style="fill:#B1CADE;" d="M638.891,316.917c0.62-7.912,0.752-15.892,0.556-23.843c-0.203-7.955-0.82-15.904-1.961-23.781
							c-0.593-3.935-1.322-7.849-2.222-11.726c-0.937-3.867-2.056-7.691-3.424-11.428c-1.364-3.739-3.065-7.356-5.1-10.775
							c-2.044-3.41-4.477-6.61-7.406-9.323c2.957,2.682,5.428,5.862,7.513,9.258c2.075,3.405,3.82,7.016,5.227,10.751
							c1.411,3.734,2.574,7.558,3.555,11.428c0.943,3.879,1.716,7.798,2.352,11.739c1.227,7.889,1.929,15.855,2.216,23.833
							c0.28,7.981,0.233,15.964-0.309,23.953L638.891,316.917z"/>
					</g>
				</g>
			</g>
			<g>
				
					<linearGradient id="SVGID_00000148646719287532421230000012802108573305554821_" gradientUnits="userSpaceOnUse" x1="632.8815" y1="459.0633" x2="640.7114" y2="336.8499">
					<stop  offset="0.2986" style="stop-color:#9DBDDB"/>
					<stop  offset="1" style="stop-color:#BDD4E8"/>
				</linearGradient>
				
					<rect x="625.349" y="312.351" style="fill:url(#SVGID_00000148646719287532421230000012802108573305554821_);" width="26.808" height="110.127"/>
				<polygon style="opacity:0.5;" points="625.349,312.351 652.157,422.478 625.349,328.131 				"/>
			</g>
		</g>
	</g>
</g>
</svg>
