<svg id="Layer_1" data-name="Layer 1" xmlns="http://www.w3.org/2000/svg" viewBox="0 0 340.96 348.44"><defs><style>.cls-1{fill:#fff;}</style></defs><path class="cls-1" d="M482.25,123.51" transform="translate(-250.19 -123.51)"/><path class="cls-1" d="M482.23,123.51V381.87l108.91-53V176.57Zm28.38,217V168.08l56.47,27.52.23,117.26Z" transform="translate(-250.19 -123.51)"/><path class="cls-1" d="M452.18,398.31l-117-64-.36-109.89-.34-100.94-32,15.6-52.28,25.48V378.66l87.86,48.27,32.26,17.72,31.94-18.07,1.36-.77,8.36-4.73,21.83-12.36h0ZM369.79,409l-87.32-47.36,0-5.38L283,177.61l19.51-9.9V351.53l32.34,17.69,53.52,29.27Z" transform="translate(-250.19 -123.51)"/><polygon class="cls-1" points="152.06 303.07 120.18 321.18 120.13 321.14 152.06 303.07"/><polygon class="cls-1" points="340.95 219.8 340.95 255.04 169.83 348.44 138.11 331.02 170.46 313.04 340.95 219.8"/><path class="cls-1" d="M334.83,127.85" transform="translate(-250.19 -123.51)"/><polygon class="cls-1" points="136.47 27.07 136.64 87.61 136.66 93.74 206.26 93.74 206.26 120.81 136.75 120.81 136.94 183 206.26 223.56 206.26 254 193.51 246.55 136.64 213.28 110.42 197.93 110.42 0 206.26 0 206.26 27.07 136.47 27.07"/><polygon class="cls-1" points="161.78 297.55 161.78 297.57 153.42 302.3 161.78 297.55"/></svg>