<?xml version="1.0" standalone="no"?>
<!DOCTYPE svg PUBLIC "-//W3C//DTD SVG 20010904//EN"
 "http://www.w3.org/TR/2001/REC-SVG-20010904/DTD/svg10.dtd">
<svg version="1.0" xmlns="http://www.w3.org/2000/svg"
 width="2800.000000pt" height="2100.000000pt" viewBox="0 0 2800.000000 2100.000000"
 preserveAspectRatio="xMidYMid meet">

<g transform="translate(0.000000,2100.000000) scale(0.100000,-0.100000)"
fill="#000000" stroke="none">
<path d="M7640 15294 c-58 -25 -91 -64 -120 -139 -7 -19 -6 -25 4 -25 8 0 14
6 13 13 -1 41 3 48 26 41 31 -9 32 -10 13 -38 -18 -28 -20 -36 -8 -36 4 0 15
19 25 41 49 105 180 118 275 27 17 -18 32 -29 32 -25 0 17 -75 75 -109 86 -26
7 -41 19 -45 34 -7 21 -7 21 -15 2 -8 -19 -8 -19 -20 3 -11 21 -10 22 23 22
47 0 66 -9 66 -31 0 -20 15 -26 25 -10 8 14 66 -21 60 -36 -3 -8 4 -13 17 -13
21 0 21 0 -3 26 -62 67 -179 93 -259 58z m47 -20 c7 -20 -19 -43 -60 -51 -18
-4 -26 -10 -23 -19 7 -19 -9 -18 -25 2 -11 13 -7 20 26 50 42 37 72 43 82 18z"/>
<path d="M8101 15256 c-19 -23 -4 -55 35 -73 36 -18 41 -27 22 -39 -6 -4 -16
0 -23 9 -13 18 -45 23 -45 7 0 -18 39 -50 61 -50 37 0 59 19 59 50 0 25 -7 33
-41 50 -23 12 -38 24 -35 27 3 4 17 0 31 -7 29 -16 44 -6 29 18 -14 22 -77 28
-93 8z"/>
<path d="M8232 15188 c2 -60 6 -73 21 -76 14 -3 17 4 18 35 l2 38 10 -37 c13
-46 34 -56 47 -22 6 14 11 33 11 42 1 9 5 -1 8 -23 4 -27 12 -41 24 -43 14 -3
17 4 17 35 0 21 -3 55 -7 76 -5 34 -9 38 -32 35 -20 -2 -27 -9 -29 -30 -4 -37
-17 -35 -28 5 -8 25 -16 33 -37 35 l-28 3 3 -73z"/>
<path d="M8410 15176 c0 -58 3 -75 16 -80 21 -8 34 1 34 24 0 32 18 32 35 0 9
-18 23 -30 35 -30 25 0 25 0 -2 54 -20 43 -21 46 -5 64 23 25 21 32 -7 32 -14
0 -31 -9 -39 -20 -15 -22 -27 -17 -27 12 0 11 -7 18 -20 18 -18 0 -20 -7 -20
-74z"/>
<path d="M7718 15209 c-10 -10 -18 -26 -18 -35 0 -9 -9 -27 -20 -41 -29 -37
-27 -98 6 -140 17 -22 21 -34 12 -35 -7 -1 12 -4 42 -7 41 -5 56 -10 58 -23 3
-14 -3 -18 -25 -16 -15 1 -33 6 -40 11 -7 5 -18 5 -24 1 -17 -10 15 -22 64
-23 35 -1 37 1 37 29 0 17 -5 30 -12 30 -6 0 -1 12 13 26 31 33 32 92 3 131
-12 16 -25 39 -29 52 -7 24 -35 62 -45 60 -3 0 -13 -9 -22 -20z m52 -103 c0
-19 4 -23 20 -19 18 5 20 0 20 -41 0 -43 -2 -46 -27 -47 -37 -1 -87 2 -92 6
-2 2 -6 25 -9 51 -4 41 -3 46 14 42 10 -2 22 -14 26 -28 5 -17 6 -11 3 18 -5
40 -4 42 20 42 20 0 25 -5 25 -24z"/>
<path d="M7760 15060 c0 -5 5 -10 10 -10 6 0 10 5 10 10 0 6 -4 10 -10 10 -5
0 -10 -4 -10 -10z"/>
<path d="M8630 15178 c0 -72 9 -98 31 -98 14 0 19 7 19 25 0 19 5 25 23 25 29
0 47 18 47 45 0 33 -31 55 -78 55 l-42 0 0 -52z m70 7 c0 -8 -4 -15 -9 -15
-13 0 -22 16 -14 24 11 11 23 6 23 -9z"/>
<path d="M8786 15204 c-20 -20 -21 -83 -1 -111 19 -27 63 -37 99 -23 23 8 27
15 24 42 -3 29 -7 33 -35 36 -25 2 -33 -1 -33 -12 0 -9 7 -16 15 -16 8 0 15
-4 15 -10 0 -16 -47 -11 -54 6 -18 47 8 94 37 65 13 -13 47 -15 47 -3 0 36
-85 55 -114 26z"/>
<path d="M8932 15139 c3 -69 5 -74 27 -77 21 -3 23 0 19 22 -7 35 8 33 27 -4
9 -18 23 -30 35 -30 24 0 25 18 3 50 -12 17 -13 25 -5 28 14 4 16 41 3 61 -5
7 -32 16 -60 19 l-52 5 3 -74z m76 23 c2 -7 -6 -12 -17 -12 -21 0 -27 11 -14
24 9 9 26 2 31 -12z"/>
<path d="M7915 15190 c-3 -5 1 -10 10 -10 9 0 13 5 10 10 -3 6 -8 10 -10 10
-2 0 -7 -4 -10 -10z"/>
<path d="M9080 15125 c0 -68 2 -75 20 -75 18 0 20 7 20 75 0 68 -2 75 -20 75
-18 0 -20 -7 -20 -75z"/>
<path d="M7937 15156 c-3 -8 1 -17 10 -20 8 -4 13 -12 10 -19 -2 -6 2 -18 9
-25 18 -17 18 -1 0 43 -16 39 -21 42 -29 21z"/>
<path d="M7510 15111 c0 -5 7 -12 16 -15 14 -5 15 -4 4 9 -14 17 -20 19 -20 6z"/>
<path d="M6625 15076 c-117 -37 -183 -110 -205 -228 -7 -36 -6 -255 5 -688 16
-695 29 -1258 45 -1965 10 -471 42 -1817 60 -2595 5 -239 15 -633 20 -875 5
-242 17 -737 25 -1100 9 -363 17 -707 18 -765 l2 -105 120 2 c66 1 230 7 365
12 860 37 1708 71 1970 81 168 6 374 15 459 20 233 15 331 13 331 -5 0 -10 10
-15 30 -15 17 0 30 -4 30 -10 0 -5 -13 -10 -29 -10 -16 0 -43 -3 -60 -6 -25
-5 -31 -11 -31 -33 0 -23 6 -28 45 -39 25 -7 70 -12 100 -12 41 0 57 -4 67
-18 16 -24 51 -42 77 -42 17 0 21 -6 21 -35 l0 -35 140 0 c111 0 140 -3 140
-14 0 -17 90 -26 258 -26 115 0 122 -1 122 -20 0 -19 7 -20 205 -20 198 0 205
-1 205 -20 0 -15 7 -20 25 -20 16 0 25 -6 25 -15 0 -13 112 -15 950 -15 943 0
950 0 950 20 0 11 7 20 15 20 10 0 15 -10 15 -32 0 -38 5 -34 13 10 6 30 4 32
-21 33 -17 1 -20 3 -9 6 9 2 17 11 17 19 0 8 5 12 10 9 6 -4 8 -11 5 -16 -4
-5 -1 -9 4 -9 6 0 11 6 11 13 1 8 5 6 13 -4 10 -14 14 -14 25 -3 6 7 12 17 12
22 0 5 7 9 15 9 9 0 15 -10 16 -26 l0 -26 10 24 c5 13 21 32 35 43 14 11 23
26 20 34 -7 19 95 30 134 14 31 -13 55 -11 126 11 37 11 46 10 79 -7 53 -28
64 -47 40 -74 -13 -15 -20 -39 -21 -83 -2 -34 -1 -54 2 -44 3 9 10 17 15 17
31 0 53 63 27 73 -8 3 -6 6 5 6 12 1 17 -7 17 -25 0 -23 20 -54 34 -54 3 0 6
12 6 26 0 19 4 25 15 20 26 -10 46 4 35 24 -14 27 -12 32 10 25 11 -4 20 -2
20 4 0 6 12 12 28 12 24 2 23 2 -8 9 l-35 7 43 2 c23 0 42 6 42 11 0 6 7 10
15 10 8 0 15 4 15 10 0 6 97 8 265 6 219 -3 265 -1 265 10 0 8 5 14 10 14 6 0
10 5 10 11 0 19 28 39 54 39 15 0 44 11 66 25 22 14 51 25 65 25 20 0 25 5 25
25 0 24 2 25 63 25 51 0 64 3 75 20 7 11 8 20 2 20 -5 0 -7 7 -4 15 4 11 21
15 55 15 27 0 49 5 49 10 0 6 18 10 40 10 38 0 40 2 40 30 l0 30 163 2 c89 1
195 0 235 -1 l72 -3 0 36 0 36 245 0 245 0 0 25 c0 21 5 25 30 25 17 0 30 5
30 10 0 6 16 10 36 10 23 0 42 6 50 18 8 10 13 12 14 5 0 -17 179 -18 215 -1
22 10 26 17 22 41 -2 16 1 31 7 33 6 2 182 10 391 19 209 8 470 20 580 25 262
13 537 25 1110 50 569 24 635 28 635 43 0 19 -80 749 -86 786 l-5 33 -167 -6
c-92 -4 -475 -16 -852 -26 -621 -18 -1003 -29 -2035 -60 -187 -6 -648 -19
-1025 -30 -377 -11 -912 -27 -1190 -35 -278 -8 -890 -26 -1360 -40 -470 -14
-1001 -29 -1180 -35 -179 -6 -557 -17 -840 -25 -283 -8 -967 -28 -1520 -45
-553 -16 -1118 -32 -1256 -36 l-251 -7 -6 78 c-4 43 -6 139 -5 214 1 130 1
127 9 -67 4 -112 9 -205 11 -207 2 -1 201 3 443 11 242 7 825 25 1295 39 470
13 936 27 1035 30 300 9 445 17 445 24 0 4 -32 14 -72 24 -138 32 -102 58 74
53 62 -1 178 1 258 5 115 6 157 4 205 -8 33 -8 65 -19 72 -25 7 -5 36 -8 65
-5 157 15 228 27 256 41 64 33 125 39 216 21 69 -14 92 -15 120 -5 23 7 95 11
201 9 90 -2 168 0 171 4 10 9 56 -3 75 -19 8 -8 24 -14 33 -14 10 0 20 -9 23
-20 5 -18 13 -20 107 -19 55 0 110 4 121 8 17 7 14 10 -19 19 -45 13 -86 48
-86 73 0 34 26 42 108 35 197 -17 251 -18 361 -6 107 11 121 11 142 -4 19 -13
38 -15 105 -10 64 5 91 3 126 -10 39 -15 58 -16 139 -8 154 16 314 21 374 10
40 -7 85 7 58 19 -7 2 -13 19 -13 37 0 27 6 35 35 49 39 19 100 23 110 7 9
-14 57 -9 78 8 15 13 21 13 42 2 14 -7 25 -19 25 -26 0 -7 8 -18 18 -24 13 -8
-1 -10 -60 -7 -66 3 -81 1 -98 -15 -11 -10 -20 -22 -20 -27 0 -18 50 -33 96
-29 27 3 78 -2 114 -10 49 -10 72 -11 93 -3 33 13 35 38 5 51 -13 5 -18 9 -13
10 6 0 -1 9 -15 19 -22 18 -23 21 -10 45 7 14 21 26 31 26 10 0 20 4 23 9 11
17 86 23 136 11 28 -7 76 -13 108 -14 52 -1 57 -3 56 -23 -1 -18 6 -25 35 -32
61 -16 166 -17 191 -1 12 7 12 12 -4 29 -10 11 -16 28 -14 38 4 21 37 22 107
4 38 -10 45 -9 56 6 12 16 28 18 122 17 59 -1 140 -2 178 -3 39 0 96 5 129 11
36 7 109 9 195 5 76 -4 155 -2 178 3 32 8 53 6 85 -5 24 -8 49 -15 57 -15 8 0
20 -8 27 -17 13 -17 13 -17 14 2 0 28 35 48 70 40 22 -5 46 3 102 33 71 38 75
39 149 35 43 -3 99 0 125 6 27 6 83 12 124 12 41 1 98 8 127 16 37 10 99 14
210 12 193 -2 440 7 510 19 79 13 187 14 233 2 47 -13 110 0 148 31 44 34 95
39 409 40 288 1 456 -5 477 -19 5 -3 68 -7 140 -8 72 -2 178 -8 236 -13 58 -6
216 -10 353 -11 l247 0 0 34 c0 63 -110 911 -121 936 -7 14 -13 66 -14 115 -2
73 -151 1299 -171 1411 l-6 31 -119 7 c-65 4 -126 9 -135 13 -20 7 -30 35 -39
105 l-7 55 33 12 c47 16 109 14 178 -8 l61 -19 0 45 c0 45 -76 668 -87 711 -5
20 -11 22 -72 22 -36 0 -97 5 -136 10 -104 15 -105 16 -105 218 0 92 -1 176
-4 187 -2 11 0 31 5 44 8 20 13 22 47 17 20 -4 75 -9 121 -13 l83 -5 -7 63
c-9 84 -78 633 -110 874 -14 105 -30 228 -35 275 -6 47 -15 89 -20 94 -4 4
-30 11 -56 14 -52 5 -74 -11 -74 -54 0 -32 -24 -48 -49 -32 -17 11 -24 9 -44
-10 l-25 -23 -21 28 c-17 21 -21 38 -19 73 l3 45 -36 3 c-19 2 -48 14 -64 27
-15 14 -34 25 -42 25 -15 0 -119 56 -145 78 -12 10 -28 12 -50 8 -45 -9 -136
-7 -157 3 -99 50 -206 65 -250 35 -13 -9 -34 -40 -46 -68 -27 -60 -35 -68 -92
-85 -41 -11 -42 -13 -66 -89 l-23 -77 -57 3 c-73 5 -87 -6 -87 -67 -1 -61 -38
-152 -69 -167 -18 -10 -30 -9 -57 2 -18 8 -44 14 -56 14 -13 0 -40 5 -60 11
-52 14 -49 36 12 95 28 27 83 87 123 133 49 58 97 101 152 137 86 56 165 125
165 143 0 6 -12 16 -26 21 -27 11 -91 3 -228 -26 -39 -8 -116 -24 -171 -34
-194 -38 -241 -48 -293 -69 -29 -12 -69 -21 -88 -21 -19 0 -54 -9 -77 -19 -23
-11 -81 -24 -127 -31 -47 -6 -114 -22 -150 -36 -36 -15 -93 -30 -128 -35 -34
-5 -88 -18 -119 -29 -32 -11 -74 -20 -94 -20 -21 0 -62 -9 -92 -21 -51 -20
-56 -20 -86 -5 -42 22 -50 59 -22 108 l22 38 -22 50 c-20 46 -21 55 -9 91 12
36 12 44 -6 77 -10 19 -48 66 -84 102 -91 94 -124 104 -350 107 -96 1 -243 5
-326 9 -127 5 -155 4 -181 -9 -30 -16 -77 -92 -67 -109 3 -4 22 -8 43 -8 50 0
66 -20 66 -84 -1 -57 -18 -97 -70 -170 -47 -65 -49 -126 -5 -181 30 -37 30
-41 24 -114 -11 -126 -19 -134 -173 -178 -59 -17 -110 -24 -162 -24 -44 1 -94
-5 -119 -14 -23 -8 -54 -15 -68 -15 -13 0 -44 -10 -68 -22 -37 -18 -46 -19
-59 -8 -27 22 -85 146 -125 265 -20 61 -49 137 -63 170 -16 35 -27 79 -27 105
0 40 -4 49 -40 80 -31 27 -44 47 -53 85 -17 70 -41 72 -108 8 l-50 -48 16 -39
c15 -36 16 -43 1 -73 -18 -38 -39 -42 -85 -15 -28 15 -33 16 -58 2 -23 -13
-29 -25 -34 -64 -8 -70 -42 -86 -85 -39 -56 60 -84 143 -84 247 0 31 -12 62
-50 126 -82 139 -115 151 -192 73 -25 -27 -55 -63 -66 -82 -18 -30 -19 -37 -7
-72 15 -43 12 -64 -11 -73 -23 -9 -41 5 -129 93 -44 44 -88 81 -97 81 -24 0
-78 -58 -78 -83 0 -12 -12 -47 -26 -77 -14 -30 -39 -100 -55 -155 -24 -82 -28
-111 -23 -160 5 -51 2 -68 -20 -115 -16 -33 -26 -73 -26 -100 0 -28 -12 -75
-31 -122 l-32 -77 -36 18 c-20 10 -62 21 -94 25 -64 6 -76 11 -95 38 -7 10
-28 26 -45 35 -51 26 -114 81 -151 133 -40 55 -63 66 -110 50 -56 -18 -67 -39
-71 -130 -6 -128 -26 -138 -108 -55 -64 65 -94 71 -127 25 -12 -17 -45 -45
-73 -63 l-51 -33 -61 17 c-33 9 -80 26 -105 38 -56 26 -95 27 -116 2 -50 -59
-65 -71 -85 -71 -24 0 -103 78 -144 142 -28 42 -38 49 -84 63 -23 7 -40 22
-55 50 -34 60 -64 59 -150 -5 -38 -28 -75 -50 -84 -48 -9 2 -28 38 -47 95 -18
50 -42 105 -54 121 -16 23 -21 45 -21 93 0 51 -5 70 -25 100 -14 20 -29 59
-34 87 -4 28 -19 68 -33 89 -109 167 -138 215 -144 239 -7 26 -6 27 27 19 50
-11 69 -8 85 12 26 35 17 79 -29 135 -57 71 -102 92 -202 96 -44 1 -208 6
-365 12 -157 5 -311 12 -342 16 -75 9 -171 -11 -210 -44 -16 -13 -38 -43 -50
-66 -11 -22 -26 -44 -32 -48 -27 -17 -76 64 -76 125 0 37 -19 60 -60 71 -34
10 -297 27 -445 30 -66 1 -138 7 -160 14 -24 7 -111 12 -215 12 -175 1 -469
20 -885 59 -121 11 -276 24 -345 28 l-125 8 -9 216 -9 216 -151 12 c-189 14
-290 13 -341 -3z m3518 -763 c-13 -2 -33 -2 -45 0 -13 2 -3 4 22 4 25 0 35 -2
23 -4z m-395 -80 c-10 -2 -28 -2 -40 0 -13 2 -5 4 17 4 22 1 32 -1 23 -4z
m315 -160 c-13 -2 -33 -2 -45 0 -13 2 -3 4 22 4 25 0 35 -2 23 -4z m-790 -40
c-7 -2 -19 -2 -25 0 -7 3 -2 5 12 5 14 0 19 -2 13 -5z m1270 0 c-13 -2 -33 -2
-45 0 -13 2 -3 4 22 4 25 0 35 -2 23 -4z m-960 -120 c-13 -2 -33 -2 -45 0 -13
2 -3 4 22 4 25 0 35 -2 23 -4z m-1607 -22 c23 -10 45 -24 48 -30 4 -6 28 -11
54 -11 26 -1 63 -7 82 -13 35 -13 139 -91 173 -129 26 -30 22 -73 -9 -97 -38
-30 -68 -26 -113 15 -22 19 -56 40 -76 45 -43 12 -115 74 -115 99 0 34 -22 40
-76 20 -44 -15 -55 -16 -82 -5 -33 15 -57 48 -48 71 8 21 67 54 96 54 14 0 44
-9 66 -19z m2007 -18 c-13 -2 -33 -2 -45 0 -13 2 -3 4 22 4 25 0 35 -2 23 -4z
m-75 -40 c-10 -2 -28 -2 -40 0 -13 2 -5 4 17 4 22 1 32 -1 23 -4z m165 -60
c-7 -2 -21 -2 -30 0 -10 3 -4 5 12 5 17 0 24 -2 18 -5z m-10 -100 c-13 -2 -33
-2 -45 0 -13 2 -3 4 22 4 25 0 35 -2 23 -4z m-400 -80 c-13 -2 -33 -2 -45 0
-13 2 -3 4 22 4 25 0 35 -2 23 -4z m8912 -23 c0 -27 -22 -39 -31 -16 -8 22 3
49 19 43 6 -2 12 -14 12 -27z m-665 1 c0 -6 -4 -13 -10 -16 -5 -3 -10 1 -10 9
0 9 5 16 10 16 6 0 10 -4 10 -9z m-7927 -58 c-13 -2 -33 -2 -45 0 -13 2 -3 4
22 4 25 0 35 -2 23 -4z m240 0 c-13 -2 -33 -2 -45 0 -13 2 -3 4 22 4 25 0 35
-2 23 -4z m7904 -145 c33 -57 -2 -163 -51 -156 -29 4 -32 47 -7 97 12 22 23
51 25 63 6 29 5 28 10 28 2 0 13 -15 23 -32z m117 16 c7 -18 -14 -67 -29 -67
-14 -1 -29 47 -22 67 8 21 43 21 51 0z m-488 -33 c-10 -16 -43 -13 -50 4 -8
21 25 37 43 20 7 -7 10 -18 7 -24z m92 -29 c2 -7 -3 -12 -12 -12 -9 0 -16 7
-16 16 0 17 22 14 28 -4z m609 -34 c-3 -8 -6 -5 -6 6 -1 11 2 17 5 13 3 -3 4
-12 1 -19z m-233 -34 c17 -45 -8 -80 -39 -54 -18 15 -19 42 -3 58 17 17 35 15
42 -4z m-8817 -21 c-20 -2 -52 -2 -70 0 -17 2 0 4 38 4 39 0 53 -2 32 -4z
m6811 -30 c5 -31 -36 -53 -54 -28 -10 13 -10 23 -3 37 14 26 53 20 57 -9z
m-2490 -50 c-21 -2 -55 -2 -75 0 -21 2 -4 4 37 4 41 0 58 -2 38 -4z m1176 -84
c36 -28 32 -66 -9 -89 -46 -25 -153 -46 -168 -31 -6 6 -30 11 -54 11 -35 0
-50 -6 -83 -36 -30 -27 -43 -34 -53 -26 -18 15 -51 128 -42 143 5 7 23 10 49
7 28 -4 52 1 75 13 44 23 67 9 84 -51 12 -42 15 -45 47 -46 46 -1 60 11 60 54
0 39 23 72 50 72 10 0 29 -10 44 -21z m-5161 4 c-13 -2 -33 -2 -45 0 -13 2 -3
4 22 4 25 0 35 -2 23 -4z m2092 -44 c8 -23 -1 -67 -17 -87 -15 -17 -38 3 -38
35 0 23 28 72 42 73 4 0 10 -9 13 -21z m-1627 4 c-21 -2 -55 -2 -75 0 -21 2
-4 4 37 4 41 0 58 -2 38 -4z m-805 -120 c-24 -2 -62 -2 -85 0 -24 2 -5 4 42 4
47 0 66 -2 43 -4z m720 -40 c-24 -2 -62 -2 -85 0 -24 2 -5 4 42 4 47 0 66 -2
43 -4z m-135 -80 c-10 -2 -26 -2 -35 0 -10 3 -2 5 17 5 19 0 27 -2 18 -5z
m315 -120 c-13 -2 -33 -2 -45 0 -13 2 -3 4 22 4 25 0 35 -2 23 -4z m-640 -80
c-13 -2 -33 -2 -45 0 -13 2 -3 4 22 4 25 0 35 -2 23 -4z m3520 0 c-13 -2 -33
-2 -45 0 -13 2 -3 4 22 4 25 0 35 -2 23 -4z m-3520 -20 c-13 -2 -33 -2 -45 0
-13 2 -3 4 22 4 25 0 35 -2 23 -4z m-1209 -88 c23 -59 32 -63 46 -18 7 21 18
44 24 52 9 11 12 9 17 -10 11 -38 10 -119 -1 -119 -5 0 -10 16 -10 35 0 43
-16 46 -25 5 -10 -45 -23 -45 -41 -1 -18 46 -33 47 -26 1 2 -18 0 -30 -7 -30
-7 0 -11 24 -11 65 0 36 4 65 9 65 4 0 16 -20 25 -45z m143 -17 c7 -44 12 -54
31 -56 21 -3 22 0 22 52 0 32 4 56 10 56 7 0 10 -24 8 -62 -3 -61 -4 -63 -31
-66 -41 -5 -55 12 -59 73 -4 70 8 71 19 3z m123 -10 c0 -41 3 -51 20 -55 30
-8 24 -25 -7 -21 -27 3 -28 5 -31 71 -2 46 1 67 8 62 5 -3 10 -29 10 -57z
m140 -4 c12 -36 19 -68 16 -71 -3 -3 -8 2 -12 11 -8 21 -50 21 -63 -1 -19 -34
-22 -4 -5 53 27 97 34 98 64 8z m69 -46 c1 -16 -3 -28 -9 -28 -6 0 -10 28 -9
68 1 62 2 64 10 27 4 -22 8 -52 8 -67z m134 91 c30 -16 37 -28 37 -66 0 -38
-34 -67 -72 -61 -21 3 -23 9 -26 71 -3 62 -1 67 18 67 12 0 31 -5 43 -11z
m144 -61 c20 -57 22 -89 5 -62 -13 20 -48 25 -62 9 -24 -29 -28 -15 -13 43 8
31 17 60 20 65 12 20 30 1 50 -55z m111 46 c26 -18 28 -36 7 -54 -11 -9 -12
-17 -4 -32 16 -30 4 -32 -15 -3 -19 29 -35 25 -37 -8 -2 -27 -18 48 -18 86 -1
22 3 27 22 27 12 0 33 -7 45 -16z m65 -51 c4 -54 2 -72 -7 -62 -7 8 -13 119
-6 119 4 0 10 -26 13 -57z m99 30 c2 -22 8 -28 28 -28 21 0 25 4 23 28 -1 15
2 27 8 27 5 0 9 -12 9 -27 0 -16 3 -45 6 -65 4 -24 3 -38 -4 -38 -6 0 -12 12
-14 28 -2 21 -9 28 -30 30 -25 3 -28 0 -28 -27 0 -17 -4 -31 -10 -31 -6 0 -10
28 -10 65 0 64 16 91 22 38z m185 -41 c14 -35 22 -66 18 -70 -3 -4 -11 1 -16
11 -11 20 -49 23 -67 5 -17 -17 -16 1 4 69 9 30 20 53 26 51 5 -2 21 -32 35
-66z m111 52 c25 -17 28 -35 10 -64 -10 -15 -10 -22 0 -32 16 -16 15 -28 -1
-28 -8 0 -20 12 -27 28 l-14 27 -4 -27 c-2 -16 -10 -28 -18 -28 -11 0 -14 16
-14 70 0 66 1 70 23 70 12 0 33 -7 45 -16z m66 -16 c11 -43 7 -120 -6 -116 -8
3 -14 29 -16 71 -3 65 9 90 22 45z m95 -75 c0 -24 -3 -43 -8 -43 -10 0 -22
120 -13 135 8 13 19 -36 21 -92z m68 52 c15 -25 31 -45 36 -45 4 0 8 19 8 43
1 39 2 40 9 12 11 -43 12 -105 1 -105 -4 0 -20 18 -35 40 -32 49 -47 51 -39 5
3 -21 1 -35 -4 -35 -11 0 -24 108 -16 123 7 12 10 9 40 -38z m107 -26 c6 -54
3 -80 -8 -68 -7 8 -12 129 -5 129 3 0 10 -27 13 -61z m56 15 c0 -27 -4 -43
-10 -39 -5 3 -10 24 -10 46 0 21 5 39 10 39 6 0 10 -21 10 -46z m5 -74 c3 -5
-1 -10 -9 -10 -9 0 -16 5 -16 10 0 6 4 10 9 10 6 0 13 -4 16 -10z m188 3 c-24
-2 -62 -2 -85 0 -24 2 -5 4 42 4 47 0 66 -2 43 -4z m190 -40 c-7 -2 -19 -2
-25 0 -7 3 -2 5 12 5 14 0 19 -2 13 -5z m-1960 -120 c-29 -2 -77 -2 -105 0
-29 2 -6 3 52 3 58 0 81 -1 53 -3z m1615 -40 c-21 -2 -55 -2 -75 0 -21 2 -4 4
37 4 41 0 58 -2 38 -4z m-5 -80 c-24 -2 -62 -2 -85 0 -24 2 -5 4 42 4 47 0 66
-2 43 -4z m3860 0 c-13 -2 -33 -2 -45 0 -13 2 -3 4 22 4 25 0 35 -2 23 -4z
m-1840 -40 c-13 -2 -33 -2 -45 0 -13 2 -3 4 22 4 25 0 35 -2 23 -4z m-3556
-24 c41 -20 62 -45 77 -96 7 -22 5 -23 -44 -23 -44 0 -55 4 -72 26 -28 35 -63
30 -63 -11 0 -28 6 -33 78 -67 95 -46 120 -79 114 -151 -8 -87 -71 -128 -175
-112 -38 5 -55 15 -89 50 -24 26 -53 45 -70 48 -27 4 -27 4 5 6 21 0 32 6 32
16 0 11 12 15 49 15 41 0 51 -4 65 -26 13 -18 24 -24 44 -22 23 2 27 8 27 33
0 27 -6 33 -72 65 -40 19 -82 45 -94 57 -29 29 -37 108 -16 150 32 61 125 80
204 42z m316 -143 l61 -149 49 147 49 147 56 -3 57 -3 6 -85 c4 -47 10 -147
14 -222 l7 -138 -50 0 c-61 0 -62 3 -62 121 0 49 -3 89 -8 89 -4 0 -20 -45
-37 -100 l-29 -101 -46 3 -45 3 -40 108 -40 108 -3 -111 -3 -110 -48 0 -48 0
-7 163 c-3 89 -9 190 -12 225 l-6 63 62 -3 62 -3 61 -149z m410 138 c36 -7 37
-7 38 -53 0 -25 3 -63 7 -84 l7 -37 55 82 55 83 58 3 c38 2 57 -1 57 -9 0 -6
-29 -53 -65 -104 -36 -52 -65 -98 -65 -104 0 -6 36 -58 80 -117 44 -58 80
-108 80 -110 0 -2 -27 -4 -60 -4 l-60 0 -61 83 c-33 45 -65 86 -70 92 -6 6 -7
-24 -3 -78 l7 -88 -54 3 -54 3 -7 155 c-3 85 -8 183 -11 217 -6 79 -7 79 66
67z m651 -25 c27 -7 57 -24 77 -45 31 -32 34 -40 34 -99 0 -59 -3 -67 -32 -97
-29 -28 -40 -33 -98 -36 l-66 -4 6 -74 7 -74 -55 0 -55 0 -6 93 c-3 50 -8 149
-12 220 l-6 127 81 0 c45 0 102 -5 125 -11z m414 -15 c43 -18 88 -58 108 -96
8 -15 14 -29 14 -33 0 -3 -25 -5 -55 -5 -42 0 -60 5 -75 20 -29 29 -94 27
-125 -5 -44 -43 -28 -161 26 -199 32 -22 81 -20 113 5 42 33 34 48 -31 51
l-58 3 0 40 c0 26 4 40 13 39 6 -1 54 -2 106 -2 l93 -2 7 -51 c6 -42 3 -59
-16 -98 -42 -84 -128 -117 -230 -87 -85 24 -158 115 -158 196 0 21 -5 30 -17
31 -17 1 -17 2 0 6 10 3 17 14 17 29 0 30 25 92 48 118 45 51 149 70 220 40z
m413 -25 c47 -23 69 -55 76 -108 7 -51 -12 -98 -48 -120 l-28 -17 44 -75 c51
-85 56 -104 23 -95 -13 3 -37 6 -54 6 -28 0 -34 7 -75 80 -24 44 -47 80 -51
80 -5 0 -8 -36 -8 -80 l0 -80 -49 0 -48 0 -6 93 c-4 50 -10 150 -13 221 l-7
129 103 -7 c71 -5 115 -13 141 -27z m225 10 c6 -10 17 -144 27 -342 l5 -88
-52 3 -51 3 -6 90 c-4 50 -10 147 -13 218 l-8 127 46 0 c24 0 48 -5 52 -11z
m1827 -36 c-24 -2 -62 -2 -85 0 -24 2 -5 4 42 4 47 0 66 -2 43 -4z m-5696
-110 c-3 -10 -5 -4 -5 12 0 17 2 24 5 18 2 -7 2 -21 0 -30z m4236 -250 c-35
-2 -91 -2 -125 0 -35 2 -7 3 62 3 69 0 97 -1 63 -3z m-4226 -100 c-2 -16 -4
-3 -4 27 0 30 2 43 4 28 2 -16 2 -40 0 -55z m2226 20 c-35 -2 -91 -2 -125 0
-35 2 -7 3 62 3 69 0 97 -1 63 -3z m440 0 c-13 -2 -33 -2 -45 0 -13 2 -3 4 22
4 25 0 35 -2 23 -4z m2400 -40 c-13 -2 -33 -2 -45 0 -13 2 -3 4 22 4 25 0 35
-2 23 -4z m6311 -95 c5 -9 7 -20 3 -25 -11 -10 -41 11 -45 31 -5 23 26 18 42
-6z m154 0 c35 -35 -13 -73 -64 -49 -41 19 -24 61 26 61 14 0 31 -5 38 -12z
m-1416 -55 c21 -19 33 -75 49 -236 17 -171 27 -161 -184 -164 -89 -1 -207 -6
-262 -11 -55 -6 -191 -13 -301 -17 -229 -7 -234 -5 -234 65 0 51 25 78 119
127 40 21 84 51 98 67 22 26 24 36 18 82 -6 47 -4 54 17 68 27 19 105 21 176
5 41 -10 57 -9 88 3 26 9 55 12 89 8 34 -5 64 -2 95 9 58 21 207 17 232 -6z
m-8065 -208 c6 -104 12 -209 12 -232 l1 -43 -55 0 -55 0 -1 73 c0 39 -4 142
-8 227 -5 85 -6 159 -4 163 3 4 26 7 51 5 l47 -3 12 -190z m2266 163 c21 -25
22 -46 0 -70 -35 -39 -103 -11 -103 43 0 55 64 72 103 27z m-2865 16 l92 -7 0
-43 0 -44 -51 0 -52 0 4 -177 4 -178 -45 3 c-24 2 -46 5 -49 7 -2 3 -8 80 -12
172 -4 93 -8 169 -8 170 -1 1 -25 3 -53 5 l-53 3 -3 48 -3 47 69 0 c38 0 110
-3 160 -6z m1360 -21 c-21 -2 -55 -2 -75 0 -21 2 -4 4 37 4 41 0 58 -2 38 -4z
m175 0 c-13 -2 -33 -2 -45 0 -13 2 -3 4 22 4 25 0 35 -2 23 -4z m-2976 -120
c-2 -21 -4 -6 -4 32 0 39 2 55 4 38 2 -18 2 -50 0 -70z m3516 80 c-24 -2 -62
-2 -85 0 -24 2 -5 4 42 4 47 0 66 -2 43 -4z m-1709 -56 c45 -26 76 -78 84
-143 l5 -44 -112 0 c-61 0 -111 -3 -111 -8 0 -4 7 -18 16 -30 18 -26 71 -31
80 -7 8 19 114 22 114 3 0 -25 -40 -77 -71 -93 -81 -43 -182 -5 -230 85 -21
40 -17 150 7 191 39 68 142 90 218 46z m483 -3 c28 -18 33 -18 33 2 0 12 10
14 48 12 l47 -3 6 -65 c4 -36 8 -114 10 -175 l4 -110 -45 -3 c-32 -3 -48 1
-56 13 -11 15 -14 15 -38 -1 -57 -37 -152 1 -191 76 -31 62 -25 168 14 220 19
26 19 29 3 33 -10 3 -4 5 13 7 17 1 39 5 50 10 24 11 72 3 102 -16z m370 19
c-16 -4 -15 -7 9 -20 19 -9 30 -11 32 -4 5 16 94 13 116 -4 11 -8 14 -15 8
-15 -10 0 -11 -45 -6 -193 8 -216 3 -240 -59 -277 -68 -42 -197 -14 -237 52
-33 54 -27 68 25 68 32 0 51 -6 65 -20 44 -44 110 -13 110 52 0 32 -6 34 -34
13 -28 -21 -95 -19 -133 5 -72 44 -103 192 -57 270 26 46 87 80 139 79 22 -1
32 -3 22 -6z m6149 -18 c20 -14 47 -25 60 -25 31 0 60 -32 79 -88 18 -55 20
-146 3 -159 -8 -6 -69 -10 -141 -9 -157 1 -161 4 -154 109 3 51 0 81 -14 117
-25 65 -12 80 71 80 47 0 67 -5 96 -25z m2859 -1 c13 -14 14 -19 3 -25 -18
-12 -31 -11 -53 4 -10 8 -15 19 -11 25 10 17 42 15 61 -4z m-8610 -10 c19 -10
31 -11 33 -5 2 6 28 11 58 11 l54 0 0 -48 c0 -27 3 -104 7 -170 l6 -122 -51 0
c-38 0 -52 4 -52 14 0 11 -8 10 -38 -6 -108 -60 -230 68 -207 217 14 99 107
152 190 109z m415 -12 c27 -20 62 -80 54 -94 -3 -4 -23 -8 -44 -8 -29 0 -42 5
-50 20 -15 28 -70 28 -70 1 0 -15 15 -24 64 -41 73 -24 104 -53 112 -102 5
-29 1 -41 -23 -68 -25 -28 -38 -34 -85 -38 -67 -5 -122 17 -149 62 -29 47 -25
56 24 56 32 0 49 -6 62 -20 24 -27 70 -24 70 4 0 14 -14 24 -60 38 -101 32
-143 104 -99 167 37 52 138 64 194 23z m298 -2 c26 -16 32 -17 32 -5 0 11 12
15 49 15 l49 0 6 -37 c3 -21 8 -93 12 -160 5 -104 9 -123 23 -124 10 0 7 -4
-9 -11 -14 -5 -53 -7 -87 -4 -34 3 -76 0 -92 -5 -87 -30 -181 69 -181 191 0
125 103 198 198 140z m302 -11 l0 -20 26 20 c15 12 37 21 50 21 21 0 24 -5 24
-39 0 -22 3 -46 6 -54 4 -11 -5 -17 -35 -22 -23 -4 -44 -12 -48 -18 -4 -7 -6
-59 -4 -116 l3 -104 -51 5 c-28 3 -53 7 -55 9 -2 2 -7 79 -11 172 l-7 167 51
0 c45 0 51 -2 51 -21z m236 13 c7 -4 16 -68 23 -158 6 -84 14 -159 17 -168 4
-10 1 -16 -7 -16 -8 0 5 -9 29 -20 42 -19 43 -21 40 -62 -4 -62 -24 -68 -204
-69 -80 0 -149 3 -152 6 -9 9 -6 65 5 76 12 12 117 38 158 39 17 0 48 7 70 15
l40 14 -47 1 c-27 0 -48 1 -49 3 -4 20 -15 334 -12 340 5 9 74 9 89 -1z m3544
-97 c52 -43 73 -44 134 -4 l47 31 42 -16 c36 -13 57 -15 127 -6 47 5 97 12
112 16 32 7 34 1 42 -119 4 -66 2 -78 -13 -86 -23 -13 -602 -24 -619 -13 -18
12 -54 145 -50 185 3 34 6 35 120 45 9 1 35 -14 58 -33z m-2557 18 c-13 -2
-33 -2 -45 0 -13 2 -3 4 22 4 25 0 35 -2 23 -4z m160 0 c-13 -2 -33 -2 -45 0
-13 2 -3 4 22 4 25 0 35 -2 23 -4z m1232 -26 c25 -21 27 -27 26 -120 0 -53 -3
-102 -6 -108 -14 -22 -57 -30 -79 -15 -26 16 -56 106 -56 163 0 34 6 46 35 72
43 37 46 37 80 8z m658 -72 c41 -36 85 -45 117 -25 17 11 28 -8 29 -50 1 -49
-11 -54 -136 -64 -65 -5 -154 -9 -198 -10 -77 -1 -80 0 -83 22 -6 43 2 51 46
39 47 -13 65 -2 87 49 12 30 65 74 88 74 5 0 27 -16 50 -35z m-1870 -22 c-46
-2 -120 -2 -165 0 -46 1 -9 3 82 3 91 0 128 -2 83 -3z m-5466 -146 c-2 -23 -3
-1 -3 48 0 50 1 68 3 42 2 -26 2 -67 0 -90z m11551 101 c-3 -7 -11 -13 -18
-13 -7 0 -15 6 -17 13 -3 7 4 12 17 12 13 0 20 -5 18 -12z m-9325 -155 c-24
-2 -62 -2 -85 0 -24 2 -5 4 42 4 47 0 66 -2 43 -4z m-792 -18 c37 -13 58 -14
141 -4 95 11 100 10 146 -12 32 -16 48 -31 50 -46 5 -31 -30 -38 -142 -27 -50
4 -131 7 -179 6 -70 -2 -96 2 -126 17 -46 24 -65 46 -57 66 7 20 109 20 167 0z
m3249 -20 c0 -8 -4 -17 -10 -20 -6 -4 -10 5 -10 20 0 15 4 24 10 20 6 -3 10
-12 10 -20z m1103 -42 c-46 -2 -120 -2 -165 0 -46 1 -9 3 82 3 91 0 128 -2 83
-3z m5893 -74 c15 -17 10 -49 -9 -49 -22 0 -47 34 -47 66 0 37 21 51 33 20 4
-11 15 -28 23 -37z m-11669 -11 c-2 -13 -4 -5 -4 17 -1 22 1 32 4 23 2 -10 2
-28 0 -40z m1433 -68 c0 -38 12 -52 25 -30 3 6 13 10 22 10 14 0 14 -3 -2 -20
-18 -20 -18 -21 4 -50 23 -32 10 -41 -21 -13 -17 15 -18 15 -18 0 0 -10 -7
-17 -15 -17 -12 0 -15 16 -15 80 0 47 4 80 10 80 6 0 10 -18 10 -40z m200 -46
c0 -41 -4 -74 -9 -74 -9 0 -23 139 -15 152 14 22 24 -10 24 -78z m280 34 c0
-39 1 -40 18 -25 29 27 45 21 26 -8 -15 -24 -15 -27 0 -44 9 -9 16 -23 16 -29
0 -19 -18 -14 -30 8 -12 22 -29 27 -26 8 0 -7 -3 -15 -9 -18 -6 -3 -11 25 -13
73 -2 48 1 77 8 77 5 0 10 -19 10 -42z m-140 12 c0 -13 7 -20 18 -20 28 0 42
-21 42 -62 0 -49 -18 -50 -22 -1 -2 27 -8 39 -20 41 -15 3 -18 -4 -18 -37 0
-23 -4 -41 -10 -41 -5 0 -10 24 -10 54 0 30 -3 61 -6 70 -4 11 -1 16 10 16 9
0 16 -8 16 -20z m321 7 c-1 -12 -15 -9 -19 4 -3 6 1 10 8 8 6 -3 11 -8 11 -12z
m969 -11 c0 -19 6 -25 27 -28 20 -2 30 -11 37 -31 14 -39 -2 -61 -48 -65 l-36
-3 0 75 c0 44 4 76 10 76 6 0 10 -11 10 -24z m260 -51 c0 -43 -4 -75 -10 -75
-5 0 -10 20 -10 44 0 39 -2 44 -20 39 -16 -4 -20 -14 -20 -44 0 -22 -4 -39
-10 -39 -5 0 -10 23 -10 50 0 49 1 50 30 50 27 0 30 2 24 25 -5 19 -2 25 10
25 13 0 16 -13 16 -75z m140 35 c0 -40 15 -54 26 -25 4 8 13 15 22 15 13 0 12
-3 -3 -20 -18 -20 -18 -21 4 -50 18 -24 19 -30 6 -30 -9 0 -18 7 -21 15 -4 8
-10 15 -15 15 -5 0 -9 -7 -9 -15 0 -27 -17 -15 -24 16 -9 48 -7 119 4 119 6 0
10 -18 10 -40z m433 -37 c4 -37 5 -68 3 -71 -10 -10 -69 -3 -77 9 -23 37 -4
89 33 89 11 0 18 7 18 20 0 11 4 20 9 20 4 0 11 -30 14 -67z m127 42 c0 -14 4
-25 10 -25 5 0 17 11 26 25 9 14 23 25 31 25 12 0 9 -8 -10 -33 l-25 -33 30
-37 c38 -46 27 -65 -11 -19 -33 39 -41 40 -41 7 0 -35 -16 -31 -24 6 -9 48 -7
109 4 109 6 0 10 -11 10 -25z m210 5 c0 -14 7 -20 23 -20 32 0 47 -18 47 -56
0 -39 -20 -57 -57 -52 -28 3 -28 4 -31 76 -2 45 1 72 8 72 5 0 10 -9 10 -20z
m-1337 3 c-46 -2 -120 -2 -165 0 -46 1 -9 3 82 3 91 0 128 -2 83 -3z m857 3
c0 -11 -19 -15 -25 -6 -3 5 1 10 9 10 9 0 16 -2 16 -4z m180 -6 c0 -5 -2 -10
-4 -10 -3 0 -8 5 -11 10 -3 6 -1 10 4 10 6 0 11 -4 11 -10z m1000 -17 l1 -28
24 28 c33 37 52 35 25 -3 l-22 -31 27 -35 c35 -45 22 -60 -14 -16 -28 35 -41
34 -41 -5 0 -12 -4 -23 -10 -23 -5 0 -10 24 -10 54 0 30 -3 61 -6 70 -4 11 -1
16 10 16 11 0 16 -9 16 -27z m928 -40 l-3 -68 -33 -3 c-22 -2 -34 2 -38 13
-10 24 4 31 20 10 22 -30 38 -8 36 49 -3 63 -2 66 10 66 7 0 10 -25 8 -67z
m-4577 47 c28 -16 23 -31 -8 -25 -27 6 -27 6 -8 -9 40 -30 44 -36 39 -51 -8
-21 -70 -20 -78 1 -5 13 -1 14 24 9 39 -9 39 7 0 22 -33 13 -39 37 -12 52 21
13 20 13 43 1z m3366 -10 c8 -12 9 -21 3 -25 -13 -8 -13 -52 0 -60 17 -10 11
-25 -10 -25 -14 0 -21 9 -26 38 -4 20 -11 43 -17 50 -6 8 -6 12 2 12 6 0 11 7
11 15 0 21 23 19 37 -5z m1696 -38 c10 -62 -1 -82 -44 -82 -34 0 -35 1 -43 78
l-7 63 43 -3 43 -3 8 -53z m-4955 36 c7 -7 12 -20 12 -30 0 -13 -8 -18 -31
-18 -20 0 -29 -4 -26 -12 2 -7 16 -12 31 -10 18 2 25 -1 21 -7 -3 -6 -20 -11
-36 -11 -38 0 -58 37 -41 75 13 27 49 34 70 13z m191 -2 c7 -8 11 -30 9 -48
-3 -28 -7 -34 -31 -36 -16 -2 -35 2 -43 9 -17 14 -19 60 -2 77 16 16 53 15 67
-2z m139 2 c7 -7 12 -29 12 -50 0 -37 -1 -38 -35 -38 -23 0 -38 6 -41 15 -8
20 13 45 38 45 11 0 16 4 12 11 -3 6 -17 8 -30 5 -25 -7 -34 8 -11 17 22 9 43
7 55 -5z m330 0 c7 -7 12 -20 12 -30 0 -13 -8 -18 -30 -18 -16 0 -30 -4 -30
-10 0 -10 13 -14 43 -11 27 3 20 -18 -10 -25 -20 -6 -31 -2 -45 16 -21 25 -22
43 -8 71 12 21 50 25 68 7z m50 -61 c2 -54 0 -68 -13 -73 -9 -4 -19 -3 -23 1
-4 4 -2 10 5 12 9 3 10 23 6 70 -5 54 -4 65 8 61 10 -3 15 -25 17 -71z m44 31
c2 -30 8 -43 18 -43 11 0 15 11 16 39 0 22 6 42 12 44 8 2 12 -14 12 -52 0
-55 -1 -56 -29 -56 -16 0 -33 6 -38 13 -12 15 -24 83 -16 91 15 14 22 3 25
-36z m160 0 c2 -30 8 -43 18 -43 11 0 15 11 16 40 1 57 18 45 22 -16 l3 -50
-32 3 c-34 3 -44 15 -54 61 -8 41 -29 28 -33 -21 -3 -44 -22 -59 -22 -18 0 13
-3 38 -6 55 l-6 31 45 0 46 0 3 -42z m135 34 c6 -4 14 -28 18 -54 l7 -48 -36
0 c-23 0 -38 6 -44 18 -13 25 -4 42 24 42 15 0 24 6 24 15 0 18 -21 20 -38 3
-9 -9 -12 -9 -12 3 0 28 29 39 57 21z m108 -3 c3 -3 8 -27 12 -54 5 -38 3 -47
-8 -43 -8 3 -15 22 -17 46 -2 27 -8 42 -17 42 -18 0 -23 -18 -17 -59 4 -26 2
-33 -9 -29 -9 3 -15 23 -17 56 l-3 51 35 -3 c20 -1 38 -5 41 -7z m91 -14 c7
-30 24 -33 24 -6 0 20 17 38 26 28 8 -8 -28 -136 -42 -148 -21 -17 -38 0 -20
20 25 27 10 61 -28 62 -29 2 -30 2 -4 6 24 4 27 8 21 34 -7 36 14 40 23 4z
m125 15 c14 -8 19 -21 19 -56 l0 -45 -37 3 c-33 3 -38 6 -38 28 0 18 6 26 23
28 12 2 22 10 22 18 0 16 -16 19 -25 4 -9 -15 -25 -12 -25 4 0 24 31 32 61 16z
m217 -69 l-3 -66 -32 -3 c-19 -2 -33 1 -33 7 0 6 10 10 21 8 12 -1 24 4 26 11
3 7 -3 12 -14 12 -27 0 -43 20 -43 52 0 15 -4 28 -10 28 -5 0 -10 -18 -10 -40
0 -22 -4 -40 -10 -40 -5 0 -10 18 -10 40 0 33 -3 40 -20 40 -17 0 -20 -7 -20
-40 0 -22 -4 -40 -10 -40 -5 0 -10 22 -10 49 l0 49 90 0 91 0 -3 -67z m240 37
c3 -25 0 -28 -29 -28 -27 0 -30 -2 -19 -15 7 -9 21 -13 31 -10 11 4 19 2 19
-4 0 -15 -53 -14 -68 1 -16 16 -15 61 0 76 7 7 24 12 38 10 19 -2 26 -10 28
-30z m196 16 c31 -31 17 -84 -23 -84 -34 0 -51 17 -51 50 0 47 42 66 74 34z
m183 8 c7 -4 15 -27 19 -50 l7 -42 -41 0 c-26 0 -42 5 -46 15 -6 17 19 45 40
45 8 0 14 5 14 11 0 7 -10 9 -25 5 -24 -6 -33 3 -18 17 9 9 35 9 50 -1z m103
-7 c16 -19 5 -34 -12 -17 -14 14 -28 16 -28 4 0 -5 11 -14 25 -20 15 -7 25
-20 25 -32 0 -16 -7 -20 -34 -20 -19 0 -38 5 -41 11 -11 17 3 23 20 9 12 -10
19 -10 27 -2 8 8 5 14 -14 21 -34 13 -43 28 -28 46 16 19 44 19 60 0z m48 -38
c2 -26 -1 -47 -6 -47 -12 0 -22 34 -22 73 0 49 25 25 28 -26z m192 -9 c0 -21
-4 -38 -9 -38 -10 0 -22 80 -14 93 10 16 23 -16 23 -55z m244 46 c9 -9 16 -32
16 -55 0 -38 -1 -39 -34 -39 -18 0 -39 6 -45 14 -15 18 -3 46 19 46 11 0 21 4
25 9 8 15 -14 24 -29 12 -17 -14 -29 -2 -15 16 15 18 44 17 63 -3z m150 0 c3
-9 6 -29 6 -46 0 -46 24 -29 28 20 5 71 32 47 32 -29 0 -37 -1 -39 -33 -39
-44 0 -57 15 -57 67 0 43 12 57 24 27z m164 -38 c4 -32 -13 -56 -39 -56 -12 0
-19 -7 -19 -20 0 -11 -4 -20 -9 -20 -12 0 -21 37 -21 92 0 41 3 47 23 51 32 5
61 -16 65 -47z m2146 41 c8 -8 11 -26 8 -46 -3 -22 0 -36 9 -42 17 -10 5 -23
-16 -16 -8 4 -15 18 -15 35 0 15 -5 33 -10 38 -6 6 -8 18 -4 27 7 20 12 21 28
4z m-2060 -9 c3 -7 7 -30 10 -50 5 -37 4 -38 -28 -38 -37 0 -61 21 -52 45 3 8
17 15 31 15 25 0 33 14 15 25 -6 4 -18 1 -26 -6 -16 -13 -30 -6 -19 10 9 15
65 14 69 -1z m154 0 c7 -7 12 -20 12 -30 0 -13 -8 -18 -31 -18 -19 0 -28 -4
-23 -11 3 -6 17 -8 30 -5 26 7 34 -11 9 -20 -25 -10 -63 5 -70 27 -12 38 3 69
33 69 15 0 33 -5 40 -12z m96 4 c12 -21 18 -92 7 -92 -6 0 -14 18 -17 40 -9
55 -34 54 -34 -1 0 -58 -24 -46 -28 14 l-3 47 35 0 c19 0 37 -4 40 -8z m254
-4 c7 -7 12 -29 12 -50 0 -37 -1 -38 -35 -38 -23 0 -38 6 -41 15 -8 20 13 45
38 45 11 0 16 4 12 11 -3 6 -17 8 -30 5 -23 -6 -32 3 -17 17 11 11 48 8 61 -5z
m82 2 c0 -6 8 -5 20 2 30 19 54 -1 61 -51 5 -41 5 -41 -27 -41 -17 0 -38 7
-45 16 -11 14 -10 18 6 30 10 8 25 14 32 14 7 0 13 4 13 9 0 5 -19 8 -42 7
-42 -2 -43 -3 -46 -39 -5 -55 -22 -45 -22 13 0 47 2 50 25 50 14 0 25 -5 25
-10z m116 -15 c7 -30 24 -33 24 -6 0 31 19 35 32 7 14 -33 28 -33 28 -1 0 14
5 25 11 25 11 0 6 -71 -7 -92 -10 -16 -24 -8 -30 17 -8 31 -22 33 -26 3 -6
-39 -25 -30 -42 18 -19 56 -19 54 -6 54 5 0 12 -11 16 -25z m182 16 c8 -4 16
-27 19 -50 l6 -41 -35 0 c-45 0 -65 21 -43 44 9 9 23 16 31 16 8 0 14 5 14 10
0 14 -23 13 -38 -2 -9 -9 -12 -9 -12 3 0 28 29 39 58 20z m108 -3 c3 -4 8 -25
11 -47 7 -54 -12 -54 -21 -1 -4 26 -11 40 -21 40 -11 0 -15 -11 -15 -40 0 -48
-15 -53 -24 -9 -12 62 -9 68 29 65 19 -1 37 -5 41 -8z m106 -13 c11 -34 9
-100 -4 -113 -16 -16 -43 -15 -58 2 -10 13 -7 15 14 13 28 -2 36 16 9 22 -10
2 -24 8 -30 13 -16 13 -17 60 -1 76 18 18 62 10 70 -13z m260 13 c9 -7 18 -30
20 -50 4 -38 4 -38 -33 -38 -36 0 -50 13 -42 38 3 6 13 12 23 12 10 0 21 4 25
9 9 15 -14 24 -30 11 -8 -7 -15 -7 -19 -1 -4 5 2 14 11 20 23 13 26 13 45 -1z
m55 -18 c3 -11 9 -20 14 -20 5 0 9 9 9 20 0 29 28 25 36 -5 7 -28 24 -24 24 6
0 10 5 19 10 19 7 0 8 -14 4 -37 -11 -63 -23 -69 -44 -25 l-13 27 -6 -24 c-11
-40 -28 -35 -44 14 -10 27 -12 45 -5 45 5 0 12 -9 15 -20z m186 13 c3 -5 7
-25 8 -47 4 -36 2 -39 -23 -42 -35 -3 -64 22 -47 42 6 8 20 14 30 14 11 0 19
4 19 9 0 17 -20 23 -35 11 -13 -11 -30 1 -18 14 9 9 61 8 66 -1z m257 -12 c5
-11 10 -33 10 -49 0 -28 -3 -30 -32 -28 -18 2 -37 4 -41 5 -5 0 -7 11 -5 24 2
14 11 23 26 25 12 2 22 8 22 14 0 6 -10 8 -25 4 -14 -4 -25 -3 -25 2 0 28 55
30 70 3z m70 9 c0 -5 -4 -10 -10 -10 -5 0 -10 -18 -10 -40 0 -22 -4 -40 -10
-40 -5 0 -10 12 -10 28 0 15 -3 37 -6 50 -5 19 -2 22 20 22 14 0 26 -4 26 -10z
m77 -2 c6 -7 13 -30 17 -50 7 -38 7 -38 -27 -38 -42 0 -66 23 -47 45 7 8 21
15 31 15 11 0 19 5 19 11 0 7 -11 9 -30 6 -16 -4 -30 -2 -30 2 0 21 53 27 67
9z m-863 -91 c-3 -9 -11 -17 -16 -17 -6 0 -7 7 -4 16 3 9 6 21 6 27 0 8 3 8
10 1 6 -6 8 -18 4 -27z m976 3 c0 -11 -4 -20 -10 -20 -5 0 -10 9 -10 20 0 11
5 20 10 20 6 0 10 -9 10 -20z m-6693 -102 c-2 -18 -4 -6 -4 27 0 33 2 48 4 33
2 -15 2 -42 0 -60z m1253 -61 c1 -37 2 -40 14 -24 21 27 42 22 23 -6 -13 -21
-13 -25 5 -47 12 -15 16 -26 9 -28 -6 -2 -20 7 -31 20 l-19 23 -1 -22 c0 -13
-4 -23 -9 -23 -10 0 -24 137 -15 151 11 19 24 -3 24 -44z m2110 1 c0 -41 0
-41 20 -23 23 21 39 13 20 -10 -11 -14 -11 -21 4 -46 18 -30 8 -40 -14 -14 -7
8 -16 15 -21 15 -5 0 -9 -7 -9 -15 0 -8 -4 -15 -10 -15 -6 0 -10 32 -10 75 0
43 4 75 10 75 6 0 10 -19 10 -42z m890 2 c0 -42 9 -50 30 -25 20 24 34 17 17
-9 -15 -22 -15 -26 3 -49 25 -32 13 -43 -17 -15 -19 18 -23 19 -23 5 0 -25
-17 -21 -24 6 -9 36 -7 127 4 127 6 0 10 -18 10 -40z m-2910 20 c0 -5 -4 -10
-10 -10 -5 0 -10 5 -10 10 0 6 5 10 10 10 6 0 10 -4 10 -10z m140 0 c0 -5 -4
-10 -10 -10 -5 0 -10 5 -10 10 0 6 5 10 10 10 6 0 10 -4 10 -10z m600 0 c0 -5
-4 -10 -10 -10 -5 0 -10 5 -10 10 0 6 5 10 10 10 6 0 10 -4 10 -10z m638 3
c-16 -2 -40 -2 -55 0 -16 2 -3 4 27 4 30 0 43 -2 28 -4z m412 -32 c0 -21 3
-53 6 -70 6 -31 6 -31 -35 -31 -35 0 -42 4 -47 24 -11 45 -1 71 29 74 19 2 27
9 27 23 0 10 5 19 10 19 6 0 10 -17 10 -39z m40 29 c0 -5 -4 -10 -10 -10 -5 0
-10 5 -10 10 0 6 5 10 10 10 6 0 10 -4 10 -10z m110 -72 l0 -58 -35 0 c-28 0
-38 5 -47 25 -16 36 3 75 37 75 19 0 25 5 25 23 0 18 2 19 10 7 5 -8 10 -41
10 -72z m35 72 c3 -5 -1 -10 -10 -10 -9 0 -13 5 -10 10 3 6 8 10 10 10 2 0 7
-4 10 -10z m175 -10 c0 -15 7 -20 25 -20 15 0 31 -10 42 -26 15 -24 15 -29 2
-53 -12 -19 -22 -25 -43 -24 -16 1 -30 3 -31 5 -1 2 -6 33 -10 71 -4 45 -3 67
4 67 6 0 11 -9 11 -20z m1060 -6 c0 -8 8 -14 19 -14 23 0 38 -17 44 -50 3 -18
5 -15 6 13 1 42 31 55 31 13 0 -13 3 -31 6 -40 11 -30 24 -16 24 25 0 61 24
45 28 -19 l3 -52 -35 0 c-19 0 -38 5 -42 11 -4 8 -9 8 -17 0 -19 -19 -26 -12
-29 32 -4 60 -31 58 -38 -3 -3 -25 -8 -40 -11 -35 -6 9 -14 115 -10 138 2 14
21 -3 21 -19z m918 10 c28 -19 28 -33 -3 -78 l-24 -36 29 0 c17 0 30 -4 30
-10 0 -5 -20 -10 -45 -10 -52 0 -55 8 -20 54 14 18 25 40 25 49 0 24 -21 32
-35 14 -15 -21 -25 -22 -25 -2 0 12 25 34 40 35 3 0 16 -7 28 -16z m-488 -4
c0 -5 -2 -10 -4 -10 -3 0 -8 5 -11 10 -3 6 -1 10 4 10 6 0 11 -4 11 -10z m600
-10 c6 -12 10 -42 8 -68 -3 -43 -6 -47 -30 -50 -44 -5 -74 65 -52 122 9 24 61
21 74 -4z m98 8 c17 -17 15 -39 -8 -68 -26 -33 -25 -40 5 -40 14 0 25 -4 25
-10 0 -5 -20 -10 -45 -10 -52 0 -56 10 -20 52 27 32 32 62 13 74 -6 4 -17 -1
-24 -11 -16 -21 -27 -16 -18 9 7 19 54 22 72 4z m102 -26 c0 -21 4 -42 9 -47
11 -12 -4 -55 -19 -55 -5 0 -10 7 -10 15 0 9 -9 15 -24 15 -34 0 -40 14 -20
52 36 71 64 80 64 20z m73 -19 c-18 -68 -31 -96 -42 -88 -13 7 30 145 45 145
9 0 9 -13 -3 -57z m105 24 c2 -16 -5 -39 -18 -57 l-21 -30 30 0 c17 0 31 -4
31 -10 0 -5 -22 -10 -50 -10 -27 0 -50 3 -50 8 0 4 14 25 30 46 17 22 30 45
30 52 0 18 -30 26 -36 9 -6 -16 -34 -21 -34 -7 0 18 27 33 55 30 24 -2 31 -8
33 -31z m102 7 c14 -35 12 -88 -2 -102 -18 -18 -56 -14 -68 7 -11 22 -14 104
-3 114 3 4 19 7 35 7 21 0 31 -6 38 -26z m98 9 c11 -21 6 -38 -20 -75 l-19
-28 30 0 c17 0 31 -4 31 -10 0 -11 -83 -14 -93 -4 -3 4 7 23 23 43 17 19 30
43 30 53 0 26 -21 33 -36 13 -16 -21 -30 -14 -21 10 9 21 64 20 75 -2z m82 8
c-35 -10 -39 -41 -5 -41 31 0 51 -40 35 -71 -13 -23 -52 -25 -70 -4 -16 19 -5
34 12 17 20 -20 38 -14 38 13 0 25 -8 29 -42 26 -14 -2 -18 5 -18 33 0 35 1
36 38 35 32 -1 33 -2 12 -8z m114 -7 c9 -24 7 -84 -3 -84 -7 0 -21 54 -21 88
0 17 17 15 24 -4z m-3476 -11 c10 -10 12 -18 6 -20 -13 -4 -5 -65 10 -75 6 -5
2 -8 -11 -8 -17 0 -23 8 -28 40 -5 30 -11 40 -26 40 -16 0 -19 -7 -19 -40 0
-40 -13 -53 -24 -24 -3 9 -6 31 -6 50 0 32 2 34 35 34 19 0 35 5 35 10 0 14 9
12 28 -7z m1229 1 c13 -13 14 -17 3 -24 -14 -9 -6 -60 12 -71 7 -4 7 -9 0 -13
-16 -10 -42 23 -42 54 0 16 -5 30 -12 32 -9 3 -8 9 2 21 19 20 18 20 37 1z
m287 4 c8 -8 11 -27 8 -55 -3 -29 -1 -43 7 -43 7 0 10 -4 6 -10 -12 -19 -35 3
-35 34 0 18 -5 37 -10 42 -6 6 -8 18 -4 27 7 20 11 21 28 5z m-3052 -58 c2
-35 -1 -50 -9 -50 -9 0 -13 17 -13 50 0 65 17 65 22 0z m93 38 c2 -7 6 -30 10
-50 5 -30 3 -38 -10 -38 -11 0 -15 11 -15 41 0 33 -3 40 -17 37 -14 -3 -17
-12 -15 -41 2 -28 -1 -37 -13 -37 -11 0 -15 12 -15 50 l0 50 35 0 c20 0 37 -6
40 -12z m49 -19 c10 -50 7 -69 -9 -69 -11 0 -15 12 -15 50 0 56 14 67 24 19z
m204 -21 c4 -56 -15 -66 -20 -10 -2 25 -8 37 -18 37 -10 0 -16 -12 -18 -37 -2
-21 -7 -38 -12 -38 -5 0 -10 17 -12 38 -2 25 -8 37 -18 37 -10 0 -16 -12 -18
-37 -5 -56 -22 -46 -22 12 l0 51 68 -3 67 -3 3 -47z m90 40 c7 -7 12 -20 12
-30 0 -13 -8 -18 -30 -18 -16 0 -30 -4 -30 -10 0 -5 14 -10 31 -10 17 0 28 -4
24 -10 -3 -5 -20 -10 -36 -10 -38 0 -58 37 -41 75 13 27 49 34 70 13z m95 5
c3 -5 8 -27 12 -50 6 -36 4 -43 -9 -43 -12 0 -16 10 -16 40 0 29 -4 40 -15 40
-11 0 -15 -11 -15 -40 0 -29 -4 -40 -15 -40 -11 0 -15 12 -15 50 l0 50 34 0
c19 0 37 -3 39 -7z m95 -5 c7 -7 12 -20 12 -30 0 -13 -8 -18 -31 -18 -26 0
-29 -3 -20 -14 7 -8 21 -12 33 -8 14 3 19 1 14 -6 -9 -16 -49 -15 -64 0 -27
27 -8 88 28 88 9 0 21 -5 28 -12z m112 -38 c0 -27 -4 -50 -10 -50 -5 0 -10 20
-10 45 0 48 0 48 -24 39 -11 -4 -16 -19 -16 -45 0 -57 -17 -48 -22 11 l-3 50
43 0 42 0 0 -50z m158 -2 c2 -29 -1 -48 -7 -48 -6 0 -11 18 -11 41 0 33 -3 40
-17 37 -13 -2 -19 -14 -21 -41 -4 -50 -22 -48 -22 3 0 33 -3 40 -20 40 -17 0
-20 -7 -20 -40 0 -22 -4 -40 -10 -40 -5 0 -10 23 -10 50 l0 50 68 -2 67 -3 3
-47z m90 40 c7 -7 12 -29 12 -51 0 -38 0 -38 -37 -35 -33 3 -38 6 -38 28 0 18
6 26 23 28 12 2 22 8 22 14 0 6 -10 8 -25 4 -24 -6 -33 3 -18 17 11 11 48 8
61 -5z m153 -9 l11 -21 14 21 c18 26 59 27 73 4 9 -17 10 -17 16 0 8 19 69 24
81 6 4 -8 9 -8 17 0 26 26 77 5 77 -31 0 -13 -8 -18 -31 -18 -17 0 -28 -4 -24
-10 3 -5 17 -10 31 -10 13 0 24 -4 24 -9 0 -16 -44 -20 -66 -6 -18 12 -23 11
-37 -2 -18 -19 -62 -11 -71 13 -5 13 -1 14 24 9 38 -8 38 -1 0 19 -16 8 -30
10 -30 5 0 -5 -16 -9 -36 -9 -30 0 -34 -2 -25 -14 7 -8 21 -12 31 -9 11 3 20
0 20 -6 0 -20 -58 -12 -73 10 l-15 21 -7 -21 c-4 -14 -15 -21 -31 -21 -19 0
-24 -5 -24 -25 0 -14 -4 -25 -9 -25 -11 0 -21 50 -21 106 0 43 0 44 35 44 25
0 37 -6 46 -21z m497 9 c7 -7 12 -29 12 -51 0 -38 0 -38 -37 -35 -30 2 -39 7
-41 25 -3 17 3 24 22 29 14 3 26 11 26 16 0 6 -11 7 -25 4 -24 -6 -33 3 -18
17 11 11 48 8 61 -5z m197 -34 c7 -48 0 -68 -15 -44 -12 19 -13 90 -1 90 5 0
12 -21 16 -46z m145 -4 c0 -27 -4 -50 -9 -50 -9 0 -20 88 -12 96 14 14 21 -2
21 -46z m328 38 c7 -7 12 -31 12 -53 0 -41 0 -42 -36 -40 -55 1 -69 48 -18 61
13 3 24 10 24 15 0 13 -24 11 -38 -3 -9 -9 -12 -9 -12 3 0 9 3 19 7 22 11 11
48 8 61 -5z m112 -32 c7 -58 30 -59 30 -1 0 62 24 56 28 -7 3 -41 1 -46 -22
-52 -39 -10 -56 3 -62 45 -8 45 -28 47 -32 3 -2 -16 -5 -36 -9 -44 -8 -22 -21
15 -22 63 l-1 38 43 -3 c41 -3 42 -4 47 -42z m142 2 c2 -30 8 -43 18 -43 10 0
16 13 18 43 4 61 22 52 22 -11 0 -53 -1 -54 -28 -52 -43 2 -52 12 -52 61 0 56
18 58 22 2z m146 30 c14 -14 16 -88 3 -88 -6 0 -11 17 -13 38 -2 25 -8 37 -18
37 -10 0 -16 -12 -18 -37 -5 -56 -22 -46 -22 12 0 48 1 50 28 50 15 0 33 -5
40 -12z m114 -38 c4 -50 33 -48 33 2 0 54 19 51 23 -3 3 -41 0 -47 -19 -52
-36 -10 -56 8 -61 53 -2 23 -2 43 1 46 9 9 20 -12 23 -46z m336 38 c7 -7 12
-30 12 -52 0 -38 -2 -41 -29 -43 -33 -2 -56 19 -47 42 3 8 15 15 26 15 11 0
20 7 20 15 0 18 -27 20 -33 3 -2 -7 -8 -10 -12 -6 -11 10 14 38 34 38 9 0 22
-5 29 -12z m303 -9 c11 -18 12 -89 0 -89 -5 0 -12 21 -16 46 -8 56 -29 54 -33
-4 -3 -43 -15 -55 -26 -26 -7 19 -8 79 -1 86 10 10 67 1 76 -13z m141 -3 c4
-6 8 -28 8 -48 0 -35 -2 -38 -27 -38 -16 0 -34 4 -41 9 -21 13 -10 46 16 49
12 2 22 10 22 18 0 17 -12 18 -28 2 -6 -6 -15 -8 -19 -4 -5 4 0 14 10 21 19
14 46 10 59 -9z m48 -30 c0 -24 2 -50 5 -58 8 -22 -11 -42 -31 -33 -13 5 -15
9 -6 12 8 3 12 26 12 64 0 33 4 59 10 59 6 0 10 -20 10 -44z m94 28 c3 -9 6
-31 6 -50 0 -30 -3 -34 -27 -34 -16 0 -34 4 -41 9 -21 13 -10 46 16 49 12 2
22 10 22 18 0 17 -27 19 -33 2 -2 -7 -8 -10 -12 -6 -13 12 6 28 35 28 16 0 30
-7 34 -16z m150 7 c3 -4 8 -27 12 -49 l7 -42 -35 0 c-43 0 -67 22 -48 45 7 8
21 15 31 15 21 0 25 15 8 26 -6 3 -16 1 -22 -5 -7 -7 -14 -7 -23 0 -21 17 -34
1 -34 -42 0 -21 -4 -39 -10 -39 -5 0 -10 15 -10 34 0 19 -3 41 -6 50 -5 12 5
15 60 15 36 0 68 -4 70 -8z m106 -10 c5 -11 10 -34 10 -51 0 -44 -24 -33 -30
14 -7 51 -24 50 -28 -2 -4 -58 -26 -50 -30 11 l-3 47 35 0 c25 0 38 -6 46 -19z
m975 -71 c-3 -5 -10 -10 -16 -10 -5 0 -9 5 -9 10 0 6 7 10 16 10 8 0 12 -4 9
-10z m45 0 c0 -5 -4 -10 -10 -10 -5 0 -10 5 -10 10 0 6 5 10 10 10 6 0 10 -4
10 -10z m-2477 -27 c-24 -2 -62 -2 -85 0 -24 2 -5 4 42 4 47 0 66 -2 43 -4z
m0 -20 c-24 -2 -62 -2 -85 0 -24 2 -5 4 42 4 47 0 66 -2 43 -4z m5510 -14 c64
-16 72 -41 71 -209 0 -159 -17 -237 -57 -265 -14 -10 -45 -15 -85 -15 -57 0
-66 -3 -94 -30 l-31 -31 7 -92 c4 -55 15 -113 28 -144 11 -29 18 -59 15 -67
-3 -8 -23 -19 -43 -25 -20 -6 -50 -23 -66 -38 l-29 -28 -209 -3 c-208 -3 -209
-3 -221 19 -6 13 -20 88 -30 168 -11 80 -23 167 -29 193 -13 62 -34 364 -26
383 4 13 35 15 195 15 184 0 236 7 253 33 5 7 6 34 2 60 -6 51 4 72 41 87 24
11 255 2 308 -11z m-9386 -126 c-2 -27 -3 -5 -3 47 0 52 1 74 3 48 2 -27 2
-69 0 -95z m2661 55 c-4 -27 -23 -34 -32 -13 -8 21 1 35 20 35 10 0 14 -8 12
-22z m9 -184 c10 -25 -13 -39 -26 -15 -10 17 -23 21 -94 24 l-82 3 98 2 c81 2
99 -1 104 -14z m-2660 -211 c-2 -32 -3 -6 -3 57 0 63 1 89 3 58 2 -32 2 -84 0
-115z m8364 21 c4 -54 14 -128 23 -163 16 -59 16 -66 0 -99 -15 -32 -15 -37 0
-69 20 -42 20 -57 0 -88 -12 -18 -17 -52 -18 -122 l-2 -98 -39 -22 c-71 -40
-48 -50 131 -58 131 -6 145 -5 239 21 74 20 125 28 195 29 52 0 115 6 139 13
27 9 66 11 105 7 97 -10 408 10 443 28 48 25 56 41 33 62 -11 10 -20 22 -20
27 0 4 35 8 78 9 42 0 108 6 146 13 48 8 84 9 116 2 26 -5 55 -6 66 -2 18 7
18 8 0 18 -10 6 -35 8 -54 4 -36 -5 -113 22 -128 46 -4 6 9 26 28 45 30 30 42
35 81 35 25 0 51 -3 57 -7 7 -4 64 -11 128 -16 65 -5 180 -14 257 -21 179 -14
218 -14 644 1 270 10 363 11 392 2 22 -7 39 -16 39 -21 0 -17 -67 -23 -230
-21 -91 2 -176 2 -190 2 -14 -1 -142 -3 -285 -5 -244 -2 -536 -26 -590 -46
-18 -7 -17 -9 10 -20 17 -6 62 -14 100 -17 127 -10 167 -52 70 -74 -54 -12
-85 -32 -71 -47 4 -4 85 -7 179 -7 95 0 207 -4 249 -9 60 -7 104 -5 194 9 103
17 131 17 257 7 96 -8 160 -9 197 -3 30 5 173 13 317 16 304 7 322 4 323 -67
0 -38 -30 -54 -114 -62 -38 -4 -78 -12 -90 -18 -36 -20 -300 -30 -404 -17 -73
10 -109 10 -162 1 -38 -6 -167 -17 -287 -23 -185 -9 -236 -15 -334 -40 -113
-29 -122 -29 -297 -25 -158 5 -187 3 -234 -13 -42 -15 -107 -21 -323 -30 -148
-6 -295 -16 -325 -21 -72 -13 -721 -29 -774 -19 -22 4 -84 5 -136 2 -69 -4
-118 -1 -178 11 -77 16 -94 16 -230 2 -81 -9 -263 -18 -405 -20 -141 -3 -263
-8 -270 -13 -6 -4 -52 -8 -102 -8 -118 -2 -293 -20 -328 -34 -16 -6 -70 -11
-120 -11 -51 0 -135 -6 -187 -12 -176 -20 -436 -26 -590 -11 -58 5 -141 6
-185 2 -195 -19 -266 -21 -325 -10 -54 11 -64 10 -106 -9 -34 -15 -68 -20
-126 -20 -79 0 -79 0 -113 -37 l-35 -38 -142 2 c-103 2 -159 -1 -204 -13 -49
-12 -71 -13 -101 -5 -60 17 -109 13 -173 -14 -37 -15 -79 -25 -109 -25 -28 0
-84 -7 -125 -16 -59 -13 -91 -15 -161 -7 -72 7 -107 5 -213 -12 -216 -37 -291
-44 -482 -51 -102 -3 -198 -8 -215 -10 -16 -2 -75 -7 -130 -9 -55 -3 -127 -10
-160 -15 -33 -6 -91 -9 -130 -8 -110 2 -434 -9 -620 -21 -93 -7 -237 -16 -320
-21 -82 -4 -184 -13 -225 -19 -41 -6 -81 -9 -90 -6 -32 9 -390 7 -490 -3 -174
-19 -217 -16 -246 13 -14 14 -47 36 -74 50 -27 14 -57 37 -67 51 -49 71 -58
76 -131 69 -37 -4 -94 -16 -126 -26 -99 -32 -174 -21 -235 33 -51 46 -53 100
-3 123 12 5 24 22 27 36 4 15 12 30 20 33 8 3 76 5 152 5 91 1 155 6 188 15
28 8 85 22 127 31 42 8 89 22 105 30 42 22 67 19 149 -21 82 -39 179 -55 254
-41 25 5 95 10 155 12 61 2 133 6 161 9 27 3 66 1 85 -5 46 -14 372 -21 405
-9 14 6 72 17 127 25 82 13 111 13 148 4 59 -15 231 10 304 45 49 23 53 23
169 13 105 -9 127 -8 193 8 65 16 79 17 111 5 55 -20 213 -22 332 -4 183 26
223 30 300 27 153 -5 401 -3 413 4 7 4 50 10 97 14 47 4 97 10 113 14 21 6 36
1 66 -20 39 -27 40 -27 168 -20 70 3 187 7 258 9 81 2 141 8 160 16 22 10 98
14 280 16 420 5 615 12 730 25 102 11 158 13 290 9 106 -3 157 1 198 14 23 8
67 17 98 21 47 5 62 3 90 -14 38 -23 128 -29 175 -11 15 6 58 13 96 16 38 4
74 7 81 8 6 0 34 -3 61 -8 40 -6 70 -3 158 20 98 25 115 27 181 18 71 -10 122
-5 180 17 21 9 27 18 27 40 0 24 4 29 25 29 14 0 25 -4 25 -10 0 -5 8 -11 18
-11 16 -1 16 -2 0 -6 -10 -2 -18 -9 -18 -14 0 -13 37 -11 59 2 20 13 75 4 66
-11 -11 -18 45 -24 200 -21 114 2 164 7 174 16 11 11 6 14 -26 20 -22 3 -60 1
-84 -5 -63 -16 -132 11 -177 69 -61 80 -54 108 33 133 55 16 61 23 42 52 -11
16 -28 26 -49 28 -26 2 -37 11 -53 39 -11 20 -26 45 -32 56 -18 30 8 48 68 47
l48 0 21 48 c11 26 33 55 48 65 15 9 41 30 57 47 17 18 39 38 51 46 12 8 28
29 38 47 9 18 25 37 36 43 11 6 32 29 46 51 23 38 57 61 79 55 6 -1 13 -47 16
-102z m-5438 39 c-13 -2 -33 -2 -45 0 -13 2 -3 4 22 4 25 0 35 -2 23 -4z m900
-40 c-46 -2 -120 -2 -165 0 -46 1 -9 3 82 3 91 0 128 -2 83 -3z m3200 0 c-46
-2 -120 -2 -165 0 -46 1 -9 3 82 3 91 0 128 -2 83 -3z m-1804 -37 c43 -23 51
-43 61 -164 24 -297 24 -306 -3 -338 l-25 -29 -255 -5 c-141 -3 -259 -9 -264
-13 -4 -5 5 -43 20 -86 32 -90 31 -85 11 -105 -21 -21 -93 -21 -123 1 -23 15
-24 20 -18 105 l6 90 -552 -6 c-304 -4 -574 -9 -602 -11 -59 -6 -92 8 -116 50
-25 45 -45 424 -24 464 8 16 22 32 32 37 10 5 304 11 653 14 349 3 755 6 902
8 228 3 271 1 297 -12z m5384 -3 c-13 -2 -33 -2 -45 0 -13 2 -3 4 22 4 25 0
35 -2 23 -4z m-10596 -325 c-1 -40 -3 -10 -3 67 0 77 1 110 3 73 2 -37 2 -100
0 -140z m1893 104 c0 -4 -5 -13 -12 -20 -9 -9 -8 -12 4 -12 9 0 19 6 21 13 10
24 25 -15 20 -50 -6 -34 10 -47 21 -18 3 9 16 20 28 25 21 9 20 10 -5 5 -21
-4 -28 -2 -25 7 3 7 18 13 34 13 27 0 29 -3 32 -43 l3 -43 -53 3 c-52 3 -53 4
-58 36 -7 43 -25 41 -24 -3 2 -52 -23 -45 -28 8 -6 50 6 87 27 87 8 0 15 -4
15 -8z m400 -16 c0 -20 4 -23 21 -19 19 5 20 3 11 -12 -7 -14 -6 -25 5 -42 19
-28 -2 -33 -23 -5 -12 16 -13 15 -14 -6 0 -13 -4 -20 -10 -17 -5 3 -10 14 -10
24 0 14 -6 17 -25 13 -14 -2 -25 -9 -25 -14 0 -5 9 -6 20 -3 12 4 20 2 20 -5
0 -18 -31 -24 -53 -11 -14 9 -22 10 -30 2 -16 -16 -53 -13 -67 4 -16 19 -5 34
12 17 7 -7 18 -12 25 -12 22 0 15 20 -11 32 -47 21 -40 68 11 68 24 0 42 -25
28 -38 -4 -4 -10 -1 -12 6 -5 14 -33 17 -33 3 0 -5 13 -16 29 -24 27 -13 30
-13 34 4 6 22 46 26 65 7 9 -9 12 -5 12 20 0 18 5 32 10 32 6 0 10 -11 10 -24z
m-550 -6 c37 -37 19 -100 -29 -100 -21 0 -30 6 -35 23 -8 30 -8 82 1 90 13 13
43 7 63 -13z m658 -12 c7 -7 12 -27 12 -46 0 -32 -2 -33 -32 -30 -25 2 -33 8
-33 23 0 13 8 21 23 23 12 2 20 7 17 12 -3 4 -15 6 -28 3 -21 -4 -22 -4 -3 11
24 19 28 20 44 4z m133 -18 l6 -25 4 25 c6 35 55 42 68 9 l8 -23 12 22 c9 17
20 22 39 20 25 -3 27 -7 30 -54 2 -36 -1 -54 -12 -63 -16 -14 -56 -6 -56 10 0
6 9 8 19 4 11 -3 22 -1 26 5 3 5 -3 10 -14 10 -11 0 -25 8 -30 18 -10 16 -10
16 -11 0 0 -10 -7 -18 -15 -18 -10 0 -15 11 -15 35 0 19 -4 35 -10 35 -5 0
-10 -16 -10 -35 l0 -35 -49 0 c-32 0 -51 5 -54 14 -6 16 11 36 30 36 7 0 13 4
13 9 0 5 -15 7 -32 6 -30 -3 -33 -6 -32 -34 1 -21 -3 -31 -12 -31 -10 0 -14
12 -14 38 0 21 3 41 6 44 3 3 26 5 52 4 40 -1 47 -4 53 -26z m5123 14 c19 -7
21 -30 4 -41 -7 -4 -35 -10 -63 -14 -27 -3 -57 -9 -66 -13 -11 -5 -21 3 -35
29 -17 31 -17 37 -4 46 15 10 133 5 164 -7z m-5824 -20 c19 -49 13 -64 -24
-64 -33 0 -47 13 -39 38 3 6 13 12 24 12 10 0 19 5 19 11 0 6 -9 8 -20 4 -19
-6 -27 5 -13 18 15 16 44 6 53 -19z m227 11 c-12 -9 -17 -23 -15 -41 2 -15 -2
-29 -9 -31 -9 -3 -13 9 -13 41 0 44 1 46 28 46 25 -1 26 -2 9 -15z m9741 -51
c31 -22 28 -35 -19 -71 -39 -31 -43 -31 -70 -18 -37 20 -57 19 -102 -5 -20
-11 -47 -20 -59 -20 -21 0 -58 26 -58 40 0 4 33 13 74 20 50 8 89 22 118 41
48 32 83 36 116 13z m-11673 -315 c61 -3 128 -3 150 2 22 4 88 10 147 14 99 6
108 5 127 -14 39 -39 17 -116 -37 -126 -12 -2 -27 -7 -33 -11 -6 -4 -64 -7
-128 -9 -90 -1 -124 -5 -151 -20 -19 -10 -38 -23 -42 -28 -4 -8 -13 -6 -25 5
-10 9 -31 22 -47 28 -46 17 -66 -8 -68 -89 -3 -122 -16 142 -15 314 1 151 1
154 6 50 l6 -110 110 -6z m2548 194 c-13 -2 -33 -2 -45 0 -13 2 -3 4 22 4 25
0 35 -2 23 -4z m4542 -203 c53 -11 99 -20 101 -20 2 0 4 -4 4 -10 0 -5 -20
-10 -44 -10 -24 0 -78 -7 -121 -16 -71 -15 -83 -15 -163 1 -184 36 -152 64 84
73 23 1 86 -7 139 -18z m-4302 3 c-13 -2 -33 -2 -45 0 -13 2 -3 4 22 4 25 0
35 -2 23 -4z m-1333 -51 c36 -18 61 -39 74 -61 20 -34 20 -34 -2 -51 -29 -24
-61 -15 -116 30 -26 22 -55 42 -66 45 -24 7 -33 34 -19 51 18 22 69 16 129
-14z m1653 11 c-13 -2 -33 -2 -45 0 -13 2 -3 4 22 4 25 0 35 -2 23 -4z m-1067
-96 c24 -24 -91 -38 -141 -18 -18 8 -16 10 15 19 34 11 115 10 126 -1z m-2139
-444 c-1 -43 -3 -8 -3 77 0 85 2 120 3 78 2 -43 2 -113 0 -155z m6286 60 c-35
-2 -91 -2 -125 0 -35 2 -7 3 62 3 69 0 97 -1 63 -3z m-1555 -66 c2 -10 -2 -31
-8 -47 -21 -50 -61 -49 -79 2 -16 46 1 70 47 66 26 -2 38 -8 40 -21z m-4185
-334 c-24 -2 -62 -2 -85 0 -24 2 -5 4 42 4 47 0 66 -2 43 -4z m5714 -1199 c1
-20 0 -22 -4 -6 -6 31 -30 27 -69 -12 -26 -26 -34 -43 -34 -69 0 -30 3 -34 20
-30 22 6 70 58 70 75 0 6 3 9 6 6 19 -19 -55 -98 -91 -98 -52 0 -2 136 59 160
31 13 41 7 43 -26z"/>
<path d="M8816 12454 c-9 -23 -8 -24 14 -24 11 0 20 2 20 4 0 12 -13 36 -20
36 -4 0 -11 -7 -14 -16z"/>
<path d="M9020 12446 c0 -50 10 -62 40 -46 24 13 26 52 4 74 -29 29 -44 20
-44 -28z"/>
<path d="M9167 12453 c-12 -12 -7 -33 8 -33 17 0 19 9 7 28 -5 7 -11 9 -15 5z"/>
<path d="M9272 12458 c2 -15 10 -23 23 -23 30 0 27 39 -3 43 -20 3 -23 0 -20
-20z"/>
<path d="M9627 12443 c-13 -12 -7 -43 8 -43 8 0 15 6 15 13 0 18 -15 38 -23
30z"/>
<path d="M9732 12443 c2 -10 10 -18 18 -18 8 0 16 8 18 18 2 12 -3 17 -18 17
-15 0 -20 -5 -18 -17z"/>
<path d="M9950 11853 c0 -52 11 -65 50 -61 42 4 58 27 44 65 -8 24 -16 28 -52
31 l-42 3 0 -38z"/>
<path d="M10740 11820 l0 -50 45 0 c39 0 47 4 57 25 9 19 8 29 -6 50 -13 20
-25 25 -56 25 l-40 0 0 -50z"/>
<path d="M8932 11058 c-26 -26 -13 -38 43 -38 58 0 66 7 37 33 -22 20 -63 22
-80 5z"/>
<path d="M9462 11033 l-27 -28 64 -3 c35 -2 66 0 70 3 8 9 -46 55 -65 55 -8 0
-27 -12 -42 -27z"/>
<path d="M9440 10975 c0 -24 27 -72 45 -79 46 -17 81 7 87 59 l3 30 -67 3
c-57 2 -68 0 -68 -13z"/>
<path d="M9846 11028 c-21 -30 -20 -91 2 -116 27 -32 55 -35 87 -11 24 20 27
27 22 68 -8 73 -76 109 -111 59z"/>
<path d="M10241 11031 c-44 -44 -13 -151 45 -151 13 0 34 10 45 21 17 17 20
30 16 66 -5 50 -19 69 -59 78 -19 5 -32 1 -47 -14z"/>
<path d="M10949 11021 c-35 -28 -33 -95 4 -127 34 -29 48 -30 78 -5 35 28 32
96 -5 128 -33 28 -47 29 -77 4z"/>
<path d="M10335 10420 c-9 -15 4 -50 20 -50 19 0 27 17 20 40 -7 21 -30 27
-40 10z"/>
<path d="M11107 10423 c-12 -12 -7 -40 9 -54 20 -16 33 1 26 37 -4 23 -21 31
-35 17z"/>
<path d="M11517 10424 c-11 -11 -8 -52 4 -60 10 -6 28 11 29 27 0 13 -26 40
-33 33z"/>
<path d="M13550 10441 c0 -15 6 -21 21 -21 14 0 19 5 17 17 -5 26 -38 29 -38
4z"/>
<path d="M13550 10375 c0 -22 4 -26 23 -23 14 2 22 10 22 23 0 13 -8 21 -22
23 -19 3 -23 -1 -23 -23z"/>
<path d="M8615 10440 c-9 -15 -1 -23 21 -18 15 3 16 4 1 16 -11 9 -17 10 -22
2z"/>
<path d="M8794 10427 c-7 -20 14 -59 29 -54 20 6 15 61 -6 65 -9 2 -20 -3 -23
-11z"/>
<path d="M8943 10388 c2 -7 10 -13 17 -13 7 0 15 6 18 13 2 7 -5 12 -18 12
-13 0 -20 -5 -17 -12z"/>
<path d="M9275 10430 c-3 -5 3 -10 15 -10 12 0 18 5 15 10 -3 6 -10 10 -15 10
-5 0 -12 -4 -15 -10z"/>
<path d="M9670 10385 c0 -8 7 -15 15 -15 8 0 15 7 15 15 0 8 -7 15 -15 15 -8
0 -15 -7 -15 -15z"/>
<path d="M10001 10391 c-10 -7 -10 -10 -1 -16 6 -4 16 -3 22 3 13 13 -4 23
-21 13z"/>
<path d="M10190 10400 c0 -23 4 -30 20 -30 16 0 20 7 20 30 0 23 -4 30 -20 30
-16 0 -20 -7 -20 -30z"/>
<path d="M10435 10420 c-3 -5 3 -10 14 -10 12 0 21 5 21 10 0 6 -6 10 -14 10
-8 0 -18 -4 -21 -10z"/>
<path d="M10633 10414 c-7 -20 9 -49 28 -49 22 0 18 59 -4 63 -9 2 -20 -4 -24
-14z"/>
<path d="M10830 10374 c0 -9 5 -14 12 -12 18 6 21 28 4 28 -9 0 -16 -7 -16
-16z"/>
<path d="M11410 10374 c0 -9 5 -14 12 -12 18 6 21 28 4 28 -9 0 -16 -7 -16
-16z"/>
<path d="M11717 10423 c-4 -3 -7 -19 -7 -35 0 -23 4 -29 18 -26 21 4 28 41 9
56 -8 7 -17 9 -20 5z"/>
<path d="M11811 10381 c-10 -7 -10 -10 -1 -16 6 -4 16 -3 22 3 13 13 -4 23
-21 13z"/>
<path d="M11960 10410 c0 -5 9 -10 21 -10 11 0 17 5 14 10 -3 6 -13 10 -21 10
-8 0 -14 -4 -14 -10z"/>
<path d="M12310 10370 c0 -5 9 -10 20 -10 11 0 20 5 20 10 0 6 -9 10 -20 10
-11 0 -20 -4 -20 -10z"/>
<path d="M12472 10369 c2 -6 8 -10 13 -10 5 0 11 4 13 10 2 6 -4 11 -13 11 -9
0 -15 -5 -13 -11z"/>
<path d="M12702 10369 c2 -6 8 -10 13 -10 5 0 11 4 13 10 2 6 -4 11 -13 11 -9
0 -15 -5 -13 -11z"/>
<path d="M12893 10404 c-7 -18 6 -45 26 -52 9 -3 11 6 9 29 -3 36 -24 50 -35
23z"/>
<path d="M13175 10371 c-3 -5 -1 -12 5 -16 12 -7 30 2 30 16 0 12 -27 12 -35
0z"/>
<path d="M13410 10365 c0 -8 7 -15 15 -15 8 0 15 7 15 15 0 8 -7 15 -15 15 -8
0 -15 -7 -15 -15z"/>
<path d="M13667 10373 c-12 -11 -8 -23 8 -23 8 0 15 7 15 15 0 16 -12 20 -23
8z"/>
<path d="M13815 10360 c3 -5 13 -10 21 -10 8 0 14 5 14 10 0 6 -9 10 -21 10
-11 0 -17 -4 -14 -10z"/>
<path d="M10353 10124 c-7 -18 8 -49 23 -49 5 0 10 15 12 33 2 24 -1 32 -13
32 -8 0 -18 -7 -22 -16z"/>
<path d="M10496 10125 c-8 -21 11 -58 27 -52 19 6 15 61 -4 65 -9 2 -19 -4
-23 -13z"/>
<path d="M10782 10108 c4 -43 33 -46 33 -3 0 21 -5 31 -18 33 -15 3 -18 -2
-15 -30z"/>
<path d="M12807 10161 c-8 -31 7 -86 23 -86 10 0 16 13 18 38 5 53 -29 92 -41
48z"/>
<path d="M13015 10121 c-6 -11 9 -23 19 -14 9 9 7 23 -3 23 -6 0 -12 -4 -16
-9z"/>
<path d="M13287 10174 c-11 -11 -8 -63 3 -85 19 -35 31 -21 28 33 -3 48 -15
68 -31 52z"/>
<path d="M9010 10130 c0 -5 9 -10 21 -10 11 0 17 5 14 10 -3 6 -13 10 -21 10
-8 0 -14 -4 -14 -10z"/>
<path d="M9200 10130 c0 -5 9 -10 20 -10 11 0 20 5 20 10 0 6 -9 10 -20 10
-11 0 -20 -4 -20 -10z"/>
<path d="M9562 10089 c2 -6 8 -10 13 -10 5 0 11 4 13 10 2 6 -4 11 -13 11 -9
0 -15 -5 -13 -11z"/>
<path d="M9707 10133 c-12 -11 -8 -40 7 -52 10 -9 16 -8 25 3 23 27 -8 74 -32
49z"/>
<path d="M9805 10130 c-3 -5 3 -10 14 -10 12 0 21 5 21 10 0 6 -6 10 -14 10
-8 0 -18 -4 -21 -10z"/>
<path d="M9995 10130 c-3 -5 3 -10 15 -10 12 0 18 5 15 10 -3 6 -10 10 -15 10
-5 0 -12 -4 -15 -10z"/>
<path d="M10210 10091 c0 -18 18 -21 30 -6 10 13 9 15 -9 15 -11 0 -21 -4 -21
-9z"/>
<path d="M10885 10091 c-6 -11 9 -23 19 -14 9 9 7 23 -3 23 -6 0 -12 -4 -16
-9z"/>
<path d="M11735 10091 c-7 -12 12 -24 25 -16 11 7 4 25 -10 25 -5 0 -11 -4
-15 -9z"/>
<path d="M12177 10094 c-8 -8 1 -24 14 -24 5 0 9 7 9 15 0 15 -12 20 -23 9z"/>
<path d="M12315 10091 c-7 -12 12 -24 25 -16 11 7 4 25 -10 25 -5 0 -11 -4
-15 -9z"/>
<path d="M12477 10093 c-12 -11 -8 -23 8 -23 8 0 15 7 15 15 0 16 -12 20 -23
8z"/>
<path d="M11782 9303 c-5 -10 -6 -38 -2 -63 7 -43 8 -44 9 -10 2 19 4 47 6 63
4 31 0 35 -13 10z"/>
<path d="M11252 9275 c-1 -41 16 -99 17 -62 1 22 17 22 25 1 4 -9 9 -14 12
-11 3 3 0 14 -7 25 -10 17 -10 23 0 36 8 9 10 16 6 16 -4 0 -14 -8 -20 -17
-12 -16 -14 -14 -23 17 l-10 35 0 -40z"/>
<path d="M11361 9283 c1 -16 4 -41 8 -58 6 -28 7 -28 13 -7 4 13 14 22 26 22
16 0 32 17 32 35 0 13 -36 35 -56 35 -20 0 -24 -5 -23 -27z m43 11 c24 -9 20
-44 -4 -44 -15 0 -20 7 -20 25 0 27 1 28 24 19z"/>
<path d="M11655 9300 c3 -6 -5 -14 -19 -20 -43 -16 -30 -80 16 -80 15 0 18 9
18 55 0 32 -4 55 -11 55 -5 0 -7 -5 -4 -10z m0 -60 c0 -13 -6 -25 -12 -27 -16
-6 -27 21 -19 43 9 23 31 11 31 -16z"/>
<path d="M11088 9275 c-21 -46 23 -103 57 -75 8 7 15 17 15 22 0 5 -7 3 -15
-6 -25 -24 -45 -9 -45 35 0 31 4 39 18 39 10 0 24 -6 31 -12 10 -11 11 -10 6
5 -11 27 -53 22 -67 -8z"/>
<path d="M11824 9269 c3 -17 6 -40 6 -50 0 -11 3 -19 8 -19 4 0 5 22 4 50 -2
27 -9 50 -14 50 -6 0 -8 -12 -4 -31z"/>
<path d="M11883 9283 c-21 -8 -15 -22 7 -16 11 3 20 1 20 -5 0 -5 -9 -12 -21
-15 -31 -8 -21 -41 14 -45 21 -3 27 1 27 15 -1 50 -19 76 -47 66z m25 -54 c-2
-6 -8 -10 -13 -10 -5 0 -11 4 -13 10 -2 6 4 11 13 11 9 0 15 -5 13 -11z"/>
<path d="M11963 9283 c-8 -3 -12 -21 -11 -46 1 -41 1 -41 5 -7 3 19 10 38 16
42 14 9 6 17 -10 11z"/>
<path d="M12005 9281 c-3 -5 5 -12 17 -14 l23 -4 -22 -8 c-27 -9 -36 -30 -19
-44 21 -18 46 -2 46 28 0 38 -30 66 -45 42z m35 -51 c0 -5 -7 -10 -15 -10 -8
0 -15 5 -15 10 0 6 7 10 15 10 8 0 15 -4 15 -10z"/>
<path d="M12070 9249 c0 -22 5 -39 11 -39 7 0 9 10 7 25 -3 14 1 30 8 36 15
12 19 6 28 -41 2 -14 3 -7 3 15 -2 36 -5 40 -29 41 -26 1 -28 -2 -28 -37z"/>
<path d="M11187 9273 c-12 -12 -7 -60 7 -73 11 -8 20 -9 33 -1 16 9 15 10 -9
11 -16 0 -28 5 -28 10 0 6 9 10 19 10 26 0 36 17 21 35 -13 16 -32 19 -43 8z
m33 -13 c0 -5 -7 -10 -16 -10 -8 0 -12 5 -9 10 3 6 10 10 16 10 5 0 9 -4 9
-10z"/>
<path d="M11462 9268 c-27 -27 -2 -75 35 -65 14 4 13 5 -4 6 -29 1 -31 31 -2
31 14 0 19 5 17 17 -4 22 -29 28 -46 11z m38 -8 c0 -5 -9 -10 -21 -10 -11 0
-17 5 -14 10 3 6 13 10 21 10 8 0 14 -4 14 -10z"/>
<path d="M11530 9241 c0 -23 3 -41 8 -41 4 0 7 15 7 33 0 45 28 43 37 -3 l6
-35 -1 40 c-2 36 -5 40 -29 43 -27 3 -28 1 -28 -37z"/>
<path d="M11695 9270 c-5 -9 -1 -10 13 -6 11 4 23 3 26 -3 3 -5 -6 -12 -20
-15 -35 -9 -28 -40 9 -44 27 -3 28 -2 25 35 -2 30 -7 39 -25 41 -11 2 -24 -2
-28 -8z m43 -42 c-6 -18 -28 -21 -28 -4 0 9 7 16 16 16 9 0 14 -5 12 -12z"/>
<path d="M9280 9200 c0 -5 5 -10 10 -10 6 0 10 5 10 10 0 6 -4 10 -10 10 -5 0
-10 -4 -10 -10z"/>
<path d="M9528 9233 c7 -3 16 -2 19 1 4 3 -2 6 -13 5 -11 0 -14 -3 -6 -6z"/>
<path d="M9010 9225 c0 -24 5 -35 15 -35 10 0 15 11 15 35 0 24 -5 35 -15 35
-10 0 -15 -11 -15 -35z"/>
<path d="M9960 9225 c0 -14 5 -25 10 -25 6 0 10 11 10 25 0 14 -4 25 -10 25
-5 0 -10 -11 -10 -25z"/>
<path d="M9805 9210 c-3 -5 -1 -10 4 -10 6 0 11 5 11 10 0 6 -2 10 -4 10 -3 0
-8 -4 -11 -10z"/>
<path d="M9105 9200 c-3 -5 -1 -10 4 -10 6 0 11 5 11 10 0 6 -2 10 -4 10 -3 0
-8 -4 -11 -10z"/>
<path d="M7538 15072 c-26 -3 -28 -7 -28 -45 0 -62 48 -154 105 -205 93 -82
209 -89 292 -17 40 34 79 107 84 155 4 50 -1 110 -11 110 -5 0 -7 -7 -4 -15 4
-10 0 -15 -14 -15 -11 0 -23 6 -25 13 -3 6 -6 -9 -6 -35 -1 -26 -5 -58 -10
-71 -6 -14 -7 -28 -3 -31 3 -4 8 -17 9 -31 2 -16 -2 -25 -16 -30 -12 -4 -17
-12 -14 -24 6 -24 -67 -61 -121 -61 -48 0 -153 47 -139 61 8 8 18 7 34 -2 13
-7 26 -14 29 -15 3 0 13 -4 23 -9 35 -15 157 19 157 45 0 14 -13 12 -46 -5
-40 -21 -110 -19 -148 4 -17 10 -48 22 -68 25 -36 7 -36 7 -36 54 0 26 -4 70
-8 97 -8 47 -11 50 -36 47z m12 -42 c0 -5 -7 -10 -15 -10 -8 0 -15 5 -15 10 0
6 7 10 15 10 8 0 15 -4 15 -10z m425 -30 c3 -5 -1 -10 -9 -10 -9 0 -16 5 -16
10 0 6 4 10 9 10 6 0 13 -4 16 -10z m-10 -60 c3 -5 1 -10 -4 -10 -6 0 -11 5
-11 10 0 6 2 10 4 10 3 0 8 -4 11 -10z m-325 -88 c0 -13 -12 -22 -22 -16 -10
6 -1 24 13 24 5 0 9 -4 9 -8z"/>
<path d="M8121 15024 c-53 -38 -67 -147 -28 -224 26 -52 77 -90 121 -90 17 -1
220 -14 451 -30 400 -27 422 -27 454 -11 106 53 86 258 -29 303 -25 9 -784 67
-890 68 -36 0 -64 -6 -79 -16z m122 -51 c4 -3 33 -6 66 -5 l59 1 6 -37 c3 -20
6 -58 6 -84 0 -41 3 -48 20 -48 17 0 19 8 22 78 l3 77 36 3 c47 4 57 -10 62
-83 l3 -60 2 68 2 67 40 0 c27 0 43 -5 47 -15 5 -14 8 -14 24 1 20 18 68 12
81 -9 5 -9 10 -9 20 1 17 17 63 15 78 -3 9 -11 16 -13 24 -5 13 13 73 13 81 0
5 -8 11 -7 20 0 15 13 71 5 93 -12 8 -7 12 -7 12 2 0 6 8 10 18 8 14 -3 18
-18 23 -98 3 -52 3 -98 0 -102 -4 -4 -23 -5 -44 -1 -34 5 -37 8 -37 39 0 18
-4 36 -10 39 -6 4 -10 -10 -10 -34 0 -40 0 -40 -37 -39 -44 1 -53 11 -53 56 0
22 -4 31 -11 26 -6 -4 -9 -19 -5 -36 6 -33 -14 -48 -38 -29 -10 8 -16 9 -21 1
-7 -11 -58 -14 -69 -3 -4 4 -19 7 -34 8 -24 0 -27 4 -30 38 -4 50 -22 48 -22
-3 0 -28 -4 -40 -14 -40 -8 0 -16 6 -19 13 -3 9 -7 9 -18 0 -15 -12 -54 -8
-76 9 -7 5 -14 5 -18 -2 -14 -23 -35 -10 -35 23 0 17 -5 39 -10 47 -10 16 -11
14 -13 -40 -2 -29 -6 -35 -22 -33 -11 1 -49 3 -85 4 -94 3 -97 6 -106 98 -5
64 -9 78 -21 74 -12 -5 -14 -22 -11 -82 3 -70 2 -76 -17 -76 -18 0 -20 8 -23
83 -2 64 -6 82 -17 82 -8 0 -15 9 -15 20 0 17 7 20 43 20 24 0 47 -3 50 -7z"/>
<path d="M8292 14914 c1 -9 13 -21 26 -25 20 -8 23 -6 20 14 -2 14 -11 23 -26
25 -18 3 -23 -1 -20 -14z"/>
<path d="M8460 14900 c0 -11 5 -20 10 -20 6 0 10 9 10 20 0 11 -4 20 -10 20
-5 0 -10 -9 -10 -20z"/>
<path d="M8570 14853 c0 -38 4 -63 10 -63 7 0 8 13 4 36 -7 36 -6 37 20 32 20
-4 26 -1 26 13 0 12 -5 16 -15 12 -9 -3 -22 2 -30 13 -13 17 -14 13 -15 -43z"/>
<path d="M8670 14880 c0 -11 5 -20 10 -20 6 0 10 9 10 20 0 11 -4 20 -10 20
-5 0 -10 -9 -10 -20z"/>
<path d="M8781 14885 c0 -11 13 -30 30 -43 l29 -24 0 26 c0 19 -5 26 -20 26
-10 0 -24 8 -29 18 -10 16 -10 15 -10 -3z"/>
<path d="M8880 14870 c0 -11 5 -20 10 -20 6 0 10 9 10 20 0 11 -4 20 -10 20
-5 0 -10 -9 -10 -20z"/>
<path d="M8987 14860 c3 -11 7 -20 9 -20 2 0 4 9 4 20 0 11 -4 20 -9 20 -5 0
-7 -9 -4 -20z"/>
<path d="M8730 14832 c0 -25 4 -32 20 -32 11 0 23 -7 26 -15 4 -8 10 -15 15
-15 19 0 7 28 -26 60 l-35 34 0 -32z"/>
<path d="M8300 14830 c0 -11 2 -20 4 -20 2 0 11 -3 20 -6 12 -5 16 0 16 20 0
19 -5 26 -20 26 -13 0 -20 -7 -20 -20z"/>
<path d="M12820 14719 c0 -18 -5 -21 -30 -17 -17 3 -30 0 -30 -6 0 -6 16 -11
35 -11 32 0 35 3 35 28 0 15 -2 27 -5 27 -3 0 -5 -10 -5 -21z"/>
<path d="M12865 14700 c-3 -6 1 -7 9 -4 18 7 21 14 7 14 -6 0 -13 -4 -16 -10z"/>
<path d="M12975 14690 c3 -5 8 -10 11 -10 2 0 4 5 4 10 0 6 -5 10 -11 10 -5 0
-7 -4 -4 -10z"/>
<path d="M13681 14654 c0 -11 3 -14 6 -6 3 7 2 16 -1 19 -3 4 -6 -2 -5 -13z"/>
<path d="M13360 14629 c0 -5 5 -7 10 -4 6 3 10 8 10 11 0 2 -4 4 -10 4 -5 0
-10 -5 -10 -11z"/>
<path d="M14170 14636 c0 -2 7 -7 16 -10 8 -3 12 -2 9 4 -6 10 -25 14 -25 6z"/>
<path d="M14653 14603 c9 -2 23 -2 30 0 6 3 -1 5 -18 5 -16 0 -22 -2 -12 -5z"/>
<path d="M13548 14593 c7 -3 16 -2 19 1 4 3 -2 6 -13 5 -11 0 -14 -3 -6 -6z"/>
<path d="M14880 14586 c0 -2 11 -6 25 -8 13 -3 22 -1 19 3 -5 9 -44 13 -44 5z"/>
<path d="M14392 14555 c0 -16 2 -22 5 -12 2 9 2 23 0 30 -3 6 -5 -1 -5 -18z"/>
<path d="M15196 14561 c-4 -5 3 -7 14 -4 23 6 26 13 6 13 -8 0 -17 -4 -20 -9z"/>
<path d="M14658 14553 c6 -2 18 -2 25 0 6 3 1 5 -13 5 -14 0 -19 -2 -12 -5z"/>
<path d="M14288 14543 c7 -3 16 -2 19 1 4 3 -2 6 -13 5 -11 0 -14 -3 -6 -6z"/>
<path d="M14750 14536 c0 -2 11 -6 25 -8 14 -3 25 -1 25 3 0 5 -11 9 -25 9
-14 0 -25 -2 -25 -4z"/>
<path d="M15625 14510 c4 -6 11 -8 16 -5 14 9 11 15 -7 15 -8 0 -12 -5 -9 -10z"/>
<path d="M14368 14503 c7 -3 16 -2 19 1 4 3 -2 6 -13 5 -11 0 -14 -3 -6 -6z"/>
<path d="M15521 14494 c0 -11 3 -14 6 -6 3 7 2 16 -1 19 -3 4 -6 -2 -5 -13z"/>
<path d="M15218 14473 c7 -3 16 -2 19 1 4 3 -2 6 -13 5 -11 0 -14 -3 -6 -6z"/>
<path d="M15298 14473 c6 -2 18 -2 25 0 6 3 1 5 -13 5 -14 0 -19 -2 -12 -5z"/>
<path d="M15578 14453 c7 -3 16 -2 19 1 4 3 -2 6 -13 5 -11 0 -14 -3 -6 -6z"/>
<path d="M18683 13663 c-9 -3 -10 -10 -3 -24 10 -19 40 -27 40 -11 0 16 -25
40 -37 35z"/>
<path d="M13546 6610 c-46 -18 -54 -18 -104 -5 -51 13 -58 13 -94 -6 -99 -51
-103 -237 -7 -376 52 -75 78 -84 156 -52 26 11 41 11 82 0 65 -16 81 -7 120
71 37 72 38 84 10 98 -25 14 -59 84 -59 125 0 17 11 49 24 72 22 39 23 43 8
57 -16 14 -66 36 -80 36 -4 -1 -29 -10 -56 -20z"/>
<path d="M14228 6573 c6 -2 18 -2 25 0 6 3 1 5 -13 5 -14 0 -19 -2 -12 -5z"/>
<path d="M11440 6440 c-14 -4 309 -8 718 -9 488 -1 742 2 742 9 0 12 -1422 12
-1460 0z"/>
<path d="M15345 4155 c-33 -8 -136 -21 -230 -29 -230 -21 -1393 -126 -2185
-196 -250 -22 -576 -52 -725 -66 -224 -22 -303 -25 -465 -21 -192 6 -344 27
-398 56 -29 15 -20 -9 10 -28 117 -73 413 -88 898 -46 302 26 945 84 1220 110
231 22 881 81 1155 105 577 51 710 67 767 96 74 38 61 43 -47 19z"/>
</g>
</svg>
