<?xml version="1.0" encoding="utf-8"?>
<!-- Generator: Adobe Illustrator 27.5.0, SVG Export Plug-In . SVG Version: 6.00 Build 0)  -->
<svg version="1.1" xmlns="http://www.w3.org/2000/svg" xmlns:xlink="http://www.w3.org/1999/xlink" x="0px" y="0px"
	 viewBox="0 0 500 500" style="enable-background:new 0 0 500 500;" xml:space="preserve">
<g id="BACKGROUND">
	<rect style="fill:#FFFFFF;" width="500" height="500"/>
</g>
<g id="OBJECTS">
	<g>
		<g>
			<rect x="250.743" y="224.038" style="fill:#98A9C9;" width="29.383" height="15.281"/>
			<path style="fill:#CBD4E6;" d="M282.667,239.318h-17.233h-17.233c-1.568,0-3.004,0.989-3.528,2.547h20.761h20.761
				C285.671,240.307,284.235,239.318,282.667,239.318z"/>
			<path style="fill:#CBD4E6;" d="M327.828,169.081H203.04c-0.961,0-1.74,0.779-1.74,1.74v58.713c0,0.961,0.779,1.74,1.74,1.74
				h124.788c0.961,0,1.74-0.779,1.74-1.74v-58.713C329.569,169.861,328.789,169.081,327.828,169.081z"/>
			<g>
				<g>
					<polygon style="fill:#E8A3B6;" points="325.712,200.313 325.712,172.567 205.156,172.567 205.156,172.567 205.156,200.313 
											"/>
					<rect x="205.156" y="200.313" style="fill:#5E7AF4;" width="120.556" height="23.725"/>
				</g>
				<rect x="205.156" y="224.038" style="fill:#3655CD;" width="120.556" height="3.753"/>
			</g>
			<g>
				<g>
					<path style="fill:#5E7AF4;" d="M272.49,182.485h-57.896c-0.762,0-1.379,0.617-1.379,1.379v2.017h60.654v-2.017
						C273.868,183.103,273.251,182.485,272.49,182.485z"/>
					<path style="fill:#FFFFFF;" d="M213.215,216.493c0,0.762,0.617,1.379,1.379,1.379h57.896c0.762,0,1.379-0.617,1.379-1.379
						v-30.612h-60.654V216.493z"/>
					<path style="fill:#5E7AF4;" d="M317.653,183.864c0-0.762-0.617-1.379-1.379-1.379h-35.465c-0.762,0-1.379,0.617-1.379,1.379
						v2.017h38.223V183.864z"/>
					<path style="fill:#FFFFFF;" d="M279.43,185.881v30.612c0,0.762,0.617,1.379,1.379,1.379h35.465
						c0.762,0,1.379-0.617,1.379-1.379v-30.612H279.43z"/>
				</g>
				<g>
					<circle style="fill:#EAEDF7;" cx="215.805" cy="184.183" r="0.637"/>
					<circle style="fill:#EAEDF7;" cx="218.302" cy="184.183" r="0.637"/>
					<circle style="fill:#EAEDF7;" cx="220.798" cy="184.183" r="0.637"/>
				</g>
				<g>
					<path style="fill:#EAEDF7;" d="M282.545,184.183c0-0.352-0.285-0.637-0.637-0.637c-0.352,0-0.637,0.285-0.637,0.637
						c0,0.352,0.285,0.637,0.637,0.637C282.26,184.82,282.545,184.535,282.545,184.183z"/>
					<path style="fill:#EAEDF7;" d="M285.042,184.183c0-0.352-0.285-0.637-0.637-0.637c-0.352,0-0.637,0.285-0.637,0.637
						c0,0.352,0.285,0.637,0.637,0.637C284.757,184.82,285.042,184.535,285.042,184.183z"/>
					<path style="fill:#EAEDF7;" d="M287.538,184.183c0-0.352-0.285-0.637-0.637-0.637c-0.352,0-0.637,0.285-0.637,0.637
						c0,0.352,0.285,0.637,0.637,0.637C287.253,184.82,287.538,184.535,287.538,184.183z"/>
				</g>
				<g>
					<path style="fill:#EAEDF7;" d="M269.22,214.119h-19.905c-0.759,0-1.374-0.615-1.374-1.374v-5.965
						c0-0.759,0.615-1.374,1.374-1.374h19.905c0.759,0,1.374,0.615,1.374,1.374v5.965
						C270.594,213.503,269.978,214.119,269.22,214.119z"/>
					<g>
						<g>
							<path style="fill:#EAEDF7;" d="M243.63,214.119h-25.814c-0.759,0-1.374-0.615-1.374-1.374v-21.781
								c0-0.759,0.615-1.374,1.374-1.374h25.814c0.759,0,1.374,0.615,1.374,1.374v21.781
								C245.004,213.503,244.389,214.119,243.63,214.119z"/>
							<path style="fill:#EAEDF7;" d="M269.22,202.591h-19.905c-0.759,0-1.374-0.615-1.374-1.374v-10.254
								c0-0.759,0.615-1.374,1.374-1.374h19.905c0.759,0,1.374,0.615,1.374,1.374v10.254
								C270.594,201.976,269.978,202.591,269.22,202.591z"/>
						</g>
						<g>
							<path style="fill:#CBD4E6;" d="M267.917,193.778h-17.299c-0.255,0-0.461-0.207-0.461-0.461v-0.518
								c0-0.255,0.207-0.461,0.461-0.461h17.299c0.255,0,0.461,0.207,0.461,0.461v0.518
								C268.378,193.572,268.171,193.778,267.917,193.778z"/>
							<path style="fill:#CBD4E6;" d="M261.379,197.045h-10.855c-0.203,0-0.368-0.165-0.368-0.368v-0.705
								c0-0.203,0.165-0.368,0.368-0.368h10.855c0.203,0,0.368,0.165,0.368,0.368v0.705
								C261.747,196.881,261.582,197.045,261.379,197.045z"/>
							<path style="fill:#CBD4E6;" d="M264.614,200.313h-14.041c-0.23,0-0.417-0.187-0.417-0.417v-0.607
								c0-0.23,0.187-0.417,0.417-0.417h14.041c0.23,0,0.417,0.187,0.417,0.417v0.607
								C265.031,200.126,264.844,200.313,264.614,200.313z"/>
						</g>
						<g>
							<path style="fill:#CBD4E6;" d="M242.253,193.778h-22.787c-0.291,0-0.528-0.236-0.528-0.528v-0.385
								c0-0.292,0.236-0.528,0.528-0.528h22.787c0.292,0,0.528,0.236,0.528,0.528v0.385
								C242.78,193.542,242.544,193.778,242.253,193.778z"/>
							<path style="fill:#CBD4E6;" d="M242.253,197.045h-22.787c-0.291,0-0.528-0.236-0.528-0.528v-0.385
								c0-0.292,0.236-0.528,0.528-0.528h22.787c0.292,0,0.528,0.236,0.528,0.528v0.385
								C242.78,196.809,242.544,197.045,242.253,197.045z"/>
							<path style="fill:#CBD4E6;" d="M231.402,200.313h-12.076c-0.214,0-0.387-0.174-0.387-0.388v-0.666
								c0-0.214,0.173-0.387,0.387-0.387h12.076c0.214,0,0.387,0.174,0.387,0.387v0.666
								C231.789,200.139,231.616,200.313,231.402,200.313z"/>
							<path style="fill:#CBD4E6;" d="M242.253,203.58h-22.787c-0.291,0-0.528-0.236-0.528-0.528v-0.385
								c0-0.291,0.236-0.528,0.528-0.528h22.787c0.292,0,0.528,0.236,0.528,0.528v0.385
								C242.78,203.344,242.544,203.58,242.253,203.58z"/>
							<path style="fill:#CBD4E6;" d="M236.822,206.847h-17.421c-0.256,0-0.463-0.207-0.463-0.463v-0.515
								c0-0.256,0.207-0.463,0.463-0.463h17.421c0.256,0,0.463,0.207,0.463,0.463v0.515
								C237.285,206.64,237.078,206.847,236.822,206.847z"/>
						</g>
					</g>
				</g>
			</g>
		</g>
		<g>
			<polygon style="fill:#5B3F33;" points="308.924,241.865 292.649,241.865 310.351,259.652 326.626,259.652 			"/>
			<polygon style="fill:#5B3F33;" points="243.626,241.865 259.901,241.865 242.199,259.652 225.924,259.652 			"/>
			<g>
				<polygon style="fill:#774E3D;" points="255.992,248.166 256.339,248.166 270.454,248.166 270.801,248.166 289.391,248.166 
					300.821,259.652 310.351,259.652 292.649,241.865 271.729,241.865 271.339,241.865 255.454,241.865 255.064,241.865 
					234.144,241.865 216.442,259.652 225.972,259.652 237.402,248.166 				"/>
				<polygon style="fill:#774E3D;" points="271.729,259.652 271.339,259.652 255.454,259.652 255.064,259.652 225.972,259.652 
					221.671,263.972 255.992,263.972 256.339,263.972 270.454,263.972 270.801,263.972 305.121,263.972 300.821,259.652 				"/>
			</g>
		</g>
	</g>
	<path style="fill:#EAEDF7;" d="M41.538,394.565c0-13.55,110.158-16.081,210.733-16.081c131.235,0,380.828,30.102,7.776,30.102
		C172.746,408.587,41.538,405.256,41.538,394.565z"/>
	<g>
		<g>
			<path style="fill:#3655CD;" d="M129.761,243.331H92.052v2.904c0,0,1.437,1.284,2.104,3.328c0.201,0.614,0.34,1.289,0.34,2.028
				c0,3.198-2.444,5.156-2.444,5.156v2.904h37.709c1.195,0,2.164-0.969,2.164-2.164v-11.992
				C131.924,244.3,130.955,243.331,129.761,243.331z"/>
			<g>
				<g>
					<path style="fill:#EAEDF7;" d="M84.248,251.592c0-0.739-0.139-1.414-0.34-2.028h36.316v8.337H82.957l-1.153-1.153
						C81.804,256.748,84.248,254.79,84.248,251.592z"/>
					<path style="fill:#BAC8CA;" d="M81.804,246.235l1.456-1.452h36.965v4.78H83.908C83.241,247.519,81.804,246.235,81.804,246.235z
						"/>
				</g>
				<path style="fill:#3655CD;" d="M81.804,246.235v-2.904h37.709c1.195,0,2.164,0.969,2.164,2.164v11.992
					c0,1.195-0.969,2.164-2.164,2.164H81.804v-2.904h36.969v-10.512H81.804z"/>
			</g>
		</g>
		<g>
			<path style="fill:#CB5176;" d="M365.494,243.331h37.709v2.904c0,0-1.437,1.284-2.104,3.328c-0.201,0.614-0.34,1.289-0.34,2.028
				c0,3.198,2.444,5.156,2.444,5.156v2.904h-37.709c-1.195,0-2.164-0.969-2.164-2.164v-11.992
				C363.33,244.3,364.299,243.331,365.494,243.331z"/>
			<g>
				<g>
					<path style="fill:#EAEDF7;" d="M411.007,251.592c0-0.739,0.139-1.414,0.34-2.028H375.03v8.337h37.268l1.153-1.153
						C413.451,256.748,411.007,254.79,411.007,251.592z"/>
					<path style="fill:#BAC8CA;" d="M413.451,246.235l-1.456-1.452H375.03v4.78h36.316
						C412.014,247.519,413.451,246.235,413.451,246.235z"/>
				</g>
				<path style="fill:#CB5176;" d="M413.451,246.235v-2.904h-37.709c-1.195,0-2.164,0.969-2.164,2.164v11.992
					c0,1.195,0.969,2.164,2.164,2.164h37.709v-2.904h-36.969v-10.512H413.451z"/>
			</g>
		</g>
		<g>
			<path style="fill:#F0CD7E;" d="M138.272,227.011h-37.709v2.904c0,0,1.437,1.284,2.104,3.328c0.201,0.614,0.34,1.289,0.34,2.028
				c0,3.198-2.444,5.156-2.444,5.156v2.904h37.709c1.195,0,2.164-0.969,2.164-2.164v-11.992
				C140.436,227.98,139.467,227.011,138.272,227.011z"/>
			<g>
				<g>
					<path style="fill:#EAEDF7;" d="M92.759,235.271c0-0.739-0.139-1.414-0.34-2.028h36.316v8.337H91.468l-1.153-1.153
						C90.315,240.428,92.759,238.469,92.759,235.271z"/>
					<path style="fill:#BAC8CA;" d="M90.315,229.915l1.456-1.452h36.965v4.78H92.419C91.752,231.199,90.315,229.915,90.315,229.915z
						"/>
				</g>
				<path style="fill:#F0CD7E;" d="M90.315,229.915v-2.904h37.709c1.195,0,2.164,0.969,2.164,2.164v11.992
					c0,1.195-0.969,2.164-2.164,2.164H90.315v-2.904h36.969v-10.512H90.315z"/>
			</g>
		</g>
	</g>
	<g>
		<g>
			<path style="fill:#373C45;" d="M430.857,390.729l0.996-119.574h-9.366l0.818,119.57c0.01,1.412,1.157,2.552,2.569,2.552h2.414
				C429.698,393.277,430.845,392.14,430.857,390.729z"/>
			
				<rect x="327.462" y="271.156" transform="matrix(-1 -1.224647e-16 1.224647e-16 -1 759.3143 547.1644)" style="fill:#373C45;" width="104.391" height="4.853"/>
			<path style="fill:#373C45;" d="M331.225,390.523l0.969-119.367h-9.465l0.839,119.365c0.01,1.412,1.158,2.552,2.57,2.552h2.518
				C330.067,393.072,331.214,391.934,331.225,390.523z"/>
			<path style="fill:#373C45;" d="M72.792,390.525l1.07-119.37h-9.465l1.454,119.378c0.017,1.407,1.163,2.538,2.569,2.538h1.803
				C71.633,393.072,72.78,391.935,72.792,390.525z"/>
			<path style="fill:#373C45;" d="M170.315,390.731l1.07-119.575h-9.465l1.454,119.583c0.017,1.407,1.162,2.538,2.569,2.538h1.803
				C169.156,393.277,170.303,392.141,170.315,390.731z"/>
			
				<rect x="64.397" y="271.156" transform="matrix(-1 -1.224647e-16 1.224647e-16 -1 391.8587 547.1644)" style="fill:#373C45;" width="263.065" height="4.853"/>
		</g>
		<g>
			
				<rect x="64.397" y="259.652" transform="matrix(-1 -1.224647e-16 1.224647e-16 -1 496.2494 530.8073)" style="fill:#87614C;" width="367.456" height="11.504"/>
			
				<rect x="327.462" y="259.652" transform="matrix(-1 -1.224647e-16 1.224647e-16 -1 759.3143 530.8073)" style="fill:#5B3F33;" width="104.391" height="11.504"/>
		</g>
	</g>
	<g>
		<g>
			<g>
				
					<rect x="52.847" y="126.144" transform="matrix(-1 -1.224647e-16 1.224647e-16 -1 167.8061 329.342)" style="fill:#EAEDF7;" width="62.113" height="77.054"/>
				<g>
					
						<rect x="69.075" y="163.151" transform="matrix(-1 -1.224647e-16 1.224647e-16 -1 167.8061 329.1004)" style="fill:#FFFFFF;" width="29.656" height="2.798"/>
					
						<rect x="62.131" y="171.735" transform="matrix(-1 -1.224647e-16 1.224647e-16 -1 167.8062 346.2684)" style="fill:#FFFFFF;" width="43.543" height="2.798"/>
					
						<rect x="62.131" y="177.814" transform="matrix(-1 -1.224647e-16 1.224647e-16 -1 167.8062 358.4259)" style="fill:#FFFFFF;" width="43.543" height="2.798"/>
					
						<rect x="62.131" y="183.893" transform="matrix(-1 -1.224647e-16 1.224647e-16 -1 167.8062 370.5834)" style="fill:#FFFFFF;" width="43.543" height="2.798"/>
					
						<rect x="62.131" y="189.972" transform="matrix(-1 -1.224647e-16 1.224647e-16 -1 167.8062 382.7409)" style="fill:#FFFFFF;" width="43.543" height="2.798"/>
					<circle style="fill:#FFFFFF;" cx="83.903" cy="147.611" r="11.038"/>
				</g>
			</g>
			<g>
				
					<rect x="136.889" y="97.413" transform="matrix(-1 -1.224647e-16 1.224647e-16 -1 311.1199 258.775)" style="fill:#EAEDF7;" width="37.341" height="63.948"/>
				<circle style="fill:#FFFFFF;" cx="155.56" cy="118.88" r="11.038"/>
			</g>
			<g>
				
					<rect x="125.83" y="172.597" transform="matrix(-1 -1.224647e-16 1.224647e-16 -1 273.7785 367.3124)" style="fill:#EAEDF7;" width="22.118" height="22.118"/>
				
					<rect x="128.151" y="174.918" transform="matrix(-1 -1.224647e-16 1.224647e-16 -1 273.7785 364.5642)" style="fill:#FFFFFF;" width="17.476" height="14.728"/>
			</g>
		</g>
		<g>
			<g>
				<g>
					
						<rect x="417.952" y="157.537" transform="matrix(-1 -1.224647e-16 1.224647e-16 -1 862.1626 360.0439)" style="fill:#EAEDF7;" width="26.259" height="44.97"/>
					<circle style="fill:#FFFFFF;" cx="431.081" cy="172.633" r="7.762"/>
				</g>
				<g>
					
						<rect x="386.38" y="127.499" transform="matrix(-1 -1.224647e-16 1.224647e-16 -1 794.8783 277.1167)" style="fill:#EAEDF7;" width="22.118" height="22.118"/>
					
						<rect x="388.701" y="129.82" transform="matrix(-1 -1.224647e-16 1.224647e-16 -1 794.8783 274.3686)" style="fill:#FFFFFF;" width="17.476" height="14.728"/>
				</g>
				<g>
					
						<rect x="356.124" y="180.388" transform="matrix(-1 -1.224647e-16 1.224647e-16 -1 734.3663 382.8951)" style="fill:#EAEDF7;" width="22.118" height="22.118"/>
					
						<rect x="358.445" y="182.71" transform="matrix(-1 -1.224647e-16 1.224647e-16 -1 734.3663 380.147)" style="fill:#FFFFFF;" width="17.476" height="14.728"/>
				</g>
				<g>
					
						<rect x="355.966" y="150.768" transform="matrix(-1 -1.224647e-16 1.224647e-16 -1 734.0503 323.6549)" style="fill:#EAEDF7;" width="22.118" height="22.118"/>
					
						<rect x="358.287" y="153.089" transform="matrix(-1 -1.224647e-16 1.224647e-16 -1 734.0503 320.9067)" style="fill:#FFFFFF;" width="17.476" height="14.728"/>
				</g>
			</g>
			<g>
				
					<rect x="306.609" y="98.857" transform="matrix(-1 -1.224647e-16 1.224647e-16 -1 645.4992 237.7608)" style="fill:#EAEDF7;" width="32.281" height="40.047"/>
				<g>
					
						<rect x="315.043" y="118.091" transform="matrix(-1 -1.224647e-16 1.224647e-16 -1 645.4992 237.6352)" style="fill:#FFFFFF;" width="15.413" height="1.454"/>
					
						<rect x="311.434" y="122.552" transform="matrix(-1 -1.224647e-16 1.224647e-16 -1 645.4992 246.5579)" style="fill:#FFFFFF;" width="22.63" height="1.454"/>
					
						<rect x="311.434" y="125.711" transform="matrix(-1 -1.224647e-16 1.224647e-16 -1 645.4992 252.8764)" style="fill:#FFFFFF;" width="22.63" height="1.454"/>
					
						<rect x="311.434" y="128.87" transform="matrix(-1 -1.224647e-16 1.224647e-16 -1 645.4992 259.1949)" style="fill:#FFFFFF;" width="22.63" height="1.454"/>
					
						<rect x="311.434" y="132.03" transform="matrix(-1 -1.224647e-16 1.224647e-16 -1 645.4992 265.5134)" style="fill:#FFFFFF;" width="22.63" height="1.454"/>
					<circle style="fill:#FFFFFF;" cx="322.75" cy="110.014" r="5.737"/>
				</g>
			</g>
		</g>
	</g>
	<g>
		<g>
			<path style="fill:#94D186;" d="M381.081,345.791h-22.856c0,0-12.68-10.645-2.505-35.224s-11.898-27.24-10.489-43.991
				c1.409-16.751,14.154-50.565,26.098-44.773c11.944,5.792,18.206,20.508,2.864,34.598c-15.342,14.09,13.307,25.361,7.828,43.364
				C376.541,317.768,406.268,313.573,381.081,345.791z"/>
			<g>
				<path style="fill:#B9EDAD;" d="M380.532,254.206l0.554,0.291c-0.045,0.085-3.217,5.872-11.353,9.352
					c0.035-0.242,0.082-0.484,0.137-0.727C377.517,259.723,380.49,254.286,380.532,254.206z"/>
				<path style="fill:#7ABA68;" d="M356.163,266.424c0.206,6.247,2.706,10.671,6.958,17.53c2.633-0.495,3.805-1.28,3.834-1.301
					l0.364,0.51c-0.12,0.086-1.285,0.875-3.821,1.397c0.16,0.258,0.31,0.5,0.475,0.765c1.455,2.341,3.106,4.994,4.902,8.071
					l-0.54,0.315c-1.792-3.07-3.44-5.718-4.893-8.055c-0.209-0.336-0.402-0.648-0.604-0.973c-1.172,0.199-2.587,0.339-4.29,0.339
					c-1.587,0-3.44-0.135-5.531-0.432c-0.18-0.247-0.362-0.491-0.543-0.735c4.4,0.673,7.677,0.567,9.983,0.213
					c-6.505-10.507-9.038-15.623-4.908-31.14c1.147-4.31,2.854-8.357,4.813-12.05c-2.653-4.12-4.065-7.943-4.826-10.853
					c0.153-0.239,0.307-0.478,0.461-0.71c0.692,2.839,2.049,6.716,4.709,10.928c3.861-7.093,8.606-12.81,12.008-16.447
					c0.172,0.12,0.34,0.244,0.508,0.369c-5.203,5.548-13.647,16.068-17.069,28.924c-1.403,5.271-2.033,9.274-2.005,12.709
					c0.06,0,0.12,0.001,0.18,0.001c5.598,0,10.057-1.127,13.544-2.677c-0.055,0.243-0.102,0.485-0.137,0.727
					c-3.502,1.498-7.909,2.576-13.406,2.576C356.273,266.425,356.218,266.425,356.163,266.424z"/>
			</g>
			<path style="fill:#7ABA68;" d="M386.195,348.243h-19.412c0,0,5.636-12.315-5.845-28.179c-11.48-15.864-5.01-25.465,1.044-33.606
				c6.053-8.141-7.097-25.181-1.67-32.107c5.427-6.926,39.134-10.892,31.047,12.904c-8.087,23.796,12.679,24.213,0,47.591
				C378.68,338.224,392.039,335.511,386.195,348.243z"/>
			<path style="fill:#94D186;" d="M400.023,346.73c0,0-3.298-11.115,9.153-22.543c12.451-11.428-2.745-23.639,0-36.633
				c2.745-12.994,7.911-35.38-14.632-33.032c-22.543,2.348,3.288,37.259-7.201,55.732c-10.489,18.473-27.24,10.802-5.166,49
				L400.023,346.73z"/>
			<g>
				<path style="fill:#B9EDAD;" d="M389.904,354.775l-0.553,0.294c-0.038-0.072-0.154-0.293-0.319-0.626l0.523-0.367
					C389.762,354.501,389.893,354.754,389.904,354.775z"/>
				<path style="fill:#B9EDAD;" d="M388.489,326.189c1.429-1.179,2.731-2.398,3.925-3.651c-1.261-0.643-5.241-2.917-8.445-7.362
					c0.138-0.169,0.275-0.336,0.412-0.511c3.316,4.677,7.53,6.932,8.478,7.395c8.505-9.22,10.75-20.381,6.646-33.263
					c-0.111-0.347-0.212-0.697-0.315-1.045c-0.247,0.026-0.648,0.057-1.215,0.057c-1.95,0-5.607-0.391-9.695-2.723
					c-0.056-0.277-0.115-0.552-0.172-0.828c5.14,3.11,9.644,2.995,10.899,2.885c-3.696-12.951-2.795-26.734-2.121-32.77
					c0.216-0.006,0.421-0.002,0.632-0.003c-0.425,3.78-0.953,10.712-0.331,18.595c7.92-2.019,12.144-4.974,14.254-6.996
					c0.037,0.265,0.075,0.528,0.104,0.798c-2.277,2.075-6.565,4.878-14.307,6.835c0.418,4.847,1.277,10.018,2.866,15.007
					c1.985,6.232,2.489,12.061,1.568,17.478c4.159-0.252,7.488-1.402,10.087-2.791c0.07,0.2,0.139,0.4,0.208,0.6
					c-2.687,1.423-6.119,2.591-10.399,2.829c-1.438,7.483-5.662,14.157-12.679,19.949c-8.544,7.053-1.08,23.801,0.668,27.405
					l-0.523,0.367C387.272,350.9,379.398,333.693,388.489,326.189z"/>
			</g>
		</g>
		<g>
			<polygon style="fill:#3655CD;" points="390.996,339.636 388.391,354.039 405.089,354.039 407.694,339.636 			"/>
			<polygon style="fill:#3655CD;" points="387.447,359.254 404.146,359.254 405.089,354.039 388.391,354.039 			"/>
			<polygon style="fill:#D4A54E;" points="384.332,376.475 401.031,376.475 404.146,359.254 387.447,359.254 			"/>
			<path style="fill:#3655CD;" d="M383.437,381.427c-0.817,4.515-2.939,8.505-5.917,11.645h8.38c6.86,0,12.949-4.767,14.21-11.51
				c0.008-0.045,0.017-0.09,0.025-0.135l0.896-4.952h-16.699L383.437,381.427z"/>
			<polygon style="fill:#5E7AF4;" points="360.938,354.039 377.637,354.039 388.391,354.039 390.996,339.636 377.637,339.636 
				360.938,339.636 347.579,339.636 350.184,354.039 			"/>
			<polygon style="fill:#3655CD;" points="360.938,354.039 350.184,354.039 351.128,359.254 360.938,359.254 377.637,359.254 
				387.447,359.254 388.391,354.039 377.637,354.039 			"/>
			<polygon style="fill:#F0CD7E;" points="360.938,359.254 351.128,359.254 354.242,376.475 360.938,376.475 377.637,376.475 
				384.332,376.475 387.447,359.254 377.637,359.254 			"/>
			<path style="fill:#5E7AF4;" d="M384.332,376.475h-6.696h-16.699h-6.696l0.896,4.952c0.008,0.045,0.017,0.09,0.025,0.135
				c1.262,6.743,7.351,11.51,14.211,11.51h8.146c2.978-3.14,5.1-7.13,5.917-11.645L384.332,376.475z"/>
		</g>
	</g>
	<g>
		<path style="fill:#373C45;" d="M294.097,259.75l0.499-1.31c0.141-0.37,0.496-0.615,0.892-0.615h46.421
			c0.397,0,0.752,0.245,0.893,0.617l0.495,1.308H294.097z"/>
		<g>
			<path style="fill:#373C45;" d="M314.799,239.258c-0.301,0.301-0.301,0.79,0,1.091c0.301,0.301,0.79,0.301,1.091,0
				c0.301-0.301,0.301-0.79,0-1.091S315.1,238.957,314.799,239.258z"/>
			<g>
				
					<rect x="308.015" y="241.934" transform="matrix(0.7071 -0.7071 0.7071 0.7071 -80.2407 291.9613)" style="fill:#373C45;" width="8.587" height="1.811"/>
				<g>
					<polygon style="fill:#373C45;" points="297.544,257.604 298.432,257.231 297.917,256.716 					"/>
					<path style="fill:#373C45;" d="M297.917,256.716l0.515,0.515l1.162-0.488c0.025-0.012,0.043-0.034,0.068-0.047l-1.209-1.209
						c-0.014,0.024-0.036,0.042-0.047,0.068L297.917,256.716z"/>
				</g>
				<path style="fill:#373C45;" d="M298.622,255.246c-0.07,0.07-0.12,0.155-0.169,0.24l1.209,1.209
					c0.086-0.049,0.171-0.099,0.24-0.169l0.088-0.088l-1.28-1.28L298.622,255.246z"/>
				
					<rect x="297.345" y="250.05" transform="matrix(0.7071 -0.7071 0.7071 0.7071 -88.3565 288.5996)" style="fill:#373C45;" width="13.696" height="1.811"/>
				
					<rect x="308.985" y="245.089" transform="matrix(0.7071 -0.7071 0.7071 0.7071 -83.3956 290.6545)" style="fill:#373C45;" width="0.336" height="1.811"/>
			</g>
		</g>
		<path style="fill:#373C45;" d="M296.788,258.018l0.391-1.573c0.054-0.218,0.25-0.371,0.474-0.371h3.564l-2.049,1.815
			c-0.09,0.083-0.209,0.13-0.332,0.13H296.788z"/>
	</g>
	<g>
		<g>
			<path style="fill:#AD746F;" d="M264.463,253.113c0,0,2.782-0.626,5.589-0.626s6.643,1.174,9.421,2.074
				c3.039,0.985,7.41,2.236,7.41,5.09h-24.292L264.463,253.113z"/>
			<g>
				<g>
					<g>
						<path style="fill:#AD746F;" d="M231.452,164.752c1.43-6.629,2.953-10.643-2.213-18.627c0,0-15.42,2.609-21.291,17.168
							c-0.3,0.745-0.548,1.48-0.767,2.21l-3.773,0.4c0,0,2.708,9.161-5.432,21.163l14.46,2.528
							c2.087-7.984,4.801-10.619,4.801-10.619s3.574,2.166,6.758,0.704c3.183-1.461,5.062-7.671,5.062-7.671s3.262-0.339,3.027-2.74
							C231.847,166.867,231.452,164.752,231.452,164.752z"/>
						<g>
							<path style="fill:#27212A;" d="M236.508,135.233c-5.39-6.029-15.936-5.954-15.936-5.954s-6.964-5.868-14.987-4.236
								c-8.023,1.631-9.952,11.091-9.952,11.091s-7.273,3.592-7.458,11.963c-0.027,1.226,0.059,2.316,0.21,3.308
								c-0.344,1.819-0.686,4.674,0.103,6.444c1.226,2.754,1.912,2.978,1.912,2.978s-0.728,4.255,1.913,6.202
								c2.642,1.948,5.387,2.018,5.387,2.018s0.605,1.868,2.44,2.4c1.836,0.533,3.571,0.072,3.571,0.072s5.234,2.921,9.132,0.142
								c2.844,1.042,7.937,1.61,11.139-5.612c0,0,4.901-0.257,5.634-5.639c0,0,5.18,0.818,7.605-3.717
								c2.425-4.535,1.489-8.925,1.489-8.925S242.389,141.811,236.508,135.233z"/>
							<g>
								<g>
									<path style="fill:#423848;" d="M197.512,157.646c-0.059,0-0.117-0.017-0.17-0.05c-0.1-0.065-2.438-1.605-2.754-3.942
										c-0.16-1.191,0.234-2.361,1.173-3.481c-0.355-0.667-1.363-2.866-0.684-5.307c0.539-1.939,2.008-3.54,4.365-4.756
										c0.154-0.078,0.343-0.019,0.422,0.134c0.079,0.154,0.019,0.342-0.135,0.422c-2.197,1.134-3.559,2.603-4.049,4.367
										c-0.725,2.608,0.714,4.99,0.728,5.014c0.073,0.117,0.059,0.269-0.033,0.372c-0.917,1.029-1.31,2.09-1.167,3.151
										c0.277,2.056,2.452,3.486,2.473,3.5c0.145,0.094,0.186,0.288,0.093,0.433C197.715,157.596,197.614,157.646,197.512,157.646
										z"/>
								</g>
								<g>
									<path style="fill:#423848;" d="M204.204,135.515c-0.047,0-0.093-0.01-0.138-0.032c-0.155-0.076-0.22-0.264-0.144-0.419
										c0.045-0.092,1.125-2.257,3.426-2.915c1.55-0.444,3.263-0.09,5.089,1.052c0.146,0.092,0.191,0.285,0.099,0.432
										c-0.091,0.147-0.284,0.191-0.432,0.099c-1.668-1.043-3.209-1.374-4.585-0.981c-2.036,0.582-3.026,2.568-3.036,2.588
										C204.431,135.45,204.319,135.515,204.204,135.515z"/>
								</g>
								<g>
									<path style="fill:#423848;" d="M204.229,152.21c-0.152,0-0.285-0.111-0.309-0.265c-0.01-0.07-0.248-1.71,0.791-2.982
										c0.701-0.857,1.799-1.327,3.264-1.396c0.163-0.022,0.319,0.125,0.327,0.298c0.009,0.172-0.125,0.319-0.298,0.327
										c-1.278,0.061-2.221,0.452-2.806,1.163c-0.863,1.052-0.662,2.481-0.66,2.495c0.026,0.171-0.092,0.33-0.262,0.357
										C204.261,152.209,204.245,152.21,204.229,152.21z"/>
								</g>
							</g>
						</g>
					</g>
					<g>
						<g>
							<path style="fill:#904B48;" d="M250.596,296.076c0,0-5.928,11.257-8.69,24.319c-2.357,11.149,2.734,29.514,1.17,42.551
								c-0.379,2.533-1.118,8.63-2.23,10.399c-1.364,2.169-4.212,4.473-4.672,7.454c-0.267,1.728,0.653,3.607,2.689,4.701
								c2.035,1.094,3.486,0.077,4.236,0.192c4.344,0.661,4.96,3.857,12.4,5.304c2.295,0.447,5.869-0.174,7.984-1.632
								c0.819-0.564,0.4-0.745-0.009-1.422c-0.409-0.677-5.41-3.471-7.831-5.086c-2.307-1.538-4.691-5.504-5.004-7.051
								c-0.313-1.546,1.236-8.772,1.905-11.802c4.612-20.872,10.354-50.843,13.306-63.008"/>
						</g>
						<path style="fill:#AD746F;" d="M304.13,384.258c-0.615-0.499-6.413-0.548-9.238-1.248c-2.691-0.667-6.277-3.592-7.095-4.941
							c-0.818-1.349-1.806-8.673-2.202-11.751c-2.611-20.329-7.641-53.989-9.23-67.7c-0.034-3.245-0.817-5.411-4.205-7.654
							c-8.168-5.41-39.366-15.667-74.781-21.438l-34.076,19.487c0,0,1.361,12.402,16.787,15.699
							c8.949,1.913,23.804-0.243,27.515-0.056c2.713,0.137,34.862,1.306,51.957,1.925c-0.267,4.892-0.331,11.852,0.653,18.999
							c1.555,11.289,13.175,30.15,16.115,42.946c0.501,2.512,1.869,8.499,1.42,10.54c-0.55,2.502-2.45,5.634-1.875,8.595
							c0.334,1.716,1.836,3.173,4.121,3.514c2.285,0.34,3.307-1.107,4.051-1.253c4.312-0.848,5.973,1.951,13.464,0.795
							c2.31-0.356,5.464-2.149,6.96-4.237C305.052,385.672,304.744,384.757,304.13,384.258z"/>
						<path style="fill:#F0CD7E;" d="M267.926,285.823c-9.516-3.789-21.186-8.044-39.209-12.792
							c-9.117-3.029-18.091-6.21-19.312-7.378c-2.581-2.467-5.109-7.939-5.109-7.939l-33.99,0.993c0,0-10.668,20.765-7.939,29.61
							c2.729,8.845,7.933,17.211,22.574,17.321c13.936,0.104,47.824,0.109,51.056,0.11c6.88,0.713,13.591,0.888,18.157,0.905
							c4.734,0.017,9.255-2.095,12.154-5.838c0.879-1.135,1.706-2.427,2.365-3.863c1.626-3.545,1.688-6.48,1.45-8.328
							C269.958,287.358,269.111,286.295,267.926,285.823z"/>
						<g>
							<path style="fill:#CB5176;" d="M223.271,229.633c1.29-2.287,1.621-5.365,1.164-8.912c-1.837-3.683-4.371-6.69-7.816-8.585
								c0,0-1.336,13.651-1.568,26.868C218.066,235.787,220.733,234.129,223.271,229.633z"/>
						</g>
						<g>
							<path style="fill:#E8A3B6;" d="M242.5,241.419c-0.115-0.312-0.237-0.65-0.364-1.012c0.201,0.624,0.315,0.974,0.315,0.974
								C242.466,241.394,242.484,241.406,242.5,241.419z"/>
							<g>
								<path style="fill:none;" d="M242.5,241.419c0.167,0.136,0.346,0.272,0.524,0.407c-0.281-0.423-0.568-0.868-0.867-1.355
									c0.187,0.58,0.294,0.91,0.294,0.91C242.466,241.394,242.484,241.406,242.5,241.419z"/>
								<path style="fill:#CB5176;" d="M180.609,246.74c2.347-6.082,3.782-12.479,4.423-18.967
									c0.483-4.897,0.941-9.479,1.401-11.928c2.107-11.206,3.77-20.119,7.281-29.84l-0.726,0.123
									c-4.585,0.78-8.399,3.966-9.997,8.334c-3.617,9.887-5.289,18.893-7.427,30.261c-0.46,2.449-0.918,7.031-1.402,11.928
									c-0.64,6.488-2.075,12.885-4.423,18.967c-0.607,1.572-1.199,2.934-1.757,4.033c0,0,9.876,5.581,43.288,7.049
									c0.222,0.01-0.724-4.083-0.764-9.618c-24.128-2.058-31.656-6.309-31.656-6.309
									C179.411,249.674,180.003,248.312,180.609,246.74z"/>
								<path style="fill:#E8A3B6;" d="M243.298,242.239c0.79,1.152,3.895,2.641,7.772,4.048c-3.04-1.34-5.923-2.852-8.047-4.461
									C243.115,241.964,243.209,242.109,243.298,242.239z"/>
								<path style="fill:#E8A3B6;" d="M267.219,251.908c0,0-8.552-2.273-16.149-5.622c-3.877-1.407-6.982-2.895-7.772-4.048
									c-0.089-0.13-0.183-0.276-0.275-0.413c-0.178-0.135-0.357-0.27-0.524-0.407c-0.016-0.013-0.033-0.025-0.049-0.038
									c0,0-0.107-0.33-0.294-0.91c-0.008-0.023-0.013-0.04-0.021-0.064c-1.632-4.655-5.725-12.601-9.057-22.816
									c-0.61-2.486-1.157-5.026-1.697-7.516c-2.071-9.557-4.028-18.348-8.99-20.244c-2.596-0.992-5.149-1.648-7.621-2.313
									c-0.002-0.017-0.361-2.666-5.745-4.461c-2.294-0.765-4.415-0.997-6.185-0.963c-0.697,0.013-1.336,0.068-1.911,0.149
									c-1.402,0.197-2.416,0.543-2.863,0.815c-1.096,0.665-2.389,2.614-2.389,2.614l-1.964,0.334
									c-3.511,9.721-5.174,18.635-7.281,29.84c-0.46,2.449-0.918,7.031-1.401,11.928c-0.64,6.488-2.075,12.885-4.423,18.967
									c-0.606,1.572-1.199,2.934-1.757,4.033c0,0,7.528,4.251,31.656,6.309c-0.039-5.47,0.807-12.349,4.543-18.078
									c0.136-7.76,0.652-15.666,1.056-20.874c0,0,3.455,8.056,7.498,16.529c3.008,6.304,6.342,12.838,8.825,16.458
									c1.879,2.74,16.829,7.384,24.187,8.297c5.612,0.581,10.036,0.237,10.036,0.237S269.254,257.805,267.219,251.908z"/>
							</g>
						</g>
					</g>
				</g>
				<g>
					<g>
						<path style="fill:#54688A;" d="M157.641,339.951c11.021-39.266,22.049-58.354,33.714-58.354
							c11.763,0,21.435,19.145,29.568,58.529c4.14,20.051,6.754,40.278,7.918,50.287c0.178,1.527-1.015,2.865-2.553,2.865h-0.031
							c-1.304,0-2.401-0.97-2.551-2.265c-1.153-9.911-3.746-29.99-7.854-49.875c-10.137-49.072-20.508-54.37-24.497-54.37
							c-15.543,0-32.38,61.547-40.313,104.414c-0.226,1.219-1.284,2.096-2.523,2.096l0,0c-1.612,0-2.827-1.459-2.526-3.043
							C147.899,380.23,152.013,360.003,157.641,339.951z"/>
					</g>
					<g>
						<g>
							<path style="fill:#5E7AF4;" d="M269.913,292.904c-3.748,0.858-9.381,1.984-15.249,2.578c-2.472,0.25-4.986,0.408-7.42,0.408
								c-8.562,0-17.626-2.589-22.514-4.232c-2.144-0.72-3.536-2.767-3.436-5.026c0.669-15.143,1.489-72.132-23.065-84.792
								c-3.12-1.609-6.647-2.509-10.639-2.509c-41.561,0-35.47,89.393-35.47,89.393s1.433,25.259,62.342,25.259
								c0.106,0,0.205-0.002,0.31-0.003c41.686-0.053,54.275-10.546,58.069-17.089c0.062-0.107,0.111-0.215,0.157-0.324
								C273.828,294.599,272.093,292.405,269.913,292.904z"/>
							<path style="fill:#3655CD;" d="M187.589,199.332c3.993,0,7.519,0.9,10.639,2.509c-31.809,11.809-26.628,87.858-26.628,87.858
								s1.124,19.644,43.17,24.283c-0.105,0-0.204,0.003-0.31,0.003c-60.909,0-62.342-25.259-62.342-25.259
								S146.028,199.332,187.589,199.332z"/>
						</g>
						<g>
							<path style="fill:#3655CD;" d="M196.639,209.097c15.38,15.815,14.168,65.765,14.154,66.268
								c-0.004,0.146,0.111,0.269,0.258,0.273c0.003,0,0.005,0,0.007,0c0.143,0,0.262-0.114,0.266-0.258
								c0.014-0.504,1.231-50.679-14.304-66.653c-1.507-1.55-3.136-2.726-4.869-3.55c-0.158,0.118-0.317,0.234-0.473,0.355
								C193.448,206.331,195.106,207.52,196.639,209.097z"/>
							<path style="fill:#5E7AF4;" d="M160.528,230.271c-4.08,13.034-4.853,26.24-4.86,26.372c-0.007,0.146,0.105,0.272,0.251,0.28
								c0.155-0.005,0.272-0.104,0.28-0.251c0.029-0.523,3.218-52.365,29.754-52.365c2.016,0,3.928,0.411,5.725,1.223
								c0.156-0.121,0.315-0.237,0.473-0.355c-1.938-0.922-4.007-1.4-6.198-1.4C174.746,203.777,165.954,212.938,160.528,230.271z"
								/>
						</g>
					</g>
					<g>
						<path style="fill:#8291AE;" d="M204.328,339.932c11.217-39.269,22.431-58.358,34.284-58.358
							c11.953,0,21.788,19.148,30.065,58.538c4.214,20.055,6.874,40.286,8.059,50.295c0.181,1.529-1.013,2.87-2.552,2.87h-0.045
							c-1.309,0-2.404-0.977-2.551-2.277c-4.827-42.788-17.262-104.21-32.977-104.21c-15.834,0-32.974,61.537-41.048,104.4
							c-0.229,1.215-1.285,2.088-2.521,2.088h-0.046c-1.616,0-2.832-1.465-2.524-3.051
							C194.411,380.223,198.599,359.99,204.328,339.932z"/>
					</g>
				</g>
			</g>
		</g>
		<g>
			<path style="fill:#F0CD7E;" d="M295.452,383.124c0,0,9.572,0.121,10.342,2.156c1.137,3.006-5.636,5.54-10.476,6.145
				c-4.66,0.582-18.544,1.036-19.694-1.957c-1.151-2.993,1.704-8.814,1.704-8.814s2.805,5.345,11.963,5.749
				C298.45,386.807,295.452,383.124,295.452,383.124z"/>
			<path style="fill:#F0CD7E;" d="M256.101,383.183c0,0,8.893,3.544,8.882,5.72c-0.016,3.214-7.247,3.152-11.982,1.982
				c-4.559-1.126-17.075-5.095-17.404-8.285c-0.412-3.994,4.532-8.188,4.532-8.188s0.641,5.965,9.046,9.624
				C257.579,387.696,256.101,383.183,256.101,383.183z"/>
		</g>
	</g>
</g>
<g id="DESIGNED_BY_FREEPIK">
	<g id="XMLID_4204_">
		<g id="XMLID_4205_">
			<g id="XMLID_4206_">
				<path id="XMLID_4207_" style="fill:#1D262D;" d="M260.104,473.627c-0.432,0.443-0.803,0.931-1.108,1.453l-0.465-0.241
					c-0.067-0.298-0.349-0.503-0.659-0.466c-0.331,0.039-0.568,0.339-0.529,0.67c0.039,0.331,0.339,0.568,0.67,0.529
					c0.065-0.008,0.127-0.026,0.184-0.052l0.451,0.234c-0.251,0.554-0.433,1.139-0.539,1.744l0.746,0.132
					c0.23-1.306,0.85-2.507,1.792-3.473L260.104,473.627z"/>
				<path id="XMLID_4208_" style="fill:#1D262D;" d="M265.592,471.325c-0.171,0-0.341,0.006-0.51,0.017l-0.074-0.626
					c0.188-0.149,0.296-0.389,0.266-0.645c-0.046-0.393-0.402-0.674-0.795-0.628c-0.393,0.046-0.674,0.402-0.628,0.795
					c0.03,0.254,0.189,0.461,0.405,0.564l0.073,0.624c-0.714,0.116-1.403,0.332-2.06,0.646l0.327,0.684
					c0.934-0.447,1.942-0.673,2.995-0.673c0.496,0,0.993,0.053,1.475,0.158l0.161-0.741
					C266.693,471.384,266.142,471.325,265.592,471.325z"/>
				<path id="XMLID_4209_" style="fill:#1D262D;" d="M272.194,473.872c0.331-0.04,0.566-0.342,0.525-0.672
					c-0.04-0.331-0.341-0.566-0.672-0.526c-0.309,0.038-0.535,0.304-0.53,0.609l-0.416,0.363c-0.418-0.43-0.89-0.813-1.408-1.139
					l-0.404,0.641c1.134,0.715,2.021,1.726,2.563,2.925l0.691-0.313c-0.251-0.554-0.568-1.072-0.942-1.545l0.402-0.351
					C272.065,473.877,272.129,473.88,272.194,473.872z"/>
				<path id="XMLID_4210_" style="fill:#1D262D;" d="M265.044,481.533c-0.386,0.023-0.775,0.035-1.157,0.035
					c-0.88,0-1.733-0.061-2.478-0.179c-0.39-0.062-0.846-0.155-1.27-0.292c1.046,1.861,3.069,3.125,5.388,3.125
					c2.855,0,5.262-1.916,5.95-4.504c-0.682,0.449-1.505,0.825-2.459,1.123C267.839,481.208,266.464,481.448,265.044,481.533z"/>
				<path id="XMLID_4211_" style="fill:#1D262D;" d="M265.592,472.841c-3.352,0-6.08,2.666-6.08,5.943
					c0,0.426,0.046,0.849,0.137,1.261c0.674,0.483,2.706,0.89,5.348,0.731c2.879-0.173,5.297-0.957,6.672-2.159
					c-0.005-0.195-0.021-0.39-0.045-0.582C271.244,475.074,268.65,472.841,265.592,472.841z M263.432,479.356
					c-1.02,0-1.85-0.83-1.85-1.85c0-1.02,0.83-1.85,1.85-1.85c1.02,0,1.85,0.83,1.85,1.85
					C265.282,478.526,264.452,479.356,263.432,479.356z M268.17,478.448c-0.75,0-1.36-0.61-1.36-1.36c0-0.75,0.61-1.361,1.36-1.361
					c0.75,0,1.361,0.61,1.361,1.361C269.53,477.837,268.92,478.448,268.17,478.448z"/>
			</g>
			<path id="XMLID_4215_" style="fill:#1D262D;" d="M281.595,474.708c-0.295-0.116-0.806-0.309-1.382-0.237
				c-0.551,0.069-0.844,0.341-0.844,1.007v0.866h2.228v1.717h-2.228v5.455h-1.932v-5.455h-1.34v-1.717h1.34v-0.888
				c0-1.68,0.896-2.783,2.568-2.783c0.642,0,1.157,0.122,1.59,0.308L281.595,474.708z"/>
			<path id="XMLID_4217_" style="fill:#1D262D;" d="M286.298,478.04c-0.177-0.03-0.358-0.046-0.526-0.046
				c-0.896,0-1.51,0.548-1.51,1.613v3.908h-1.932v-7.172h1.873v0.785c0.451-0.673,1.14-0.977,2.021-0.977
				c0.414,0,0.848,0.128,1.094,0.337L286.298,478.04z"/>
			<path id="XMLID_4219_" style="fill:#1D262D;" d="M293.965,479.918c0,0.222-0.015,0.489-0.037,0.651h-5.085
				c0.207,1.036,0.933,1.488,1.843,1.488c0.622,0,1.295-0.252,1.813-0.688l1.132,1.243c-0.814,0.748-1.85,1.088-3.057,1.088
				c-2.198,0-3.723-1.495-3.723-3.753c0-2.258,1.48-3.797,3.627-3.797C292.544,476.151,293.958,477.683,293.965,479.918z
				 M288.851,479.252h3.175c-0.177-0.918-0.733-1.436-1.562-1.436C289.554,477.816,289.021,478.364,288.851,479.252z"/>
			<path id="XMLID_4222_" style="fill:#1D262D;" d="M301.618,479.918c0,0.222-0.015,0.489-0.037,0.651h-5.085
				c0.207,1.036,0.932,1.488,1.843,1.488c0.622,0,1.295-0.252,1.813-0.688l1.132,1.243c-0.814,0.748-1.85,1.088-3.057,1.088
				c-2.198,0-3.723-1.495-3.723-3.753c0-2.258,1.48-3.797,3.627-3.797C300.197,476.151,301.611,477.683,301.618,479.918z
				 M296.504,479.252h3.175c-0.178-0.918-0.733-1.436-1.562-1.436C297.207,477.816,296.674,478.364,296.504,479.252z"/>
			<path id="XMLID_4225_" style="fill:#1D262D;" d="M309.964,479.926c0,2.154-1.495,3.775-3.471,3.775
				c-0.962,0-1.643-0.378-2.109-0.933v3.708h-1.924v-10.133h1.887v0.792c0.466-0.585,1.155-0.984,2.139-0.984
				C308.469,476.151,309.964,477.772,309.964,479.926z M304.287,479.926c0,1.132,0.747,1.976,1.843,1.976
				c1.14,0,1.85-0.881,1.85-1.976c0-1.095-0.71-1.976-1.85-1.976C305.035,477.949,304.287,478.793,304.287,479.926z"/>
			<path id="XMLID_4228_" style="fill:#1D262D;" d="M313.068,473.997c0,0.696-0.54,1.229-1.236,1.229
				c-0.696,0-1.229-0.533-1.229-1.229c0-0.696,0.533-1.243,1.229-1.243C312.527,472.754,313.068,473.301,313.068,473.997z
				 M312.809,483.515h-1.932v-7.172h1.932V483.515z"/>
			<path id="XMLID_4231_" style="fill:#1D262D;" d="M316.032,478.897l2.702-2.554h2.368l-3.479,3.375l3.501,3.797h-2.376
				l-2.716-2.901v2.901H314.1v-10.658h1.932V478.897z"/>
		</g>
		<g id="XMLID_4233_">
			<path id="XMLID_4234_" style="fill:#1D262D;" d="M184.412,483.45v-1.055c-0.527,0.718-1.391,1.23-2.388,1.23
				c-1.846,0-3.149-1.406-3.149-3.706c0-2.256,1.289-3.721,3.149-3.721c0.952,0,1.816,0.469,2.388,1.245v-3.765h1.099v9.77H184.412z
				 M184.412,481.531v-3.208c-0.395-0.615-1.245-1.143-2.124-1.143c-1.421,0-2.27,1.172-2.27,2.739c0,1.567,0.85,2.724,2.27,2.724
				C183.168,482.645,184.017,482.147,184.412,481.531z"/>
			<path id="XMLID_4237_" style="fill:#1D262D;" d="M186.932,479.906c0-2.051,1.465-3.706,3.486-3.706
				c2.139,0,3.398,1.67,3.398,3.794v0.279h-5.727c0.088,1.333,1.025,2.446,2.549,2.446c0.805,0,1.626-0.322,2.182-0.893l0.527,0.718
				c-0.703,0.703-1.655,1.084-2.812,1.084C188.44,483.626,186.932,482.117,186.932,479.906z M190.403,477.108
				c-1.509,0-2.256,1.274-2.314,2.358h4.643C192.718,478.411,192.015,477.108,190.403,477.108z"/>
			<path id="XMLID_4240_" style="fill:#1D262D;" d="M194.607,482.513l0.571-0.791c0.469,0.542,1.362,1.011,2.329,1.011
				c1.084,0,1.67-0.513,1.67-1.216c0-1.714-4.38-0.659-4.38-3.281c0-1.098,0.952-2.036,2.636-2.036c1.201,0,2.051,0.454,2.622,1.025
				l-0.513,0.762c-0.424-0.513-1.201-0.894-2.109-0.894c-0.967,0-1.567,0.483-1.567,1.113c0,1.552,4.38,0.527,4.38,3.281
				c0,1.187-0.952,2.138-2.783,2.138C196.306,483.626,195.325,483.275,194.607,482.513z"/>
			<path id="XMLID_4242_" style="fill:#1D262D;" d="M201.477,474.632c0-0.41,0.337-0.747,0.732-0.747
				c0.41,0,0.747,0.337,0.747,0.747c0,0.41-0.337,0.732-0.747,0.732C201.814,475.365,201.477,475.043,201.477,474.632z
				 M201.667,483.45v-7.075h1.099v7.075H201.667z"/>
			<path id="XMLID_4245_" style="fill:#1D262D;" d="M204.582,485.267l0.556-0.82c0.586,0.703,1.289,0.967,2.3,0.967
				c1.172,0,2.27-0.571,2.27-2.124v-1.011c-0.513,0.718-1.377,1.26-2.373,1.26c-1.845,0-3.149-1.377-3.149-3.662
				c0-2.27,1.289-3.676,3.149-3.676c0.952,0,1.802,0.469,2.373,1.245v-1.069h1.098v6.87c0,2.344-1.641,3.076-3.369,3.076
				C206.237,486.321,205.417,486.087,204.582,485.267z M209.709,481.414v-3.091c-0.381-0.615-1.23-1.143-2.109-1.143
				c-1.421,0-2.27,1.128-2.27,2.695c0,1.553,0.849,2.695,2.27,2.695C208.478,482.572,209.328,482.03,209.709,481.414z"/>
			<path id="XMLID_4248_" style="fill:#1D262D;" d="M217.413,483.45v-4.629c0-1.245-0.63-1.641-1.582-1.641
				c-0.865,0-1.685,0.527-2.095,1.099v5.17h-1.099v-7.075h1.099v1.025c0.498-0.586,1.465-1.201,2.519-1.201
				c1.48,0,2.256,0.747,2.256,2.285v4.966H217.413z"/>
			<path id="XMLID_4250_" style="fill:#1D262D;" d="M219.932,479.906c0-2.051,1.465-3.706,3.486-3.706
				c2.139,0,3.398,1.67,3.398,3.794v0.279h-5.727c0.088,1.333,1.025,2.446,2.549,2.446c0.806,0,1.626-0.322,2.183-0.893l0.527,0.718
				c-0.703,0.703-1.655,1.084-2.812,1.084C221.441,483.626,219.932,482.117,219.932,479.906z M223.404,477.108
				c-1.509,0-2.256,1.274-2.314,2.358h4.643C225.718,478.411,225.015,477.108,223.404,477.108z"/>
			<path id="XMLID_4253_" style="fill:#1D262D;" d="M233.35,483.45v-1.055c-0.527,0.718-1.392,1.23-2.388,1.23
				c-1.846,0-3.149-1.406-3.149-3.706c0-2.256,1.289-3.721,3.149-3.721c0.952,0,1.817,0.469,2.388,1.245v-3.765h1.098v9.77H233.35z
				 M233.35,481.531v-3.208c-0.396-0.615-1.245-1.143-2.124-1.143c-1.421,0-2.27,1.172-2.27,2.739c0,1.567,0.849,2.724,2.27,2.724
				C232.105,482.645,232.954,482.147,233.35,481.531z"/>
			<path id="XMLID_4256_" style="fill:#1D262D;" d="M239.692,483.45v-9.77h1.098v3.765c0.572-0.776,1.421-1.245,2.388-1.245
				c1.845,0,3.149,1.465,3.149,3.721c0,2.299-1.304,3.706-3.149,3.706c-0.996,0-1.86-0.513-2.388-1.23v1.055H239.692z
				 M242.9,482.645c1.436,0,2.285-1.157,2.285-2.724c0-1.568-0.85-2.739-2.285-2.739c-0.864,0-1.728,0.527-2.109,1.143v3.208
				C241.171,482.147,242.036,482.645,242.9,482.645z"/>
			<path id="XMLID_4259_" style="fill:#1D262D;" d="M247.528,485.223c0.161,0.073,0.425,0.117,0.601,0.117
				c0.483,0,0.805-0.161,1.055-0.747l0.469-1.069l-2.959-7.148h1.187l2.358,5.801l2.344-5.801h1.201l-3.545,8.51
				c-0.425,1.025-1.143,1.421-2.08,1.435c-0.234,0-0.601-0.044-0.805-0.103L247.528,485.223z"/>
		</g>
	</g>
</g>
</svg>
